<?xml version="1.0" encoding="utf-8" standalone="no"?>
<!DOCTYPE svg PUBLIC "-//W3C//DTD SVG 1.1//EN"
  "http://www.w3.org/Graphics/SVG/1.1/DTD/svg11.dtd">
<svg xmlns:xlink="http://www.w3.org/1999/xlink" width="349.026875pt" height="352.8pt" viewBox="0 0 349.026875 352.8" xmlns="http://www.w3.org/2000/svg" version="1.1">
 <metadata>
  <rdf:RDF xmlns:dc="http://purl.org/dc/elements/1.1/" xmlns:cc="http://creativecommons.org/ns#" xmlns:rdf="http://www.w3.org/1999/02/22-rdf-syntax-ns#">
   <cc:Work>
    <dc:type rdf:resource="http://purl.org/dc/dcmitype/StillImage"/>
    <dc:date>2026-04-14T15:37:25.331278</dc:date>
    <dc:format>image/svg+xml</dc:format>
    <dc:creator>
     <cc:Agent>
      <dc:title>Matplotlib v3.9.2, https://matplotlib.org/</dc:title>
     </cc:Agent>
    </dc:creator>
   </cc:Work>
  </rdf:RDF>
 </metadata>
 <defs>
  <style type="text/css">*{stroke-linejoin: round; stroke-linecap: butt}</style>
 </defs>
 <g id="figure_1">
  <g id="patch_1">
   <path d="M 0 352.8 
L 349.026875 352.8 
L 349.026875 0 
L 0 0 
z
" style="fill: #ffffff"/>
  </g>
  <g id="axes_1">
   <g id="patch_2">
    <path d="M 65.54375 140.64375 
L 277.2 140.64375 
L 277.2 22.318125 
L 65.54375 22.318125 
z
" style="fill: #ffffff"/>
   </g>
   <g id="matplotlib.axis_1">
    <g id="xtick_1">
     <g id="line2d_1">
      <defs>
       <path id="m6e450ee3aa" d="M 0 0 
L 0 3.5 
" style="stroke: #000000; stroke-width: 0.8"/>
      </defs>
      <g>
       <use xlink:href="#m6e450ee3aa" x="75.164489" y="140.64375" style="stroke: #000000; stroke-width: 0.8"/>
      </g>
     </g>
     <g id="text_1">
      <text style="font: 10px 'DejaVu Sans', 'Bitstream Vera Sans', 'Computer Modern Sans Serif', 'Lucida Grande', 'Verdana', 'Geneva', 'Lucid', 'Arial', 'Helvetica', 'Avant Garde', sans-serif; text-anchor: middle" x="75.164489" y="155.242188" transform="rotate(-0 75.164489 155.242188)">0</text>
     </g>
    </g>
    <g id="xtick_2">
     <g id="line2d_2">
      <g>
       <use xlink:href="#m6e450ee3aa" x="110.534851" y="140.64375" style="stroke: #000000; stroke-width: 0.8"/>
      </g>
     </g>
     <g id="text_2">
      <text style="font: 10px 'DejaVu Sans', 'Bitstream Vera Sans', 'Computer Modern Sans Serif', 'Lucida Grande', 'Verdana', 'Geneva', 'Lucid', 'Arial', 'Helvetica', 'Avant Garde', sans-serif; text-anchor: middle" x="110.534851" y="155.242188" transform="rotate(-0 110.534851 155.242188)">25</text>
     </g>
    </g>
    <g id="xtick_3">
     <g id="line2d_3">
      <g>
       <use xlink:href="#m6e450ee3aa" x="145.905214" y="140.64375" style="stroke: #000000; stroke-width: 0.8"/>
      </g>
     </g>
     <g id="text_3">
      <text style="font: 10px 'DejaVu Sans', 'Bitstream Vera Sans', 'Computer Modern Sans Serif', 'Lucida Grande', 'Verdana', 'Geneva', 'Lucid', 'Arial', 'Helvetica', 'Avant Garde', sans-serif; text-anchor: middle" x="145.905214" y="155.242188" transform="rotate(-0 145.905214 155.242188)">50</text>
     </g>
    </g>
    <g id="xtick_4">
     <g id="line2d_4">
      <g>
       <use xlink:href="#m6e450ee3aa" x="181.275577" y="140.64375" style="stroke: #000000; stroke-width: 0.8"/>
      </g>
     </g>
     <g id="text_4">
      <text style="font: 10px 'DejaVu Sans', 'Bitstream Vera Sans', 'Computer Modern Sans Serif', 'Lucida Grande', 'Verdana', 'Geneva', 'Lucid', 'Arial', 'Helvetica', 'Avant Garde', sans-serif; text-anchor: middle" x="181.275577" y="155.242188" transform="rotate(-0 181.275577 155.242188)">75</text>
     </g>
    </g>
    <g id="xtick_5">
     <g id="line2d_5">
      <g>
       <use xlink:href="#m6e450ee3aa" x="216.645939" y="140.64375" style="stroke: #000000; stroke-width: 0.8"/>
      </g>
     </g>
     <g id="text_5">
      <text style="font: 10px 'DejaVu Sans', 'Bitstream Vera Sans', 'Computer Modern Sans Serif', 'Lucida Grande', 'Verdana', 'Geneva', 'Lucid', 'Arial', 'Helvetica', 'Avant Garde', sans-serif; text-anchor: middle" x="216.645939" y="155.242188" transform="rotate(-0 216.645939 155.242188)">100</text>
     </g>
    </g>
    <g id="xtick_6">
     <g id="line2d_6">
      <g>
       <use xlink:href="#m6e450ee3aa" x="252.016302" y="140.64375" style="stroke: #000000; stroke-width: 0.8"/>
      </g>
     </g>
     <g id="text_6">
      <text style="font: 10px 'DejaVu Sans', 'Bitstream Vera Sans', 'Computer Modern Sans Serif', 'Lucida Grande', 'Verdana', 'Geneva', 'Lucid', 'Arial', 'Helvetica', 'Avant Garde', sans-serif; text-anchor: middle" x="252.016302" y="155.242188" transform="rotate(-0 252.016302 155.242188)">125</text>
     </g>
    </g>
    <g id="text_7">
     <text style="font: 10px 'DejaVu Sans', 'Bitstream Vera Sans', 'Computer Modern Sans Serif', 'Lucida Grande', 'Verdana', 'Geneva', 'Lucid', 'Arial', 'Helvetica', 'Avant Garde', sans-serif; text-anchor: middle" x="171.371875" y="168.920312" transform="rotate(-0 171.371875 168.920312)">trial</text>
    </g>
   </g>
   <g id="matplotlib.axis_2">
    <g id="ytick_1">
     <g id="line2d_7">
      <defs>
       <path id="mdeb59614db" d="M 0 0 
L -3.5 0 
" style="stroke: #000000; stroke-width: 0.8"/>
      </defs>
      <g>
       <use xlink:href="#mdeb59614db" x="65.54375" y="135.265313" style="stroke: #000000; stroke-width: 0.8"/>
      </g>
     </g>
     <g id="text_8">
      <text style="font: 10px 'DejaVu Sans', 'Bitstream Vera Sans', 'Computer Modern Sans Serif', 'Lucida Grande', 'Verdana', 'Geneva', 'Lucid', 'Arial', 'Helvetica', 'Avant Garde', sans-serif; text-anchor: end" x="58.54375" y="139.064531" transform="rotate(-0 58.54375 139.064531)">0</text>
     </g>
    </g>
    <g id="ytick_2">
     <g id="line2d_8">
      <g>
       <use xlink:href="#mdeb59614db" x="65.54375" y="103.995327" style="stroke: #000000; stroke-width: 0.8"/>
      </g>
     </g>
     <g id="text_9">
      <text style="font: 10px 'DejaVu Sans', 'Bitstream Vera Sans', 'Computer Modern Sans Serif', 'Lucida Grande', 'Verdana', 'Geneva', 'Lucid', 'Arial', 'Helvetica', 'Avant Garde', sans-serif; text-anchor: end" x="58.54375" y="107.794546" transform="rotate(-0 58.54375 107.794546)">100</text>
     </g>
    </g>
    <g id="ytick_3">
     <g id="line2d_9">
      <g>
       <use xlink:href="#mdeb59614db" x="65.54375" y="72.725342" style="stroke: #000000; stroke-width: 0.8"/>
      </g>
     </g>
     <g id="text_10">
      <text style="font: 10px 'DejaVu Sans', 'Bitstream Vera Sans', 'Computer Modern Sans Serif', 'Lucida Grande', 'Verdana', 'Geneva', 'Lucid', 'Arial', 'Helvetica', 'Avant Garde', sans-serif; text-anchor: end" x="58.54375" y="76.52456" transform="rotate(-0 58.54375 76.52456)">200</text>
     </g>
    </g>
    <g id="ytick_4">
     <g id="line2d_10">
      <g>
       <use xlink:href="#mdeb59614db" x="65.54375" y="41.455356" style="stroke: #000000; stroke-width: 0.8"/>
      </g>
     </g>
     <g id="text_11">
      <text style="font: 10px 'DejaVu Sans', 'Bitstream Vera Sans', 'Computer Modern Sans Serif', 'Lucida Grande', 'Verdana', 'Geneva', 'Lucid', 'Arial', 'Helvetica', 'Avant Garde', sans-serif; text-anchor: end" x="58.54375" y="45.254575" transform="rotate(-0 58.54375 45.254575)">300</text>
     </g>
    </g>
    <g id="text_12">
     <text style="font: 10px 'DejaVu Sans', 'Bitstream Vera Sans', 'Computer Modern Sans Serif', 'Lucida Grande', 'Verdana', 'Geneva', 'Lucid', 'Arial', 'Helvetica', 'Avant Garde', sans-serif; text-anchor: middle" x="33.376562" y="81.480937" transform="rotate(-90 33.376562 81.480937)">reward</text>
    </g>
   </g>
   <g id="line2d_11">
    <path d="M 75.164489 135.265313 
L 76.579303 100.555629 
L 77.994118 85.546036 
L 79.408932 85.858735 
L 80.823747 135.265313 
L 82.238561 101.806428 
L 83.653376 98.05403 
L 85.06819 100.555629 
L 86.483005 135.265313 
L 87.897819 71.787242 
L 89.312634 58.028448 
L 90.727448 135.265313 
L 92.142263 135.265313 
L 93.557077 100.242929 
L 94.971892 135.265313 
L 96.386706 135.265313 
L 97.801521 117.128721 
L 99.216335 113.376323 
L 100.63115 106.496926 
L 102.045964 100.868328 
L 103.460779 93.676232 
L 104.875593 91.174633 
L 106.290408 91.487333 
L 107.705222 135.265313 
L 110.534851 135.265313 
L 111.949666 107.435025 
L 113.36448 116.816021 
L 114.779295 135.265313 
L 116.194109 111.812823 
L 117.608924 103.682627 
L 119.023738 91.487333 
L 120.438553 135.265313 
L 121.853367 135.265313 
L 123.268182 115.877922 
L 124.682996 113.063623 
L 126.097811 108.685825 
L 127.512625 105.871526 
L 128.92744 106.496926 
L 130.342254 103.682627 
L 131.757069 104.308027 
L 133.171883 103.995327 
L 134.586698 135.265313 
L 136.001512 103.682627 
L 137.416327 104.620727 
L 138.831141 85.858735 
L 140.245956 135.265313 
L 141.66077 89.298434 
L 144.490399 83.044437 
L 145.905214 101.806428 
L 147.320028 135.265313 
L 148.734843 135.265313 
L 150.149657 90.861933 
L 151.564472 77.415839 
L 152.979286 106.184226 
L 154.394101 99.930229 
L 155.808915 135.265313 
L 157.22373 103.057227 
L 158.638544 100.868328 
L 160.053359 98.992129 
L 161.468173 135.265313 
L 162.882988 103.057227 
L 164.297802 101.493728 
L 165.712617 99.617529 
L 167.127431 116.503321 
L 168.542246 135.265313 
L 169.95706 103.057227 
L 171.371875 103.369927 
L 172.78669 110.249324 
L 174.201504 135.265313 
L 175.616319 108.998525 
L 177.031133 102.431828 
L 178.445948 135.265313 
L 179.860762 135.265313 
L 181.275577 103.682627 
L 182.690391 102.431828 
L 184.105206 103.057227 
L 185.52002 135.265313 
L 186.934835 135.265313 
L 188.349649 103.995327 
L 189.764464 135.265313 
L 191.179278 105.871526 
L 192.594093 103.057227 
L 194.008907 135.265313 
L 195.423722 107.122326 
L 196.838536 105.246126 
L 198.253351 113.063623 
L 199.668165 106.809626 
L 201.08298 101.806428 
L 202.497794 111.812823 
L 203.912609 135.265313 
L 206.742238 103.369927 
L 208.157052 113.063623 
L 209.571867 101.493728 
L 210.986681 110.562024 
L 212.401496 100.242929 
L 213.81631 135.265313 
L 215.231125 116.190621 
L 216.645939 114.001722 
L 218.060754 113.063623 
L 219.475568 109.311225 
L 220.890383 113.063623 
L 222.305197 135.265313 
L 223.720012 114.939822 
L 225.134826 112.125523 
L 226.549641 112.750923 
L 227.964455 106.809626 
L 229.37927 101.493728 
L 230.794084 101.181028 
L 232.208899 101.181028 
L 233.623713 106.496926 
L 235.038528 104.933427 
L 236.453342 104.620727 
L 237.868157 102.744528 
L 239.282971 107.122326 
L 240.697786 102.744528 
L 242.1126 103.995327 
L 243.527415 135.265313 
L 244.942229 106.496926 
L 246.357044 102.431828 
L 247.771858 135.265313 
L 249.186673 112.125523 
L 250.601487 103.369927 
L 252.016302 27.696563 
L 253.431116 104.933427 
L 254.845931 103.682627 
L 256.260745 51.149052 
L 257.67556 135.265313 
L 259.090374 98.67943 
L 260.505189 102.119128 
L 261.920003 135.265313 
L 263.334818 135.265313 
L 264.749632 102.744528 
L 266.164447 135.265313 
L 267.579261 103.682627 
L 267.579261 103.682627 
" clip-path="url(#p4dde107cb2)" style="fill: none; stroke: #1f77b4; stroke-linecap: square"/>
   </g>
   <g id="line2d_12">
    <path d="M 75.164489 135.265313 
L 76.579303 133.214785 
L 77.994118 96.948508 
L 79.408932 89.111612 
L 80.823747 135.265313 
L 82.238561 114.476482 
L 83.653376 101.653234 
L 85.06819 103.635535 
L 86.483005 135.265313 
L 87.897819 109.499148 
L 89.312634 76.47962 
L 90.727448 135.265313 
L 92.142263 135.265313 
L 93.557077 117.773041 
L 94.971892 135.265313 
L 96.386706 135.265313 
L 99.216335 120.461133 
L 100.63115 106.867034 
L 102.045964 109.960547 
L 103.460779 103.611652 
L 104.875593 108.897736 
L 106.290408 132.254978 
L 107.705222 135.265313 
L 110.534851 135.265313 
L 111.949666 117.347868 
L 113.36448 119.473579 
L 114.779295 135.265313 
L 116.194109 111.912822 
L 117.608924 106.465875 
L 119.023738 94.641986 
L 120.438553 135.265313 
L 121.853367 135.265313 
L 123.268182 122.21016 
L 124.682996 118.85823 
L 126.097811 121.268214 
L 127.512625 118.514675 
L 128.92744 123.205154 
L 130.342254 121.734257 
L 131.757069 119.38749 
L 133.171883 104.901682 
L 134.586698 135.265313 
L 136.001512 109.521278 
L 137.416327 118.835838 
L 138.831141 92.763426 
L 140.245956 135.265313 
L 143.075585 98.332214 
L 144.490399 101.085607 
L 145.905214 115.748147 
L 147.320028 135.265313 
L 148.734843 135.265313 
L 150.149657 102.873285 
L 151.564472 110.563612 
L 152.979286 117.052814 
L 154.394101 104.66849 
L 155.808915 135.265313 
L 157.22373 108.423536 
L 158.638544 110.620663 
L 160.053359 106.089439 
L 161.468173 135.265313 
L 162.882988 117.918753 
L 164.297802 106.933607 
L 165.712617 100.669329 
L 167.127431 135.265313 
L 168.542246 135.265313 
L 169.95706 113.536056 
L 171.371875 121.260795 
L 172.78669 121.011842 
L 174.201504 135.265313 
L 175.616319 126.211559 
L 177.031133 121.744004 
L 178.445948 135.265313 
L 179.860762 135.265313 
L 181.275577 116.138022 
L 182.690391 106.635649 
L 184.105206 114.512299 
L 185.52002 135.265313 
L 186.934835 135.265313 
L 188.349649 105.463544 
L 189.764464 135.265313 
L 191.179278 106.590448 
L 192.594093 127.718149 
L 194.008907 135.265313 
L 195.423722 123.596927 
L 196.838536 106.776303 
L 198.253351 115.481424 
L 201.08298 125.791265 
L 202.497794 128.028847 
L 203.912609 135.265313 
L 206.742238 108.355739 
L 208.157052 114.712357 
L 209.571867 107.58058 
L 210.986681 135.265313 
L 212.401496 110.668061 
L 213.81631 135.265313 
L 215.231125 127.797929 
L 216.645939 129.968893 
L 218.060754 124.126448 
L 219.475568 80.56731 
L 220.890383 125.892568 
L 222.305197 135.265313 
L 223.720012 128.722181 
L 225.134826 135.265313 
L 226.549641 133.269946 
L 227.964455 113.794007 
L 229.37927 104.667375 
L 230.794084 111.474575 
L 232.208899 113.165785 
L 233.623713 113.62367 
L 235.038528 128.188931 
L 236.453342 107.115003 
L 237.868157 106.797384 
L 239.282971 115.534091 
L 240.697786 109.271028 
L 242.1126 104.209015 
L 243.527415 135.265313 
L 244.942229 109.684015 
L 246.357044 115.61679 
L 247.771858 135.265313 
L 249.186673 122.536351 
L 250.601487 103.683304 
L 252.016302 40.893564 
L 253.431116 133.58914 
L 254.845931 120.318216 
L 256.260745 91.137127 
L 257.67556 135.265313 
L 259.090374 98.958035 
L 260.505189 127.084664 
L 261.920003 135.265313 
L 263.334818 135.265313 
L 264.749632 62.28924 
L 266.164447 135.265313 
L 267.579261 116.885255 
L 267.579261 116.885255 
" clip-path="url(#p4dde107cb2)" style="fill: none; stroke: #ff7f0e; stroke-opacity: 0.5; stroke-linecap: square"/>
   </g>
   <g id="patch_3">
    <path d="M 65.54375 140.64375 
L 65.54375 22.318125 
" style="fill: none; stroke: #000000; stroke-width: 0.8; stroke-linejoin: miter; stroke-linecap: square"/>
   </g>
   <g id="patch_4">
    <path d="M 65.54375 140.64375 
L 277.2 140.64375 
" style="fill: none; stroke: #000000; stroke-width: 0.8; stroke-linejoin: miter; stroke-linecap: square"/>
   </g>
   <g id="text_13">
    <text style="font: 12px 'DejaVu Sans', 'Bitstream Vera Sans', 'Computer Modern Sans Serif', 'Lucida Grande', 'Verdana', 'Geneva', 'Lucid', 'Arial', 'Helvetica', 'Avant Garde', sans-serif; text-anchor: middle" x="171.371875" y="16.318125" transform="rotate(-0 171.371875 16.318125)">201810 - reward</text>
   </g>
   <g id="legend_1">
    <g id="line2d_13">
     <path d="M 285.433125 30.416562 
L 285.433125 30.416562 
L 285.433125 30.416562 
" style="fill: none; stroke: #1f77b4; stroke-linecap: square"/>
    </g>
    <g id="text_14">
     <text style="fill: #1f77b4; font: 10px 'DejaVu Sans', 'Bitstream Vera Sans', 'Computer Modern Sans Serif', 'Lucida Grande', 'Verdana', 'Geneva', 'Lucid', 'Arial', 'Helvetica', 'Avant Garde', sans-serif; text-anchor: start" x="288.433125" y="33.916562" transform="rotate(-0 288.433125 33.916562)">real</text>
    </g>
    <g id="line2d_14">
     <path d="M 285.433125 45.094688 
L 285.433125 45.094688 
L 285.433125 45.094688 
" style="fill: none; stroke: #ff7f0e; stroke-opacity: 0.5; stroke-linecap: square"/>
    </g>
    <g id="text_15">
     <text style="fill: #ff7f0e; font: 10px 'DejaVu Sans', 'Bitstream Vera Sans', 'Computer Modern Sans Serif', 'Lucida Grande', 'Verdana', 'Geneva', 'Lucid', 'Arial', 'Helvetica', 'Avant Garde', sans-serif; text-anchor: start" x="288.433125" y="48.594688" transform="rotate(-0 288.433125 48.594688)">simulated</text>
    </g>
   </g>
  </g>
  <g id="axes_2">
   <g id="patch_5">
    <path d="M 65.54375 315.24375 
L 277.2 315.24375 
L 277.2 196.918125 
L 65.54375 196.918125 
z
" style="fill: #ffffff"/>
   </g>
   <g id="matplotlib.axis_3">
    <g id="xtick_7">
     <g id="line2d_15">
      <g>
       <use xlink:href="#m6e450ee3aa" x="75.164489" y="315.24375" style="stroke: #000000; stroke-width: 0.8"/>
      </g>
     </g>
     <g id="text_16">
      <text style="font: 10px 'DejaVu Sans', 'Bitstream Vera Sans', 'Computer Modern Sans Serif', 'Lucida Grande', 'Verdana', 'Geneva', 'Lucid', 'Arial', 'Helvetica', 'Avant Garde', sans-serif; text-anchor: middle" x="75.164489" y="329.842187" transform="rotate(-0 75.164489 329.842187)">0</text>
     </g>
    </g>
    <g id="xtick_8">
     <g id="line2d_16">
      <g>
       <use xlink:href="#m6e450ee3aa" x="110.534851" y="315.24375" style="stroke: #000000; stroke-width: 0.8"/>
      </g>
     </g>
     <g id="text_17">
      <text style="font: 10px 'DejaVu Sans', 'Bitstream Vera Sans', 'Computer Modern Sans Serif', 'Lucida Grande', 'Verdana', 'Geneva', 'Lucid', 'Arial', 'Helvetica', 'Avant Garde', sans-serif; text-anchor: middle" x="110.534851" y="329.842187" transform="rotate(-0 110.534851 329.842187)">25</text>
     </g>
    </g>
    <g id="xtick_9">
     <g id="line2d_17">
      <g>
       <use xlink:href="#m6e450ee3aa" x="145.905214" y="315.24375" style="stroke: #000000; stroke-width: 0.8"/>
      </g>
     </g>
     <g id="text_18">
      <text style="font: 10px 'DejaVu Sans', 'Bitstream Vera Sans', 'Computer Modern Sans Serif', 'Lucida Grande', 'Verdana', 'Geneva', 'Lucid', 'Arial', 'Helvetica', 'Avant Garde', sans-serif; text-anchor: middle" x="145.905214" y="329.842187" transform="rotate(-0 145.905214 329.842187)">50</text>
     </g>
    </g>
    <g id="xtick_10">
     <g id="line2d_18">
      <g>
       <use xlink:href="#m6e450ee3aa" x="181.275577" y="315.24375" style="stroke: #000000; stroke-width: 0.8"/>
      </g>
     </g>
     <g id="text_19">
      <text style="font: 10px 'DejaVu Sans', 'Bitstream Vera Sans', 'Computer Modern Sans Serif', 'Lucida Grande', 'Verdana', 'Geneva', 'Lucid', 'Arial', 'Helvetica', 'Avant Garde', sans-serif; text-anchor: middle" x="181.275577" y="329.842187" transform="rotate(-0 181.275577 329.842187)">75</text>
     </g>
    </g>
    <g id="xtick_11">
     <g id="line2d_19">
      <g>
       <use xlink:href="#m6e450ee3aa" x="216.645939" y="315.24375" style="stroke: #000000; stroke-width: 0.8"/>
      </g>
     </g>
     <g id="text_20">
      <text style="font: 10px 'DejaVu Sans', 'Bitstream Vera Sans', 'Computer Modern Sans Serif', 'Lucida Grande', 'Verdana', 'Geneva', 'Lucid', 'Arial', 'Helvetica', 'Avant Garde', sans-serif; text-anchor: middle" x="216.645939" y="329.842187" transform="rotate(-0 216.645939 329.842187)">100</text>
     </g>
    </g>
    <g id="xtick_12">
     <g id="line2d_20">
      <g>
       <use xlink:href="#m6e450ee3aa" x="252.016302" y="315.24375" style="stroke: #000000; stroke-width: 0.8"/>
      </g>
     </g>
     <g id="text_21">
      <text style="font: 10px 'DejaVu Sans', 'Bitstream Vera Sans', 'Computer Modern Sans Serif', 'Lucida Grande', 'Verdana', 'Geneva', 'Lucid', 'Arial', 'Helvetica', 'Avant Garde', sans-serif; text-anchor: middle" x="252.016302" y="329.842187" transform="rotate(-0 252.016302 329.842187)">125</text>
     </g>
    </g>
    <g id="text_22">
     <text style="font: 10px 'DejaVu Sans', 'Bitstream Vera Sans', 'Computer Modern Sans Serif', 'Lucida Grande', 'Verdana', 'Geneva', 'Lucid', 'Arial', 'Helvetica', 'Avant Garde', sans-serif; text-anchor: middle" x="171.371875" y="343.520312" transform="rotate(-0 171.371875 343.520312)">trial</text>
    </g>
   </g>
   <g id="matplotlib.axis_4">
    <g id="ytick_5">
     <g id="line2d_21">
      <g>
       <use xlink:href="#mdeb59614db" x="65.54375" y="309.865312" style="stroke: #000000; stroke-width: 0.8"/>
      </g>
     </g>
     <g id="text_23">
      <text style="font: 10px 'DejaVu Sans', 'Bitstream Vera Sans', 'Computer Modern Sans Serif', 'Lucida Grande', 'Verdana', 'Geneva', 'Lucid', 'Arial', 'Helvetica', 'Avant Garde', sans-serif; text-anchor: end" x="58.54375" y="313.664531" transform="rotate(-0 58.54375 313.664531)">banked</text>
     </g>
    </g>
    <g id="ytick_6">
     <g id="line2d_22">
      <g>
       <use xlink:href="#mdeb59614db" x="65.54375" y="202.296562" style="stroke: #000000; stroke-width: 0.8"/>
      </g>
     </g>
     <g id="text_24">
      <text style="font: 10px 'DejaVu Sans', 'Bitstream Vera Sans', 'Computer Modern Sans Serif', 'Lucida Grande', 'Verdana', 'Geneva', 'Lucid', 'Arial', 'Helvetica', 'Avant Garde', sans-serif; text-anchor: end" x="58.54375" y="206.095781" transform="rotate(-0 58.54375 206.095781)">popped</text>
     </g>
    </g>
    <g id="text_25">
     <text style="font: 10px 'DejaVu Sans', 'Bitstream Vera Sans', 'Computer Modern Sans Serif', 'Lucida Grande', 'Verdana', 'Geneva', 'Lucid', 'Arial', 'Helvetica', 'Avant Garde', sans-serif; text-anchor: middle" x="14.798438" y="256.080937" transform="rotate(-90 14.798438 256.080937)">result</text>
    </g>
   </g>
   <g id="line2d_23">
    <path d="M 75.164489 202.296562 
L 76.579303 309.865312 
L 79.408932 309.865312 
L 80.823747 202.296562 
L 82.238561 309.865312 
L 85.06819 309.865312 
L 86.483005 202.296562 
L 87.897819 309.865312 
L 89.312634 309.865312 
L 90.727448 202.296562 
L 92.142263 202.296562 
L 93.557077 309.865312 
L 94.971892 202.296562 
L 96.386706 202.296562 
L 97.801521 309.865312 
L 106.290408 309.865312 
L 107.705222 202.296562 
L 110.534851 202.296562 
L 111.949666 309.865312 
L 113.36448 309.865312 
L 114.779295 202.296562 
L 116.194109 309.865312 
L 119.023738 309.865312 
L 120.438553 202.296562 
L 121.853367 202.296562 
L 123.268182 309.865312 
L 133.171883 309.865312 
L 134.586698 202.296562 
L 136.001512 309.865312 
L 138.831141 309.865312 
L 140.245956 202.296562 
L 141.66077 309.865312 
L 145.905214 309.865312 
L 147.320028 202.296562 
L 148.734843 202.296562 
L 150.149657 309.865312 
L 154.394101 309.865312 
L 155.808915 202.296562 
L 157.22373 309.865312 
L 160.053359 309.865312 
L 161.468173 202.296562 
L 162.882988 309.865312 
L 167.127431 309.865312 
L 168.542246 202.296562 
L 169.95706 309.865312 
L 172.78669 309.865312 
L 174.201504 202.296562 
L 175.616319 309.865312 
L 177.031133 309.865312 
L 178.445948 202.296562 
L 179.860762 202.296562 
L 181.275577 309.865312 
L 184.105206 309.865312 
L 185.52002 202.296562 
L 186.934835 202.296562 
L 188.349649 309.865312 
L 189.764464 202.296562 
L 191.179278 309.865312 
L 192.594093 309.865312 
L 194.008907 202.296562 
L 195.423722 309.865312 
L 202.497794 309.865312 
L 203.912609 202.296562 
L 205.327423 309.865312 
L 212.401496 309.865312 
L 213.81631 202.296562 
L 215.231125 309.865312 
L 220.890383 309.865312 
L 222.305197 202.296562 
L 223.720012 309.865312 
L 242.1126 309.865312 
L 243.527415 202.296562 
L 244.942229 309.865312 
L 246.357044 309.865312 
L 247.771858 202.296562 
L 249.186673 309.865312 
L 256.260745 309.865312 
L 257.67556 202.296562 
L 259.090374 309.865312 
L 260.505189 309.865312 
L 261.920003 202.296562 
L 263.334818 202.296562 
L 264.749632 309.865312 
L 266.164447 202.296562 
L 267.579261 309.865312 
L 267.579261 309.865312 
" clip-path="url(#p8df02cc070)" style="fill: none; stroke: #1f77b4; stroke-linecap: square"/>
   </g>
   <g id="line2d_24">
    <path d="M 75.164489 202.296562 
L 76.579303 309.865312 
L 79.408932 309.865312 
L 80.823747 202.296562 
L 82.238561 309.865312 
L 85.06819 309.865312 
L 86.483005 202.296562 
L 87.897819 309.865312 
L 89.312634 309.865312 
L 90.727448 202.296562 
L 92.142263 202.296562 
L 93.557077 309.865312 
L 94.971892 202.296562 
L 96.386706 202.296562 
L 97.801521 309.865312 
L 106.290408 309.865312 
L 107.705222 202.296562 
L 110.534851 202.296562 
L 111.949666 309.865312 
L 113.36448 309.865312 
L 114.779295 202.296562 
L 116.194109 309.865312 
L 119.023738 309.865312 
L 120.438553 202.296562 
L 121.853367 202.296562 
L 123.268182 309.865312 
L 133.171883 309.865312 
L 134.586698 202.296562 
L 136.001512 309.865312 
L 138.831141 309.865312 
L 140.245956 202.296562 
L 141.66077 309.865312 
L 145.905214 309.865312 
L 147.320028 202.296562 
L 148.734843 202.296562 
L 150.149657 309.865312 
L 154.394101 309.865312 
L 155.808915 202.296562 
L 157.22373 309.865312 
L 160.053359 309.865312 
L 161.468173 202.296562 
L 162.882988 309.865312 
L 165.712617 309.865312 
L 167.127431 202.296562 
L 168.542246 202.296562 
L 169.95706 309.865312 
L 172.78669 309.865312 
L 174.201504 202.296562 
L 175.616319 309.865312 
L 177.031133 309.865312 
L 178.445948 202.296562 
L 179.860762 202.296562 
L 181.275577 309.865312 
L 184.105206 309.865312 
L 185.52002 202.296562 
L 186.934835 202.296562 
L 188.349649 309.865312 
L 189.764464 202.296562 
L 191.179278 309.865312 
L 192.594093 309.865312 
L 194.008907 202.296562 
L 195.423722 309.865312 
L 202.497794 309.865312 
L 203.912609 202.296562 
L 205.327423 309.865312 
L 209.571867 309.865312 
L 210.986681 202.296562 
L 212.401496 309.865312 
L 213.81631 202.296562 
L 215.231125 309.865312 
L 220.890383 309.865312 
L 222.305197 202.296562 
L 223.720012 309.865312 
L 225.134826 202.296562 
L 226.549641 309.865312 
L 242.1126 309.865312 
L 243.527415 202.296562 
L 244.942229 309.865312 
L 246.357044 309.865312 
L 247.771858 202.296562 
L 249.186673 309.865312 
L 256.260745 309.865312 
L 257.67556 202.296562 
L 259.090374 309.865312 
L 260.505189 309.865312 
L 261.920003 202.296562 
L 263.334818 202.296562 
L 264.749632 309.865312 
L 266.164447 202.296562 
L 267.579261 309.865312 
L 267.579261 309.865312 
" clip-path="url(#p8df02cc070)" style="fill: none; stroke: #ff7f0e; stroke-opacity: 0.5; stroke-linecap: square"/>
   </g>
   <g id="patch_6">
    <path d="M 65.54375 315.24375 
L 65.54375 196.918125 
" style="fill: none; stroke: #000000; stroke-width: 0.8; stroke-linejoin: miter; stroke-linecap: square"/>
   </g>
   <g id="patch_7">
    <path d="M 65.54375 315.24375 
L 277.2 315.24375 
" style="fill: none; stroke: #000000; stroke-width: 0.8; stroke-linejoin: miter; stroke-linecap: square"/>
   </g>
   <g id="text_26">
    <text style="font: 12px 'DejaVu Sans', 'Bitstream Vera Sans', 'Computer Modern Sans Serif', 'Lucida Grande', 'Verdana', 'Geneva', 'Lucid', 'Arial', 'Helvetica', 'Avant Garde', sans-serif; text-anchor: middle" x="171.371875" y="190.918125" transform="rotate(-0 171.371875 190.918125)">201810 - result</text>
   </g>
   <g id="legend_2">
    <g id="line2d_25">
     <path d="M 285.433125 205.016562 
L 285.433125 205.016562 
L 285.433125 205.016562 
" style="fill: none; stroke: #1f77b4; stroke-linecap: square"/>
    </g>
    <g id="text_27">
     <text style="fill: #1f77b4; font: 10px 'DejaVu Sans', 'Bitstream Vera Sans', 'Computer Modern Sans Serif', 'Lucida Grande', 'Verdana', 'Geneva', 'Lucid', 'Arial', 'Helvetica', 'Avant Garde', sans-serif; text-anchor: start" x="288.433125" y="208.516562" transform="rotate(-0 288.433125 208.516562)">real</text>
    </g>
    <g id="line2d_26">
     <path d="M 285.433125 219.694687 
L 285.433125 219.694687 
L 285.433125 219.694687 
" style="fill: none; stroke: #ff7f0e; stroke-opacity: 0.5; stroke-linecap: square"/>
    </g>
    <g id="text_28">
     <text style="fill: #ff7f0e; font: 10px 'DejaVu Sans', 'Bitstream Vera Sans', 'Computer Modern Sans Serif', 'Lucida Grande', 'Verdana', 'Geneva', 'Lucid', 'Arial', 'Helvetica', 'Avant Garde', sans-serif; text-anchor: start" x="288.433125" y="223.194687" transform="rotate(-0 288.433125 223.194687)">simulated</text>
    </g>
   </g>
  </g>
 </g>
 <defs>
  <clipPath id="p4dde107cb2">
   <rect x="65.54375" y="22.318125" width="211.65625" height="118.325625"/>
  </clipPath>
  <clipPath id="p8df02cc070">
   <rect x="65.54375" y="196.918125" width="211.65625" height="118.325625"/>
  </clipPath>
 </defs>
</svg>
