<?xml version="1.0" encoding="utf-8" standalone="no"?>
<!DOCTYPE svg PUBLIC "-//W3C//DTD SVG 1.1//EN"
  "http://www.w3.org/Graphics/SVG/1.1/DTD/svg11.dtd">
<svg xmlns:xlink="http://www.w3.org/1999/xlink" width="349.026875pt" height="352.8pt" viewBox="0 0 349.026875 352.8" xmlns="http://www.w3.org/2000/svg" version="1.1">
 <metadata>
  <rdf:RDF xmlns:dc="http://purl.org/dc/elements/1.1/" xmlns:cc="http://creativecommons.org/ns#" xmlns:rdf="http://www.w3.org/1999/02/22-rdf-syntax-ns#">
   <cc:Work>
    <dc:type rdf:resource="http://purl.org/dc/dcmitype/StillImage"/>
    <dc:date>2026-04-14T15:37:29.043336</dc:date>
    <dc:format>image/svg+xml</dc:format>
    <dc:creator>
     <cc:Agent>
      <dc:title>Matplotlib v3.9.2, https://matplotlib.org/</dc:title>
     </cc:Agent>
    </dc:creator>
   </cc:Work>
  </rdf:RDF>
 </metadata>
 <defs>
  <style type="text/css">*{stroke-linejoin: round; stroke-linecap: butt}</style>
 </defs>
 <g id="figure_1">
  <g id="patch_1">
   <path d="M 0 352.8 
L 349.026875 352.8 
L 349.026875 0 
L 0 0 
z
" style="fill: #ffffff"/>
  </g>
  <g id="axes_1">
   <g id="patch_2">
    <path d="M 65.54375 140.64375 
L 277.2 140.64375 
L 277.2 22.318125 
L 65.54375 22.318125 
z
" style="fill: #ffffff"/>
   </g>
   <g id="matplotlib.axis_1">
    <g id="xtick_1">
     <g id="line2d_1">
      <defs>
       <path id="mdadf147488" d="M 0 0 
L 0 3.5 
" style="stroke: #000000; stroke-width: 0.8"/>
      </defs>
      <g>
       <use xlink:href="#mdadf147488" x="75.164489" y="140.64375" style="stroke: #000000; stroke-width: 0.8"/>
      </g>
     </g>
     <g id="text_1">
      <text style="font: 10px 'DejaVu Sans', 'Bitstream Vera Sans', 'Computer Modern Sans Serif', 'Lucida Grande', 'Verdana', 'Geneva', 'Lucid', 'Arial', 'Helvetica', 'Avant Garde', sans-serif; text-anchor: middle" x="75.164489" y="155.242188" transform="rotate(-0 75.164489 155.242188)">0</text>
     </g>
    </g>
    <g id="xtick_2">
     <g id="line2d_2">
      <g>
       <use xlink:href="#mdadf147488" x="108.339449" y="140.64375" style="stroke: #000000; stroke-width: 0.8"/>
      </g>
     </g>
     <g id="text_2">
      <text style="font: 10px 'DejaVu Sans', 'Bitstream Vera Sans', 'Computer Modern Sans Serif', 'Lucida Grande', 'Verdana', 'Geneva', 'Lucid', 'Arial', 'Helvetica', 'Avant Garde', sans-serif; text-anchor: middle" x="108.339449" y="155.242188" transform="rotate(-0 108.339449 155.242188)">25</text>
     </g>
    </g>
    <g id="xtick_3">
     <g id="line2d_3">
      <g>
       <use xlink:href="#mdadf147488" x="141.51441" y="140.64375" style="stroke: #000000; stroke-width: 0.8"/>
      </g>
     </g>
     <g id="text_3">
      <text style="font: 10px 'DejaVu Sans', 'Bitstream Vera Sans', 'Computer Modern Sans Serif', 'Lucida Grande', 'Verdana', 'Geneva', 'Lucid', 'Arial', 'Helvetica', 'Avant Garde', sans-serif; text-anchor: middle" x="141.51441" y="155.242188" transform="rotate(-0 141.51441 155.242188)">50</text>
     </g>
    </g>
    <g id="xtick_4">
     <g id="line2d_4">
      <g>
       <use xlink:href="#mdadf147488" x="174.689371" y="140.64375" style="stroke: #000000; stroke-width: 0.8"/>
      </g>
     </g>
     <g id="text_4">
      <text style="font: 10px 'DejaVu Sans', 'Bitstream Vera Sans', 'Computer Modern Sans Serif', 'Lucida Grande', 'Verdana', 'Geneva', 'Lucid', 'Arial', 'Helvetica', 'Avant Garde', sans-serif; text-anchor: middle" x="174.689371" y="155.242188" transform="rotate(-0 174.689371 155.242188)">75</text>
     </g>
    </g>
    <g id="xtick_5">
     <g id="line2d_5">
      <g>
       <use xlink:href="#mdadf147488" x="207.864332" y="140.64375" style="stroke: #000000; stroke-width: 0.8"/>
      </g>
     </g>
     <g id="text_5">
      <text style="font: 10px 'DejaVu Sans', 'Bitstream Vera Sans', 'Computer Modern Sans Serif', 'Lucida Grande', 'Verdana', 'Geneva', 'Lucid', 'Arial', 'Helvetica', 'Avant Garde', sans-serif; text-anchor: middle" x="207.864332" y="155.242188" transform="rotate(-0 207.864332 155.242188)">100</text>
     </g>
    </g>
    <g id="xtick_6">
     <g id="line2d_6">
      <g>
       <use xlink:href="#mdadf147488" x="241.039293" y="140.64375" style="stroke: #000000; stroke-width: 0.8"/>
      </g>
     </g>
     <g id="text_6">
      <text style="font: 10px 'DejaVu Sans', 'Bitstream Vera Sans', 'Computer Modern Sans Serif', 'Lucida Grande', 'Verdana', 'Geneva', 'Lucid', 'Arial', 'Helvetica', 'Avant Garde', sans-serif; text-anchor: middle" x="241.039293" y="155.242188" transform="rotate(-0 241.039293 155.242188)">125</text>
     </g>
    </g>
    <g id="xtick_7">
     <g id="line2d_7">
      <g>
       <use xlink:href="#mdadf147488" x="274.214254" y="140.64375" style="stroke: #000000; stroke-width: 0.8"/>
      </g>
     </g>
     <g id="text_7">
      <text style="font: 10px 'DejaVu Sans', 'Bitstream Vera Sans', 'Computer Modern Sans Serif', 'Lucida Grande', 'Verdana', 'Geneva', 'Lucid', 'Arial', 'Helvetica', 'Avant Garde', sans-serif; text-anchor: middle" x="274.214254" y="155.242188" transform="rotate(-0 274.214254 155.242188)">150</text>
     </g>
    </g>
    <g id="text_8">
     <text style="font: 10px 'DejaVu Sans', 'Bitstream Vera Sans', 'Computer Modern Sans Serif', 'Lucida Grande', 'Verdana', 'Geneva', 'Lucid', 'Arial', 'Helvetica', 'Avant Garde', sans-serif; text-anchor: middle" x="171.371875" y="168.920312" transform="rotate(-0 171.371875 168.920312)">trial</text>
    </g>
   </g>
   <g id="matplotlib.axis_2">
    <g id="ytick_1">
     <g id="line2d_8">
      <defs>
       <path id="m691ac919fb" d="M 0 0 
L -3.5 0 
" style="stroke: #000000; stroke-width: 0.8"/>
      </defs>
      <g>
       <use xlink:href="#m691ac919fb" x="65.54375" y="135.265313" style="stroke: #000000; stroke-width: 0.8"/>
      </g>
     </g>
     <g id="text_9">
      <text style="font: 10px 'DejaVu Sans', 'Bitstream Vera Sans', 'Computer Modern Sans Serif', 'Lucida Grande', 'Verdana', 'Geneva', 'Lucid', 'Arial', 'Helvetica', 'Avant Garde', sans-serif; text-anchor: end" x="58.54375" y="139.064531" transform="rotate(-0 58.54375 139.064531)">0</text>
     </g>
    </g>
    <g id="ytick_2">
     <g id="line2d_9">
      <g>
       <use xlink:href="#m691ac919fb" x="65.54375" y="101.007749" style="stroke: #000000; stroke-width: 0.8"/>
      </g>
     </g>
     <g id="text_10">
      <text style="font: 10px 'DejaVu Sans', 'Bitstream Vera Sans', 'Computer Modern Sans Serif', 'Lucida Grande', 'Verdana', 'Geneva', 'Lucid', 'Arial', 'Helvetica', 'Avant Garde', sans-serif; text-anchor: end" x="58.54375" y="104.806968" transform="rotate(-0 58.54375 104.806968)">100</text>
     </g>
    </g>
    <g id="ytick_3">
     <g id="line2d_10">
      <g>
       <use xlink:href="#m691ac919fb" x="65.54375" y="66.750185" style="stroke: #000000; stroke-width: 0.8"/>
      </g>
     </g>
     <g id="text_11">
      <text style="font: 10px 'DejaVu Sans', 'Bitstream Vera Sans', 'Computer Modern Sans Serif', 'Lucida Grande', 'Verdana', 'Geneva', 'Lucid', 'Arial', 'Helvetica', 'Avant Garde', sans-serif; text-anchor: end" x="58.54375" y="70.549404" transform="rotate(-0 58.54375 70.549404)">200</text>
     </g>
    </g>
    <g id="ytick_4">
     <g id="line2d_11">
      <g>
       <use xlink:href="#m691ac919fb" x="65.54375" y="32.492621" style="stroke: #000000; stroke-width: 0.8"/>
      </g>
     </g>
     <g id="text_12">
      <text style="font: 10px 'DejaVu Sans', 'Bitstream Vera Sans', 'Computer Modern Sans Serif', 'Lucida Grande', 'Verdana', 'Geneva', 'Lucid', 'Arial', 'Helvetica', 'Avant Garde', sans-serif; text-anchor: end" x="58.54375" y="36.29184" transform="rotate(-0 58.54375 36.29184)">300</text>
     </g>
    </g>
    <g id="text_13">
     <text style="font: 10px 'DejaVu Sans', 'Bitstream Vera Sans', 'Computer Modern Sans Serif', 'Lucida Grande', 'Verdana', 'Geneva', 'Lucid', 'Arial', 'Helvetica', 'Avant Garde', sans-serif; text-anchor: middle" x="33.376562" y="81.480937" transform="rotate(-90 33.376562 81.480937)">reward</text>
    </g>
   </g>
   <g id="line2d_12">
    <path d="M 75.164489 111.627594 
L 76.491487 101.007749 
L 77.818486 135.265313 
L 79.145484 101.007749 
L 80.472482 135.265313 
L 81.799481 101.350324 
L 83.126479 100.665173 
L 84.453478 135.265313 
L 85.780476 107.516686 
L 87.107475 101.350324 
L 88.434473 101.007749 
L 89.761471 103.405778 
L 91.08847 101.350324 
L 92.415468 101.007749 
L 93.742467 135.265313 
L 95.069465 105.461232 
L 96.396464 135.265313 
L 97.723462 110.599867 
L 99.05046 99.980022 
L 100.377459 100.322598 
L 101.704457 100.322598 
L 103.031456 99.980022 
L 104.358454 94.156236 
L 105.685453 99.637446 
L 107.012451 99.980022 
L 108.339449 135.265313 
L 109.666448 97.924568 
L 110.993446 101.007749 
L 112.320445 97.239417 
L 113.647443 135.265313 
L 114.974442 93.471085 
L 116.30144 135.265313 
L 118.955437 135.265313 
L 120.282435 99.980022 
L 121.609434 135.265313 
L 122.936432 105.803808 
L 124.263431 109.914715 
L 125.590429 98.952295 
L 126.917428 97.239417 
L 128.244426 116.766228 
L 129.571424 110.257291 
L 130.898423 107.17411 
L 132.225421 98.267144 
L 133.55242 92.100782 
L 134.879418 104.433505 
L 136.206417 96.554266 
L 137.533415 83.536391 
L 138.860413 95.869114 
L 140.187412 79.768059 
L 141.51441 135.265313 
L 142.841409 135.265313 
L 144.168407 110.942442 
L 145.495406 93.128509 
L 146.822404 94.156236 
L 148.149402 80.110635 
L 149.476401 63.324429 
L 150.803399 118.479106 
L 152.130398 120.191984 
L 153.457396 107.516686 
L 154.784395 100.322598 
L 156.111393 107.516686 
L 157.438391 102.378051 
L 158.76539 107.516686 
L 160.092388 98.952295 
L 161.419387 135.265313 
L 162.746385 125.330619 
L 164.073384 83.193816 
L 165.400382 81.480938 
L 166.72738 78.740332 
L 168.054379 135.265313 
L 169.381377 88.675026 
L 170.708376 112.997896 
L 172.035374 98.609719 
L 173.362373 135.265313 
L 174.689371 108.886988 
L 176.01637 107.859262 
L 177.343368 97.581992 
L 178.670366 135.265313 
L 179.997365 112.65532 
L 181.324363 100.322598 
L 182.651362 120.53456 
L 183.97836 99.637446 
L 185.305359 111.627594 
L 186.632357 110.599867 
L 187.959355 96.554266 
L 189.286354 99.637446 
L 190.613352 110.942442 
L 191.940351 99.294871 
L 193.267349 78.740332 
L 194.594348 112.997896 
L 195.921346 101.350324 
L 197.248344 117.451379 
L 198.575343 135.265313 
L 199.902341 110.942442 
L 201.22934 109.57214 
L 202.556338 97.924568 
L 203.883337 135.265313 
L 205.210335 118.821682 
L 206.537333 91.073055 
L 207.864332 135.265313 
L 209.19133 91.758207 
L 210.518329 98.267144 
L 211.845327 109.57214 
L 213.172326 108.544413 
L 214.499324 102.035476 
L 215.826322 62.981853 
L 217.153321 100.665173 
L 218.480319 57.843219 
L 219.807318 57.500643 
L 221.134316 38.316407 
L 222.461315 44.482769 
L 223.788313 102.720627 
L 225.115312 98.609719 
L 226.44231 28.381714 
L 227.769308 105.118656 
L 229.096307 135.265313 
L 231.750304 135.265313 
L 233.077302 106.831535 
L 234.404301 135.265313 
L 235.731299 108.886988 
L 237.058297 103.405778 
L 238.385296 111.627594 
L 239.712294 100.322598 
L 241.039293 29.409441 
L 242.366291 98.267144 
L 243.69329 135.265313 
L 245.020288 27.696562 
L 246.347286 115.05335 
L 247.674285 75.314576 
L 249.001283 135.265313 
L 250.328282 135.265313 
L 251.65528 108.886988 
L 252.982279 63.667004 
L 254.309277 103.405778 
L 255.636275 117.108804 
L 256.963274 115.05335 
L 258.290272 62.981853 
L 259.617271 93.471085 
L 260.944269 66.407609 
L 262.271268 65.379883 
L 263.598266 103.748354 
L 264.925264 59.898672 
L 266.252263 59.898672 
L 267.579261 135.265313 
L 267.579261 135.265313 
" clip-path="url(#p422ca82438)" style="fill: none; stroke: #1f77b4; stroke-linecap: square"/>
   </g>
   <g id="line2d_13">
    <path d="M 75.164489 83.337406 
L 76.491487 113.729264 
L 77.818486 135.265313 
L 79.145484 107.688411 
L 80.472482 135.265313 
L 81.799481 116.210871 
L 83.126479 121.130989 
L 84.453478 135.265313 
L 85.780476 131.993469 
L 87.107475 134.29674 
L 88.434473 122.319247 
L 89.761471 131.452587 
L 91.08847 127.283134 
L 92.415468 118.751471 
L 93.742467 135.265313 
L 95.069465 106.131509 
L 96.396464 135.265313 
L 97.723462 125.066836 
L 99.05046 107.787558 
L 100.377459 114.280553 
L 101.704457 122.057514 
L 103.031456 114.403849 
L 104.358454 100.725142 
L 105.685453 109.357987 
L 107.012451 125.352772 
L 108.339449 135.265313 
L 109.666448 105.788985 
L 110.993446 129.224381 
L 112.320445 103.670462 
L 113.647443 135.265313 
L 114.974442 111.018345 
L 116.30144 135.265313 
L 118.955437 135.265313 
L 120.282435 118.162842 
L 121.609434 135.265313 
L 122.936432 117.401952 
L 124.263431 135.265313 
L 125.590429 107.567954 
L 126.917428 123.082329 
L 128.244426 135.265313 
L 129.571424 113.931703 
L 130.898423 120.64216 
L 132.225421 104.776997 
L 133.55242 108.036997 
L 134.879418 62.122036 
L 136.206417 104.839587 
L 137.533415 110.367788 
L 138.860413 69.710299 
L 140.187412 94.451477 
L 141.51441 135.265313 
L 142.841409 135.265313 
L 144.168407 117.016553 
L 145.495406 100.436715 
L 146.822404 124.55073 
L 148.149402 106.736092 
L 149.476401 106.117478 
L 150.803399 124.66788 
L 152.130398 130.350175 
L 153.457396 135.265313 
L 154.784395 117.306032 
L 156.111393 115.182156 
L 157.438391 135.265313 
L 158.76539 135.265313 
L 160.092388 128.172752 
L 161.419387 135.265313 
L 162.746385 135.265313 
L 164.073384 114.904701 
L 165.400382 121.152326 
L 166.72738 81.602077 
L 168.054379 135.265313 
L 169.381377 90.4216 
L 170.708376 135.265313 
L 172.035374 109.286501 
L 173.362373 135.265313 
L 176.01637 135.265313 
L 177.343368 107.641734 
L 178.670366 135.265313 
L 179.997365 118.970552 
L 181.324363 121.586064 
L 182.651362 123.851104 
L 183.97836 98.578046 
L 185.305359 135.265313 
L 186.632357 50.783767 
L 187.959355 119.053308 
L 189.286354 113.527558 
L 190.613352 87.323234 
L 191.940351 108.475634 
L 193.267349 98.975405 
L 194.594348 122.878418 
L 195.921346 130.238283 
L 197.248344 131.469602 
L 198.575343 135.265313 
L 199.902341 90.318036 
L 201.22934 126.197027 
L 202.556338 116.887588 
L 203.883337 135.265313 
L 205.210335 133.984838 
L 206.537333 103.994543 
L 207.864332 135.265313 
L 209.19133 104.099274 
L 210.518329 98.730672 
L 211.845327 72.789293 
L 213.172326 122.004708 
L 214.499324 103.590631 
L 215.826322 114.744912 
L 217.153321 102.899084 
L 218.480319 79.385629 
L 219.807318 80.896454 
L 221.134316 44.463574 
L 222.461315 71.225984 
L 223.788313 115.538247 
L 225.115312 114.401904 
L 227.769308 61.416396 
L 229.096307 135.265313 
L 231.750304 135.265313 
L 233.077302 128.740929 
L 234.404301 135.265313 
L 235.731299 111.458079 
L 237.058297 108.694846 
L 238.385296 112.156966 
L 239.712294 126.544624 
L 241.039293 63.594404 
L 242.366291 112.681481 
L 243.69329 135.265313 
L 245.020288 71.515598 
L 246.347286 92.769202 
L 247.674285 90.298526 
L 249.001283 135.265313 
L 250.328282 135.265313 
L 251.65528 121.004985 
L 252.982279 135.265313 
L 254.309277 113.852075 
L 255.636275 94.679172 
L 256.963274 123.23049 
L 258.290272 62.345125 
L 259.617271 113.579983 
L 260.944269 135.265313 
L 262.271268 50.320592 
L 263.598266 112.203313 
L 264.925264 60.123746 
L 266.252263 64.472506 
L 267.579261 135.265313 
L 267.579261 135.265313 
" clip-path="url(#p422ca82438)" style="fill: none; stroke: #ff7f0e; stroke-opacity: 0.5; stroke-linecap: square"/>
   </g>
   <g id="patch_3">
    <path d="M 65.54375 140.64375 
L 65.54375 22.318125 
" style="fill: none; stroke: #000000; stroke-width: 0.8; stroke-linejoin: miter; stroke-linecap: square"/>
   </g>
   <g id="patch_4">
    <path d="M 65.54375 140.64375 
L 277.2 140.64375 
" style="fill: none; stroke: #000000; stroke-width: 0.8; stroke-linejoin: miter; stroke-linecap: square"/>
   </g>
   <g id="text_14">
    <text style="font: 12px 'DejaVu Sans', 'Bitstream Vera Sans', 'Computer Modern Sans Serif', 'Lucida Grande', 'Verdana', 'Geneva', 'Lucid', 'Arial', 'Helvetica', 'Avant Garde', sans-serif; text-anchor: middle" x="171.371875" y="16.318125" transform="rotate(-0 171.371875 16.318125)">201903 - reward</text>
   </g>
   <g id="legend_1">
    <g id="line2d_14">
     <path d="M 285.433125 30.416562 
L 285.433125 30.416562 
L 285.433125 30.416562 
" style="fill: none; stroke: #1f77b4; stroke-linecap: square"/>
    </g>
    <g id="text_15">
     <text style="fill: #1f77b4; font: 10px 'DejaVu Sans', 'Bitstream Vera Sans', 'Computer Modern Sans Serif', 'Lucida Grande', 'Verdana', 'Geneva', 'Lucid', 'Arial', 'Helvetica', 'Avant Garde', sans-serif; text-anchor: start" x="288.433125" y="33.916562" transform="rotate(-0 288.433125 33.916562)">real</text>
    </g>
    <g id="line2d_15">
     <path d="M 285.433125 45.094688 
L 285.433125 45.094688 
L 285.433125 45.094688 
" style="fill: none; stroke: #ff7f0e; stroke-opacity: 0.5; stroke-linecap: square"/>
    </g>
    <g id="text_16">
     <text style="fill: #ff7f0e; font: 10px 'DejaVu Sans', 'Bitstream Vera Sans', 'Computer Modern Sans Serif', 'Lucida Grande', 'Verdana', 'Geneva', 'Lucid', 'Arial', 'Helvetica', 'Avant Garde', sans-serif; text-anchor: start" x="288.433125" y="48.594688" transform="rotate(-0 288.433125 48.594688)">simulated</text>
    </g>
   </g>
  </g>
  <g id="axes_2">
   <g id="patch_5">
    <path d="M 65.54375 315.24375 
L 277.2 315.24375 
L 277.2 196.918125 
L 65.54375 196.918125 
z
" style="fill: #ffffff"/>
   </g>
   <g id="matplotlib.axis_3">
    <g id="xtick_8">
     <g id="line2d_16">
      <g>
       <use xlink:href="#mdadf147488" x="75.164489" y="315.24375" style="stroke: #000000; stroke-width: 0.8"/>
      </g>
     </g>
     <g id="text_17">
      <text style="font: 10px 'DejaVu Sans', 'Bitstream Vera Sans', 'Computer Modern Sans Serif', 'Lucida Grande', 'Verdana', 'Geneva', 'Lucid', 'Arial', 'Helvetica', 'Avant Garde', sans-serif; text-anchor: middle" x="75.164489" y="329.842187" transform="rotate(-0 75.164489 329.842187)">0</text>
     </g>
    </g>
    <g id="xtick_9">
     <g id="line2d_17">
      <g>
       <use xlink:href="#mdadf147488" x="108.339449" y="315.24375" style="stroke: #000000; stroke-width: 0.8"/>
      </g>
     </g>
     <g id="text_18">
      <text style="font: 10px 'DejaVu Sans', 'Bitstream Vera Sans', 'Computer Modern Sans Serif', 'Lucida Grande', 'Verdana', 'Geneva', 'Lucid', 'Arial', 'Helvetica', 'Avant Garde', sans-serif; text-anchor: middle" x="108.339449" y="329.842187" transform="rotate(-0 108.339449 329.842187)">25</text>
     </g>
    </g>
    <g id="xtick_10">
     <g id="line2d_18">
      <g>
       <use xlink:href="#mdadf147488" x="141.51441" y="315.24375" style="stroke: #000000; stroke-width: 0.8"/>
      </g>
     </g>
     <g id="text_19">
      <text style="font: 10px 'DejaVu Sans', 'Bitstream Vera Sans', 'Computer Modern Sans Serif', 'Lucida Grande', 'Verdana', 'Geneva', 'Lucid', 'Arial', 'Helvetica', 'Avant Garde', sans-serif; text-anchor: middle" x="141.51441" y="329.842187" transform="rotate(-0 141.51441 329.842187)">50</text>
     </g>
    </g>
    <g id="xtick_11">
     <g id="line2d_19">
      <g>
       <use xlink:href="#mdadf147488" x="174.689371" y="315.24375" style="stroke: #000000; stroke-width: 0.8"/>
      </g>
     </g>
     <g id="text_20">
      <text style="font: 10px 'DejaVu Sans', 'Bitstream Vera Sans', 'Computer Modern Sans Serif', 'Lucida Grande', 'Verdana', 'Geneva', 'Lucid', 'Arial', 'Helvetica', 'Avant Garde', sans-serif; text-anchor: middle" x="174.689371" y="329.842187" transform="rotate(-0 174.689371 329.842187)">75</text>
     </g>
    </g>
    <g id="xtick_12">
     <g id="line2d_20">
      <g>
       <use xlink:href="#mdadf147488" x="207.864332" y="315.24375" style="stroke: #000000; stroke-width: 0.8"/>
      </g>
     </g>
     <g id="text_21">
      <text style="font: 10px 'DejaVu Sans', 'Bitstream Vera Sans', 'Computer Modern Sans Serif', 'Lucida Grande', 'Verdana', 'Geneva', 'Lucid', 'Arial', 'Helvetica', 'Avant Garde', sans-serif; text-anchor: middle" x="207.864332" y="329.842187" transform="rotate(-0 207.864332 329.842187)">100</text>
     </g>
    </g>
    <g id="xtick_13">
     <g id="line2d_21">
      <g>
       <use xlink:href="#mdadf147488" x="241.039293" y="315.24375" style="stroke: #000000; stroke-width: 0.8"/>
      </g>
     </g>
     <g id="text_22">
      <text style="font: 10px 'DejaVu Sans', 'Bitstream Vera Sans', 'Computer Modern Sans Serif', 'Lucida Grande', 'Verdana', 'Geneva', 'Lucid', 'Arial', 'Helvetica', 'Avant Garde', sans-serif; text-anchor: middle" x="241.039293" y="329.842187" transform="rotate(-0 241.039293 329.842187)">125</text>
     </g>
    </g>
    <g id="xtick_14">
     <g id="line2d_22">
      <g>
       <use xlink:href="#mdadf147488" x="274.214254" y="315.24375" style="stroke: #000000; stroke-width: 0.8"/>
      </g>
     </g>
     <g id="text_23">
      <text style="font: 10px 'DejaVu Sans', 'Bitstream Vera Sans', 'Computer Modern Sans Serif', 'Lucida Grande', 'Verdana', 'Geneva', 'Lucid', 'Arial', 'Helvetica', 'Avant Garde', sans-serif; text-anchor: middle" x="274.214254" y="329.842187" transform="rotate(-0 274.214254 329.842187)">150</text>
     </g>
    </g>
    <g id="text_24">
     <text style="font: 10px 'DejaVu Sans', 'Bitstream Vera Sans', 'Computer Modern Sans Serif', 'Lucida Grande', 'Verdana', 'Geneva', 'Lucid', 'Arial', 'Helvetica', 'Avant Garde', sans-serif; text-anchor: middle" x="171.371875" y="343.520312" transform="rotate(-0 171.371875 343.520312)">trial</text>
    </g>
   </g>
   <g id="matplotlib.axis_4">
    <g id="ytick_5">
     <g id="line2d_23">
      <g>
       <use xlink:href="#m691ac919fb" x="65.54375" y="309.865312" style="stroke: #000000; stroke-width: 0.8"/>
      </g>
     </g>
     <g id="text_25">
      <text style="font: 10px 'DejaVu Sans', 'Bitstream Vera Sans', 'Computer Modern Sans Serif', 'Lucida Grande', 'Verdana', 'Geneva', 'Lucid', 'Arial', 'Helvetica', 'Avant Garde', sans-serif; text-anchor: end" x="58.54375" y="313.664531" transform="rotate(-0 58.54375 313.664531)">banked</text>
     </g>
    </g>
    <g id="ytick_6">
     <g id="line2d_24">
      <g>
       <use xlink:href="#m691ac919fb" x="65.54375" y="202.296562" style="stroke: #000000; stroke-width: 0.8"/>
      </g>
     </g>
     <g id="text_26">
      <text style="font: 10px 'DejaVu Sans', 'Bitstream Vera Sans', 'Computer Modern Sans Serif', 'Lucida Grande', 'Verdana', 'Geneva', 'Lucid', 'Arial', 'Helvetica', 'Avant Garde', sans-serif; text-anchor: end" x="58.54375" y="206.095781" transform="rotate(-0 58.54375 206.095781)">popped</text>
     </g>
    </g>
    <g id="text_27">
     <text style="font: 10px 'DejaVu Sans', 'Bitstream Vera Sans', 'Computer Modern Sans Serif', 'Lucida Grande', 'Verdana', 'Geneva', 'Lucid', 'Arial', 'Helvetica', 'Avant Garde', sans-serif; text-anchor: middle" x="14.798438" y="256.080937" transform="rotate(-90 14.798438 256.080937)">result</text>
    </g>
   </g>
   <g id="line2d_25">
    <path d="M 75.164489 309.865312 
L 76.491487 309.865312 
L 77.818486 202.296562 
L 79.145484 309.865312 
L 80.472482 202.296562 
L 81.799481 309.865312 
L 83.126479 309.865312 
L 84.453478 202.296562 
L 85.780476 309.865312 
L 92.415468 309.865312 
L 93.742467 202.296562 
L 95.069465 309.865312 
L 96.396464 202.296562 
L 97.723462 309.865312 
L 107.012451 309.865312 
L 108.339449 202.296562 
L 109.666448 309.865312 
L 112.320445 309.865312 
L 113.647443 202.296562 
L 114.974442 309.865312 
L 116.30144 202.296562 
L 118.955437 202.296562 
L 120.282435 309.865312 
L 121.609434 202.296562 
L 122.936432 309.865312 
L 140.187412 309.865312 
L 141.51441 202.296562 
L 142.841409 202.296562 
L 144.168407 309.865312 
L 160.092388 309.865312 
L 161.419387 202.296562 
L 162.746385 309.865312 
L 166.72738 309.865312 
L 168.054379 202.296562 
L 169.381377 309.865312 
L 172.035374 309.865312 
L 173.362373 202.296562 
L 174.689371 309.865312 
L 177.343368 309.865312 
L 178.670366 202.296562 
L 179.997365 309.865312 
L 197.248344 309.865312 
L 198.575343 202.296562 
L 199.902341 309.865312 
L 202.556338 309.865312 
L 203.883337 202.296562 
L 205.210335 309.865312 
L 206.537333 309.865312 
L 207.864332 202.296562 
L 209.19133 309.865312 
L 227.769308 309.865312 
L 229.096307 202.296562 
L 231.750304 202.296562 
L 233.077302 309.865312 
L 234.404301 202.296562 
L 235.731299 309.865312 
L 242.366291 309.865312 
L 243.69329 202.296562 
L 245.020288 309.865312 
L 247.674285 309.865312 
L 249.001283 202.296562 
L 250.328282 202.296562 
L 251.65528 309.865312 
L 266.252263 309.865312 
L 267.579261 202.296562 
L 267.579261 202.296562 
" clip-path="url(#p883bd8e11a)" style="fill: none; stroke: #1f77b4; stroke-linecap: square"/>
   </g>
   <g id="line2d_26">
    <path d="M 75.164489 309.865312 
L 76.491487 309.865312 
L 77.818486 202.296562 
L 79.145484 309.865312 
L 80.472482 202.296562 
L 81.799481 309.865312 
L 83.126479 309.865312 
L 84.453478 202.296562 
L 85.780476 309.865312 
L 92.415468 309.865312 
L 93.742467 202.296562 
L 95.069465 309.865312 
L 96.396464 202.296562 
L 97.723462 309.865312 
L 107.012451 309.865312 
L 108.339449 202.296562 
L 109.666448 309.865312 
L 112.320445 309.865312 
L 113.647443 202.296562 
L 114.974442 309.865312 
L 116.30144 202.296562 
L 118.955437 202.296562 
L 120.282435 309.865312 
L 121.609434 202.296562 
L 122.936432 309.865312 
L 124.263431 202.296562 
L 125.590429 309.865312 
L 126.917428 309.865312 
L 128.244426 202.296562 
L 129.571424 309.865312 
L 140.187412 309.865312 
L 141.51441 202.296562 
L 142.841409 202.296562 
L 144.168407 309.865312 
L 152.130398 309.865312 
L 153.457396 202.296562 
L 154.784395 309.865312 
L 156.111393 309.865312 
L 157.438391 202.296562 
L 158.76539 202.296562 
L 160.092388 309.865312 
L 161.419387 202.296562 
L 162.746385 202.296562 
L 164.073384 309.865312 
L 166.72738 309.865312 
L 168.054379 202.296562 
L 169.381377 309.865312 
L 170.708376 202.296562 
L 172.035374 309.865312 
L 173.362373 202.296562 
L 176.01637 202.296562 
L 177.343368 309.865312 
L 178.670366 202.296562 
L 179.997365 309.865312 
L 183.97836 309.865312 
L 185.305359 202.296562 
L 186.632357 309.865312 
L 197.248344 309.865312 
L 198.575343 202.296562 
L 199.902341 309.865312 
L 202.556338 309.865312 
L 203.883337 202.296562 
L 205.210335 309.865312 
L 206.537333 309.865312 
L 207.864332 202.296562 
L 209.19133 309.865312 
L 227.769308 309.865312 
L 229.096307 202.296562 
L 231.750304 202.296562 
L 233.077302 309.865312 
L 234.404301 202.296562 
L 235.731299 309.865312 
L 242.366291 309.865312 
L 243.69329 202.296562 
L 245.020288 309.865312 
L 247.674285 309.865312 
L 249.001283 202.296562 
L 250.328282 202.296562 
L 251.65528 309.865312 
L 252.982279 202.296562 
L 254.309277 309.865312 
L 259.617271 309.865312 
L 260.944269 202.296562 
L 262.271268 309.865312 
L 266.252263 309.865312 
L 267.579261 202.296562 
L 267.579261 202.296562 
" clip-path="url(#p883bd8e11a)" style="fill: none; stroke: #ff7f0e; stroke-opacity: 0.5; stroke-linecap: square"/>
   </g>
   <g id="patch_6">
    <path d="M 65.54375 315.24375 
L 65.54375 196.918125 
" style="fill: none; stroke: #000000; stroke-width: 0.8; stroke-linejoin: miter; stroke-linecap: square"/>
   </g>
   <g id="patch_7">
    <path d="M 65.54375 315.24375 
L 277.2 315.24375 
" style="fill: none; stroke: #000000; stroke-width: 0.8; stroke-linejoin: miter; stroke-linecap: square"/>
   </g>
   <g id="text_28">
    <text style="font: 12px 'DejaVu Sans', 'Bitstream Vera Sans', 'Computer Modern Sans Serif', 'Lucida Grande', 'Verdana', 'Geneva', 'Lucid', 'Arial', 'Helvetica', 'Avant Garde', sans-serif; text-anchor: middle" x="171.371875" y="190.918125" transform="rotate(-0 171.371875 190.918125)">201903 - result</text>
   </g>
   <g id="legend_2">
    <g id="line2d_27">
     <path d="M 285.433125 205.016562 
L 285.433125 205.016562 
L 285.433125 205.016562 
" style="fill: none; stroke: #1f77b4; stroke-linecap: square"/>
    </g>
    <g id="text_29">
     <text style="fill: #1f77b4; font: 10px 'DejaVu Sans', 'Bitstream Vera Sans', 'Computer Modern Sans Serif', 'Lucida Grande', 'Verdana', 'Geneva', 'Lucid', 'Arial', 'Helvetica', 'Avant Garde', sans-serif; text-anchor: start" x="288.433125" y="208.516562" transform="rotate(-0 288.433125 208.516562)">real</text>
    </g>
    <g id="line2d_28">
     <path d="M 285.433125 219.694687 
L 285.433125 219.694687 
L 285.433125 219.694687 
" style="fill: none; stroke: #ff7f0e; stroke-opacity: 0.5; stroke-linecap: square"/>
    </g>
    <g id="text_30">
     <text style="fill: #ff7f0e; font: 10px 'DejaVu Sans', 'Bitstream Vera Sans', 'Computer Modern Sans Serif', 'Lucida Grande', 'Verdana', 'Geneva', 'Lucid', 'Arial', 'Helvetica', 'Avant Garde', sans-serif; text-anchor: start" x="288.433125" y="223.194687" transform="rotate(-0 288.433125 223.194687)">simulated</text>
    </g>
   </g>
  </g>
 </g>
 <defs>
  <clipPath id="p422ca82438">
   <rect x="65.54375" y="22.318125" width="211.65625" height="118.325625"/>
  </clipPath>
  <clipPath id="p883bd8e11a">
   <rect x="65.54375" y="196.918125" width="211.65625" height="118.325625"/>
  </clipPath>
 </defs>
</svg>
