<?xml version="1.0" encoding="utf-8" standalone="no"?>
<!DOCTYPE svg PUBLIC "-//W3C//DTD SVG 1.1//EN"
  "http://www.w3.org/Graphics/SVG/1.1/DTD/svg11.dtd">
<svg xmlns:xlink="http://www.w3.org/1999/xlink" width="349.026875pt" height="352.8pt" viewBox="0 0 349.026875 352.8" xmlns="http://www.w3.org/2000/svg" version="1.1">
 <metadata>
  <rdf:RDF xmlns:dc="http://purl.org/dc/elements/1.1/" xmlns:cc="http://creativecommons.org/ns#" xmlns:rdf="http://www.w3.org/1999/02/22-rdf-syntax-ns#">
   <cc:Work>
    <dc:type rdf:resource="http://purl.org/dc/dcmitype/StillImage"/>
    <dc:date>2026-04-14T15:38:11.150656</dc:date>
    <dc:format>image/svg+xml</dc:format>
    <dc:creator>
     <cc:Agent>
      <dc:title>Matplotlib v3.9.2, https://matplotlib.org/</dc:title>
     </cc:Agent>
    </dc:creator>
   </cc:Work>
  </rdf:RDF>
 </metadata>
 <defs>
  <style type="text/css">*{stroke-linejoin: round; stroke-linecap: butt}</style>
 </defs>
 <g id="figure_1">
  <g id="patch_1">
   <path d="M 0 352.8 
L 349.026875 352.8 
L 349.026875 0 
L 0 0 
z
" style="fill: #ffffff"/>
  </g>
  <g id="axes_1">
   <g id="patch_2">
    <path d="M 65.54375 140.64375 
L 277.2 140.64375 
L 277.2 22.318125 
L 65.54375 22.318125 
z
" style="fill: #ffffff"/>
   </g>
   <g id="matplotlib.axis_1">
    <g id="xtick_1">
     <g id="line2d_1">
      <defs>
       <path id="mf19b2580a2" d="M 0 0 
L 0 3.5 
" style="stroke: #000000; stroke-width: 0.8"/>
      </defs>
      <g>
       <use xlink:href="#mf19b2580a2" x="75.164489" y="140.64375" style="stroke: #000000; stroke-width: 0.8"/>
      </g>
     </g>
     <g id="text_1">
      <text style="font: 10px 'DejaVu Sans', 'Bitstream Vera Sans', 'Computer Modern Sans Serif', 'Lucida Grande', 'Verdana', 'Geneva', 'Lucid', 'Arial', 'Helvetica', 'Avant Garde', sans-serif; text-anchor: middle" x="75.164489" y="155.242188" transform="rotate(-0 75.164489 155.242188)">0</text>
     </g>
    </g>
    <g id="xtick_2">
     <g id="line2d_2">
      <g>
       <use xlink:href="#mf19b2580a2" x="106.811655" y="140.64375" style="stroke: #000000; stroke-width: 0.8"/>
      </g>
     </g>
     <g id="text_2">
      <text style="font: 10px 'DejaVu Sans', 'Bitstream Vera Sans', 'Computer Modern Sans Serif', 'Lucida Grande', 'Verdana', 'Geneva', 'Lucid', 'Arial', 'Helvetica', 'Avant Garde', sans-serif; text-anchor: middle" x="106.811655" y="155.242188" transform="rotate(-0 106.811655 155.242188)">25</text>
     </g>
    </g>
    <g id="xtick_3">
     <g id="line2d_3">
      <g>
       <use xlink:href="#mf19b2580a2" x="138.458822" y="140.64375" style="stroke: #000000; stroke-width: 0.8"/>
      </g>
     </g>
     <g id="text_3">
      <text style="font: 10px 'DejaVu Sans', 'Bitstream Vera Sans', 'Computer Modern Sans Serif', 'Lucida Grande', 'Verdana', 'Geneva', 'Lucid', 'Arial', 'Helvetica', 'Avant Garde', sans-serif; text-anchor: middle" x="138.458822" y="155.242188" transform="rotate(-0 138.458822 155.242188)">50</text>
     </g>
    </g>
    <g id="xtick_4">
     <g id="line2d_4">
      <g>
       <use xlink:href="#mf19b2580a2" x="170.105988" y="140.64375" style="stroke: #000000; stroke-width: 0.8"/>
      </g>
     </g>
     <g id="text_4">
      <text style="font: 10px 'DejaVu Sans', 'Bitstream Vera Sans', 'Computer Modern Sans Serif', 'Lucida Grande', 'Verdana', 'Geneva', 'Lucid', 'Arial', 'Helvetica', 'Avant Garde', sans-serif; text-anchor: middle" x="170.105988" y="155.242188" transform="rotate(-0 170.105988 155.242188)">75</text>
     </g>
    </g>
    <g id="xtick_5">
     <g id="line2d_5">
      <g>
       <use xlink:href="#mf19b2580a2" x="201.753155" y="140.64375" style="stroke: #000000; stroke-width: 0.8"/>
      </g>
     </g>
     <g id="text_5">
      <text style="font: 10px 'DejaVu Sans', 'Bitstream Vera Sans', 'Computer Modern Sans Serif', 'Lucida Grande', 'Verdana', 'Geneva', 'Lucid', 'Arial', 'Helvetica', 'Avant Garde', sans-serif; text-anchor: middle" x="201.753155" y="155.242188" transform="rotate(-0 201.753155 155.242188)">100</text>
     </g>
    </g>
    <g id="xtick_6">
     <g id="line2d_6">
      <g>
       <use xlink:href="#mf19b2580a2" x="233.400321" y="140.64375" style="stroke: #000000; stroke-width: 0.8"/>
      </g>
     </g>
     <g id="text_6">
      <text style="font: 10px 'DejaVu Sans', 'Bitstream Vera Sans', 'Computer Modern Sans Serif', 'Lucida Grande', 'Verdana', 'Geneva', 'Lucid', 'Arial', 'Helvetica', 'Avant Garde', sans-serif; text-anchor: middle" x="233.400321" y="155.242188" transform="rotate(-0 233.400321 155.242188)">125</text>
     </g>
    </g>
    <g id="xtick_7">
     <g id="line2d_7">
      <g>
       <use xlink:href="#mf19b2580a2" x="265.047488" y="140.64375" style="stroke: #000000; stroke-width: 0.8"/>
      </g>
     </g>
     <g id="text_7">
      <text style="font: 10px 'DejaVu Sans', 'Bitstream Vera Sans', 'Computer Modern Sans Serif', 'Lucida Grande', 'Verdana', 'Geneva', 'Lucid', 'Arial', 'Helvetica', 'Avant Garde', sans-serif; text-anchor: middle" x="265.047488" y="155.242188" transform="rotate(-0 265.047488 155.242188)">150</text>
     </g>
    </g>
    <g id="text_8">
     <text style="font: 10px 'DejaVu Sans', 'Bitstream Vera Sans', 'Computer Modern Sans Serif', 'Lucida Grande', 'Verdana', 'Geneva', 'Lucid', 'Arial', 'Helvetica', 'Avant Garde', sans-serif; text-anchor: middle" x="171.371875" y="168.920312" transform="rotate(-0 171.371875 168.920312)">trial</text>
    </g>
   </g>
   <g id="matplotlib.axis_2">
    <g id="ytick_1">
     <g id="line2d_8">
      <defs>
       <path id="m04c86fb9d3" d="M 0 0 
L -3.5 0 
" style="stroke: #000000; stroke-width: 0.8"/>
      </defs>
      <g>
       <use xlink:href="#m04c86fb9d3" x="65.54375" y="135.265313" style="stroke: #000000; stroke-width: 0.8"/>
      </g>
     </g>
     <g id="text_9">
      <text style="font: 10px 'DejaVu Sans', 'Bitstream Vera Sans', 'Computer Modern Sans Serif', 'Lucida Grande', 'Verdana', 'Geneva', 'Lucid', 'Arial', 'Helvetica', 'Avant Garde', sans-serif; text-anchor: end" x="58.54375" y="139.064531" transform="rotate(-0 58.54375 139.064531)">0</text>
     </g>
    </g>
    <g id="ytick_2">
     <g id="line2d_9">
      <g>
       <use xlink:href="#m04c86fb9d3" x="65.54375" y="102.315547" style="stroke: #000000; stroke-width: 0.8"/>
      </g>
     </g>
     <g id="text_10">
      <text style="font: 10px 'DejaVu Sans', 'Bitstream Vera Sans', 'Computer Modern Sans Serif', 'Lucida Grande', 'Verdana', 'Geneva', 'Lucid', 'Arial', 'Helvetica', 'Avant Garde', sans-serif; text-anchor: end" x="58.54375" y="106.114766" transform="rotate(-0 58.54375 106.114766)">200</text>
     </g>
    </g>
    <g id="ytick_3">
     <g id="line2d_10">
      <g>
       <use xlink:href="#m04c86fb9d3" x="65.54375" y="69.365782" style="stroke: #000000; stroke-width: 0.8"/>
      </g>
     </g>
     <g id="text_11">
      <text style="font: 10px 'DejaVu Sans', 'Bitstream Vera Sans', 'Computer Modern Sans Serif', 'Lucida Grande', 'Verdana', 'Geneva', 'Lucid', 'Arial', 'Helvetica', 'Avant Garde', sans-serif; text-anchor: end" x="58.54375" y="73.165001" transform="rotate(-0 58.54375 73.165001)">400</text>
     </g>
    </g>
    <g id="ytick_4">
     <g id="line2d_11">
      <g>
       <use xlink:href="#m04c86fb9d3" x="65.54375" y="36.416017" style="stroke: #000000; stroke-width: 0.8"/>
      </g>
     </g>
     <g id="text_12">
      <text style="font: 10px 'DejaVu Sans', 'Bitstream Vera Sans', 'Computer Modern Sans Serif', 'Lucida Grande', 'Verdana', 'Geneva', 'Lucid', 'Arial', 'Helvetica', 'Avant Garde', sans-serif; text-anchor: end" x="58.54375" y="40.215236" transform="rotate(-0 58.54375 40.215236)">600</text>
     </g>
    </g>
    <g id="text_13">
     <text style="font: 10px 'DejaVu Sans', 'Bitstream Vera Sans', 'Computer Modern Sans Serif', 'Lucida Grande', 'Verdana', 'Geneva', 'Lucid', 'Arial', 'Helvetica', 'Avant Garde', sans-serif; text-anchor: middle" x="33.376562" y="81.480937" transform="rotate(-90 33.376562 81.480937)">reward</text>
    </g>
   </g>
   <g id="line2d_12">
    <path d="M 75.164489 135.265313 
L 76.430375 120.767416 
L 77.696262 109.399747 
L 78.962149 106.599017 
L 80.228035 135.265313 
L 81.493922 135.265313 
L 82.759809 115.824951 
L 84.025695 135.265313 
L 85.291582 116.978193 
L 86.557469 135.265313 
L 87.823355 118.955179 
L 89.089242 112.200477 
L 90.355129 135.265313 
L 91.621015 119.119928 
L 92.886902 135.265313 
L 94.152789 121.426411 
L 95.418675 135.265313 
L 96.684562 130.158099 
L 97.950449 118.460932 
L 99.216335 116.813444 
L 100.482222 101.821301 
L 101.748109 101.98605 
L 103.013995 103.468789 
L 104.279882 135.265313 
L 105.545769 103.139292 
L 106.811655 135.265313 
L 108.077542 114.342212 
L 109.343429 116.319198 
L 110.609315 135.265313 
L 111.875202 135.265313 
L 113.141089 106.10477 
L 114.406975 123.897644 
L 115.672862 135.265313 
L 116.938749 135.265313 
L 118.204635 117.801937 
L 119.470522 135.265313 
L 120.736408 118.460932 
L 122.002295 118.296183 
L 123.268182 105.940022 
L 124.534068 112.694723 
L 125.799955 118.79043 
L 127.065842 117.472439 
L 128.331728 135.265313 
L 129.597615 109.729245 
L 130.863502 115.165956 
L 132.129388 89.30039 
L 133.395275 114.177463 
L 134.661162 102.150799 
L 135.927048 107.752259 
L 137.192935 102.480296 
L 138.458822 135.265313 
L 139.724708 117.801937 
L 140.990595 135.265313 
L 142.256482 112.859472 
L 143.522368 110.058742 
L 144.788255 135.265313 
L 146.054142 135.265313 
L 147.320028 118.79043 
L 148.585915 117.472439 
L 149.851802 116.648695 
L 151.117688 112.200477 
L 152.383575 135.265313 
L 153.649462 135.265313 
L 154.915348 123.568146 
L 156.181235 135.265313 
L 157.447122 117.307691 
L 158.713008 117.966686 
L 159.978895 115.824951 
L 161.244782 111.70623 
L 162.510668 115.165956 
L 163.776555 115.824951 
L 165.042442 115.330705 
L 166.308328 115.330705 
L 167.574215 116.154449 
L 168.840102 135.265313 
L 170.105988 115.824951 
L 171.371875 106.599017 
L 172.637762 135.265313 
L 175.169535 135.265313 
L 176.435422 123.403397 
L 177.701308 122.085406 
L 178.967195 135.265313 
L 180.233082 120.108421 
L 182.764855 98.855822 
L 185.296628 135.265313 
L 186.562515 116.483946 
L 187.828402 108.740752 
L 189.094288 135.265313 
L 190.360175 117.472439 
L 191.626062 135.265313 
L 192.891948 116.978193 
L 194.157835 135.265313 
L 195.423722 135.265313 
L 196.689608 122.909151 
L 197.955495 120.602667 
L 199.221382 121.261662 
L 200.487268 118.296183 
L 201.753155 116.813444 
L 203.019042 114.506961 
L 204.284928 102.974543 
L 205.550815 109.893993 
L 206.816702 135.265313 
L 208.082588 135.265313 
L 209.348475 109.399747 
L 210.614362 117.472439 
L 211.880248 135.265313 
L 213.146135 117.637188 
L 214.412022 111.376733 
L 215.677908 103.633538 
L 216.943795 135.265313 
L 218.209682 135.265313 
L 219.475568 120.273169 
L 220.741455 117.966686 
L 222.007342 135.265313 
L 223.273228 109.564496 
L 224.539115 116.154449 
L 225.805001 135.265313 
L 227.070888 127.19262 
L 228.336775 135.265313 
L 229.602661 135.265313 
L 230.868548 126.204127 
L 232.134435 121.59116 
L 233.400321 120.108421 
L 234.666208 109.399747 
L 237.197981 116.813444 
L 238.463868 114.012714 
L 239.729755 111.541482 
L 240.995641 118.79043 
L 242.261528 135.265313 
L 243.527415 117.307691 
L 244.793301 115.9897 
L 246.059188 135.265313 
L 247.325075 119.284676 
L 248.590961 135.265313 
L 249.856848 119.119928 
L 251.122735 118.131435 
L 252.388621 115.9897 
L 253.654508 117.637188 
L 254.920395 135.265313 
L 256.186281 117.307691 
L 257.452168 118.296183 
L 258.718055 135.265313 
L 259.983941 135.265313 
L 261.249828 116.813444 
L 262.515715 135.265313 
L 263.781601 115.001207 
L 265.047488 135.265313 
L 266.313375 117.472439 
L 267.579261 135.265313 
L 267.579261 135.265313 
" clip-path="url(#pb5f150cba4)" style="fill: none; stroke: #1f77b4; stroke-linecap: square"/>
   </g>
   <g id="line2d_13">
    <path d="M 75.164489 135.265313 
L 76.430375 121.719159 
L 77.696262 111.90127 
L 78.962149 115.67635 
L 80.228035 135.265313 
L 81.493922 135.265313 
L 82.759809 117.177715 
L 84.025695 135.265313 
L 85.291582 132.655675 
L 86.557469 135.265313 
L 87.823355 123.195269 
L 89.089242 112.336882 
L 90.355129 135.265313 
L 91.621015 119.680683 
L 92.886902 135.265313 
L 94.152789 128.426616 
L 95.418675 135.265313 
L 96.684562 134.165244 
L 97.950449 124.974701 
L 99.216335 121.265307 
L 100.482222 126.392682 
L 101.748109 108.86767 
L 103.013995 113.468994 
L 104.279882 135.265313 
L 105.545769 110.990751 
L 106.811655 135.265313 
L 108.077542 125.057442 
L 109.343429 116.920333 
L 110.609315 135.265313 
L 111.875202 135.265313 
L 113.141089 120.97604 
L 114.406975 135.265313 
L 116.938749 135.265313 
L 118.204635 125.690326 
L 119.470522 135.265313 
L 120.736408 135.265313 
L 122.002295 120.404916 
L 123.268182 106.999535 
L 124.534068 125.394826 
L 125.799955 121.540941 
L 127.065842 131.526744 
L 128.331728 135.265313 
L 129.597615 120.27626 
L 130.863502 95.913031 
L 132.129388 95.144672 
L 133.395275 114.25083 
L 134.661162 106.738101 
L 135.927048 92.748698 
L 137.192935 104.518855 
L 138.458822 135.265313 
L 139.724708 125.271749 
L 140.990595 135.265313 
L 142.256482 127.83553 
L 143.522368 117.040817 
L 144.788255 135.265313 
L 146.054142 135.265313 
L 147.320028 120.880186 
L 148.585915 129.018107 
L 149.851802 100.808254 
L 151.117688 119.917363 
L 152.383575 135.265313 
L 156.181235 135.265313 
L 158.713008 119.898944 
L 159.978895 121.133787 
L 161.244782 113.707335 
L 162.510668 117.939485 
L 163.776555 116.66855 
L 165.042442 121.14602 
L 166.308328 124.81357 
L 167.574215 117.568072 
L 168.840102 135.265313 
L 170.105988 125.090617 
L 171.371875 107.558812 
L 172.637762 135.265313 
L 176.435422 135.265313 
L 177.701308 130.056825 
L 178.967195 135.265313 
L 180.233082 135.265313 
L 181.498968 109.873961 
L 182.764855 99.976571 
L 184.030742 94.846031 
L 185.296628 135.265313 
L 186.562515 135.265313 
L 187.828402 135.146637 
L 189.094288 135.265313 
L 190.360175 119.730551 
L 191.626062 135.265313 
L 195.423722 135.265313 
L 196.689608 62.972383 
L 197.955495 121.211193 
L 199.221382 124.586469 
L 200.487268 123.739817 
L 201.753155 130.738337 
L 203.019042 131.594091 
L 204.284928 107.445175 
L 205.550815 115.028677 
L 206.816702 135.265313 
L 208.082588 135.265313 
L 209.348475 122.102597 
L 210.614362 118.940185 
L 211.880248 135.265313 
L 213.146135 133.211146 
L 214.412022 115.595073 
L 215.677908 126.034902 
L 216.943795 135.265313 
L 219.475568 135.265313 
L 220.741455 131.260783 
L 222.007342 135.265313 
L 223.273228 116.07334 
L 224.539115 132.260731 
L 225.805001 135.265313 
L 227.070888 134.355459 
L 228.336775 135.265313 
L 229.602661 135.265313 
L 230.868548 130.57776 
L 232.134435 122.333707 
L 233.400321 135.265313 
L 234.666208 110.567953 
L 235.932095 115.170989 
L 237.197981 79.394205 
L 238.463868 118.653744 
L 239.729755 116.973217 
L 240.995641 93.931434 
L 242.261528 135.265313 
L 243.527415 117.457285 
L 244.793301 131.882198 
L 246.059188 135.265313 
L 247.325075 112.285025 
L 248.590961 135.265313 
L 249.856848 99.981066 
L 251.122735 86.62481 
L 252.388621 121.229863 
L 253.654508 27.696563 
L 254.920395 135.265313 
L 256.186281 135.265313 
L 257.452168 86.936069 
L 258.718055 135.265313 
L 259.983941 135.265313 
L 261.249828 116.903473 
L 262.515715 135.265313 
L 263.781601 118.168331 
L 265.047488 135.265313 
L 266.313375 125.076616 
L 267.579261 135.265313 
L 267.579261 135.265313 
" clip-path="url(#pb5f150cba4)" style="fill: none; stroke: #ff7f0e; stroke-opacity: 0.5; stroke-linecap: square"/>
   </g>
   <g id="patch_3">
    <path d="M 65.54375 140.64375 
L 65.54375 22.318125 
" style="fill: none; stroke: #000000; stroke-width: 0.8; stroke-linejoin: miter; stroke-linecap: square"/>
   </g>
   <g id="patch_4">
    <path d="M 65.54375 140.64375 
L 277.2 140.64375 
" style="fill: none; stroke: #000000; stroke-width: 0.8; stroke-linejoin: miter; stroke-linecap: square"/>
   </g>
   <g id="text_14">
    <text style="font: 12px 'DejaVu Sans', 'Bitstream Vera Sans', 'Computer Modern Sans Serif', 'Lucida Grande', 'Verdana', 'Geneva', 'Lucid', 'Arial', 'Helvetica', 'Avant Garde', sans-serif; text-anchor: middle" x="171.371875" y="16.318125" transform="rotate(-0 171.371875 16.318125)">202414 - reward</text>
   </g>
   <g id="legend_1">
    <g id="line2d_14">
     <path d="M 285.433125 30.416562 
L 285.433125 30.416562 
L 285.433125 30.416562 
" style="fill: none; stroke: #1f77b4; stroke-linecap: square"/>
    </g>
    <g id="text_15">
     <text style="fill: #1f77b4; font: 10px 'DejaVu Sans', 'Bitstream Vera Sans', 'Computer Modern Sans Serif', 'Lucida Grande', 'Verdana', 'Geneva', 'Lucid', 'Arial', 'Helvetica', 'Avant Garde', sans-serif; text-anchor: start" x="288.433125" y="33.916562" transform="rotate(-0 288.433125 33.916562)">real</text>
    </g>
    <g id="line2d_15">
     <path d="M 285.433125 45.094688 
L 285.433125 45.094688 
L 285.433125 45.094688 
" style="fill: none; stroke: #ff7f0e; stroke-opacity: 0.5; stroke-linecap: square"/>
    </g>
    <g id="text_16">
     <text style="fill: #ff7f0e; font: 10px 'DejaVu Sans', 'Bitstream Vera Sans', 'Computer Modern Sans Serif', 'Lucida Grande', 'Verdana', 'Geneva', 'Lucid', 'Arial', 'Helvetica', 'Avant Garde', sans-serif; text-anchor: start" x="288.433125" y="48.594688" transform="rotate(-0 288.433125 48.594688)">simulated</text>
    </g>
   </g>
  </g>
  <g id="axes_2">
   <g id="patch_5">
    <path d="M 65.54375 315.24375 
L 277.2 315.24375 
L 277.2 196.918125 
L 65.54375 196.918125 
z
" style="fill: #ffffff"/>
   </g>
   <g id="matplotlib.axis_3">
    <g id="xtick_8">
     <g id="line2d_16">
      <g>
       <use xlink:href="#mf19b2580a2" x="75.164489" y="315.24375" style="stroke: #000000; stroke-width: 0.8"/>
      </g>
     </g>
     <g id="text_17">
      <text style="font: 10px 'DejaVu Sans', 'Bitstream Vera Sans', 'Computer Modern Sans Serif', 'Lucida Grande', 'Verdana', 'Geneva', 'Lucid', 'Arial', 'Helvetica', 'Avant Garde', sans-serif; text-anchor: middle" x="75.164489" y="329.842187" transform="rotate(-0 75.164489 329.842187)">0</text>
     </g>
    </g>
    <g id="xtick_9">
     <g id="line2d_17">
      <g>
       <use xlink:href="#mf19b2580a2" x="106.811655" y="315.24375" style="stroke: #000000; stroke-width: 0.8"/>
      </g>
     </g>
     <g id="text_18">
      <text style="font: 10px 'DejaVu Sans', 'Bitstream Vera Sans', 'Computer Modern Sans Serif', 'Lucida Grande', 'Verdana', 'Geneva', 'Lucid', 'Arial', 'Helvetica', 'Avant Garde', sans-serif; text-anchor: middle" x="106.811655" y="329.842187" transform="rotate(-0 106.811655 329.842187)">25</text>
     </g>
    </g>
    <g id="xtick_10">
     <g id="line2d_18">
      <g>
       <use xlink:href="#mf19b2580a2" x="138.458822" y="315.24375" style="stroke: #000000; stroke-width: 0.8"/>
      </g>
     </g>
     <g id="text_19">
      <text style="font: 10px 'DejaVu Sans', 'Bitstream Vera Sans', 'Computer Modern Sans Serif', 'Lucida Grande', 'Verdana', 'Geneva', 'Lucid', 'Arial', 'Helvetica', 'Avant Garde', sans-serif; text-anchor: middle" x="138.458822" y="329.842187" transform="rotate(-0 138.458822 329.842187)">50</text>
     </g>
    </g>
    <g id="xtick_11">
     <g id="line2d_19">
      <g>
       <use xlink:href="#mf19b2580a2" x="170.105988" y="315.24375" style="stroke: #000000; stroke-width: 0.8"/>
      </g>
     </g>
     <g id="text_20">
      <text style="font: 10px 'DejaVu Sans', 'Bitstream Vera Sans', 'Computer Modern Sans Serif', 'Lucida Grande', 'Verdana', 'Geneva', 'Lucid', 'Arial', 'Helvetica', 'Avant Garde', sans-serif; text-anchor: middle" x="170.105988" y="329.842187" transform="rotate(-0 170.105988 329.842187)">75</text>
     </g>
    </g>
    <g id="xtick_12">
     <g id="line2d_20">
      <g>
       <use xlink:href="#mf19b2580a2" x="201.753155" y="315.24375" style="stroke: #000000; stroke-width: 0.8"/>
      </g>
     </g>
     <g id="text_21">
      <text style="font: 10px 'DejaVu Sans', 'Bitstream Vera Sans', 'Computer Modern Sans Serif', 'Lucida Grande', 'Verdana', 'Geneva', 'Lucid', 'Arial', 'Helvetica', 'Avant Garde', sans-serif; text-anchor: middle" x="201.753155" y="329.842187" transform="rotate(-0 201.753155 329.842187)">100</text>
     </g>
    </g>
    <g id="xtick_13">
     <g id="line2d_21">
      <g>
       <use xlink:href="#mf19b2580a2" x="233.400321" y="315.24375" style="stroke: #000000; stroke-width: 0.8"/>
      </g>
     </g>
     <g id="text_22">
      <text style="font: 10px 'DejaVu Sans', 'Bitstream Vera Sans', 'Computer Modern Sans Serif', 'Lucida Grande', 'Verdana', 'Geneva', 'Lucid', 'Arial', 'Helvetica', 'Avant Garde', sans-serif; text-anchor: middle" x="233.400321" y="329.842187" transform="rotate(-0 233.400321 329.842187)">125</text>
     </g>
    </g>
    <g id="xtick_14">
     <g id="line2d_22">
      <g>
       <use xlink:href="#mf19b2580a2" x="265.047488" y="315.24375" style="stroke: #000000; stroke-width: 0.8"/>
      </g>
     </g>
     <g id="text_23">
      <text style="font: 10px 'DejaVu Sans', 'Bitstream Vera Sans', 'Computer Modern Sans Serif', 'Lucida Grande', 'Verdana', 'Geneva', 'Lucid', 'Arial', 'Helvetica', 'Avant Garde', sans-serif; text-anchor: middle" x="265.047488" y="329.842187" transform="rotate(-0 265.047488 329.842187)">150</text>
     </g>
    </g>
    <g id="text_24">
     <text style="font: 10px 'DejaVu Sans', 'Bitstream Vera Sans', 'Computer Modern Sans Serif', 'Lucida Grande', 'Verdana', 'Geneva', 'Lucid', 'Arial', 'Helvetica', 'Avant Garde', sans-serif; text-anchor: middle" x="171.371875" y="343.520312" transform="rotate(-0 171.371875 343.520312)">trial</text>
    </g>
   </g>
   <g id="matplotlib.axis_4">
    <g id="ytick_5">
     <g id="line2d_23">
      <g>
       <use xlink:href="#m04c86fb9d3" x="65.54375" y="309.865312" style="stroke: #000000; stroke-width: 0.8"/>
      </g>
     </g>
     <g id="text_25">
      <text style="font: 10px 'DejaVu Sans', 'Bitstream Vera Sans', 'Computer Modern Sans Serif', 'Lucida Grande', 'Verdana', 'Geneva', 'Lucid', 'Arial', 'Helvetica', 'Avant Garde', sans-serif; text-anchor: end" x="58.54375" y="313.664531" transform="rotate(-0 58.54375 313.664531)">banked</text>
     </g>
    </g>
    <g id="ytick_6">
     <g id="line2d_24">
      <g>
       <use xlink:href="#m04c86fb9d3" x="65.54375" y="202.296562" style="stroke: #000000; stroke-width: 0.8"/>
      </g>
     </g>
     <g id="text_26">
      <text style="font: 10px 'DejaVu Sans', 'Bitstream Vera Sans', 'Computer Modern Sans Serif', 'Lucida Grande', 'Verdana', 'Geneva', 'Lucid', 'Arial', 'Helvetica', 'Avant Garde', sans-serif; text-anchor: end" x="58.54375" y="206.095781" transform="rotate(-0 58.54375 206.095781)">popped</text>
     </g>
    </g>
    <g id="text_27">
     <text style="font: 10px 'DejaVu Sans', 'Bitstream Vera Sans', 'Computer Modern Sans Serif', 'Lucida Grande', 'Verdana', 'Geneva', 'Lucid', 'Arial', 'Helvetica', 'Avant Garde', sans-serif; text-anchor: middle" x="14.798438" y="256.080937" transform="rotate(-90 14.798438 256.080937)">result</text>
    </g>
   </g>
   <g id="line2d_25">
    <path d="M 75.164489 202.296562 
L 76.430375 309.865312 
L 78.962149 309.865312 
L 80.228035 202.296562 
L 81.493922 202.296562 
L 82.759809 309.865312 
L 84.025695 202.296562 
L 85.291582 309.865312 
L 86.557469 202.296562 
L 87.823355 309.865312 
L 89.089242 309.865312 
L 90.355129 202.296562 
L 91.621015 309.865312 
L 92.886902 202.296562 
L 94.152789 309.865312 
L 95.418675 202.296562 
L 96.684562 309.865312 
L 103.013995 309.865312 
L 104.279882 202.296562 
L 105.545769 309.865312 
L 106.811655 202.296562 
L 108.077542 309.865312 
L 109.343429 309.865312 
L 110.609315 202.296562 
L 111.875202 202.296562 
L 113.141089 309.865312 
L 114.406975 309.865312 
L 115.672862 202.296562 
L 116.938749 202.296562 
L 118.204635 309.865312 
L 119.470522 202.296562 
L 120.736408 309.865312 
L 127.065842 309.865312 
L 128.331728 202.296562 
L 129.597615 309.865312 
L 137.192935 309.865312 
L 138.458822 202.296562 
L 139.724708 309.865312 
L 140.990595 202.296562 
L 142.256482 309.865312 
L 143.522368 309.865312 
L 144.788255 202.296562 
L 146.054142 202.296562 
L 147.320028 309.865312 
L 151.117688 309.865312 
L 152.383575 202.296562 
L 153.649462 202.296562 
L 154.915348 309.865312 
L 156.181235 202.296562 
L 157.447122 309.865312 
L 167.574215 309.865312 
L 168.840102 202.296562 
L 170.105988 309.865312 
L 171.371875 309.865312 
L 172.637762 202.296562 
L 175.169535 202.296562 
L 176.435422 309.865312 
L 177.701308 309.865312 
L 178.967195 202.296562 
L 180.233082 309.865312 
L 184.030742 309.865312 
L 185.296628 202.296562 
L 186.562515 309.865312 
L 187.828402 309.865312 
L 189.094288 202.296562 
L 190.360175 309.865312 
L 191.626062 202.296562 
L 192.891948 309.865312 
L 194.157835 202.296562 
L 195.423722 202.296562 
L 196.689608 309.865312 
L 205.550815 309.865312 
L 206.816702 202.296562 
L 208.082588 202.296562 
L 209.348475 309.865312 
L 210.614362 309.865312 
L 211.880248 202.296562 
L 213.146135 309.865312 
L 215.677908 309.865312 
L 216.943795 202.296562 
L 218.209682 202.296562 
L 219.475568 309.865312 
L 220.741455 309.865312 
L 222.007342 202.296562 
L 223.273228 309.865312 
L 224.539115 309.865312 
L 225.805001 202.296562 
L 227.070888 309.865312 
L 228.336775 202.296562 
L 229.602661 202.296562 
L 230.868548 309.865312 
L 240.995641 309.865312 
L 242.261528 202.296562 
L 243.527415 309.865312 
L 244.793301 309.865312 
L 246.059188 202.296562 
L 247.325075 309.865312 
L 248.590961 202.296562 
L 249.856848 309.865312 
L 253.654508 309.865312 
L 254.920395 202.296562 
L 256.186281 309.865312 
L 257.452168 309.865312 
L 258.718055 202.296562 
L 259.983941 202.296562 
L 261.249828 309.865312 
L 262.515715 202.296562 
L 263.781601 309.865312 
L 265.047488 202.296562 
L 266.313375 309.865312 
L 267.579261 202.296562 
L 267.579261 202.296562 
" clip-path="url(#p381ac60167)" style="fill: none; stroke: #1f77b4; stroke-linecap: square"/>
   </g>
   <g id="line2d_26">
    <path d="M 75.164489 202.296562 
L 76.430375 309.865312 
L 78.962149 309.865312 
L 80.228035 202.296562 
L 81.493922 202.296562 
L 82.759809 309.865312 
L 84.025695 202.296562 
L 85.291582 309.865312 
L 86.557469 202.296562 
L 87.823355 309.865312 
L 89.089242 309.865312 
L 90.355129 202.296562 
L 91.621015 309.865312 
L 92.886902 202.296562 
L 94.152789 309.865312 
L 95.418675 202.296562 
L 96.684562 309.865312 
L 103.013995 309.865312 
L 104.279882 202.296562 
L 105.545769 309.865312 
L 106.811655 202.296562 
L 108.077542 309.865312 
L 109.343429 309.865312 
L 110.609315 202.296562 
L 111.875202 202.296562 
L 113.141089 309.865312 
L 114.406975 202.296562 
L 116.938749 202.296562 
L 118.204635 309.865312 
L 119.470522 202.296562 
L 120.736408 202.296562 
L 122.002295 309.865312 
L 127.065842 309.865312 
L 128.331728 202.296562 
L 129.597615 309.865312 
L 137.192935 309.865312 
L 138.458822 202.296562 
L 139.724708 309.865312 
L 140.990595 202.296562 
L 142.256482 309.865312 
L 143.522368 309.865312 
L 144.788255 202.296562 
L 146.054142 202.296562 
L 147.320028 309.865312 
L 151.117688 309.865312 
L 152.383575 202.296562 
L 156.181235 202.296562 
L 157.447122 309.865312 
L 167.574215 309.865312 
L 168.840102 202.296562 
L 170.105988 309.865312 
L 171.371875 309.865312 
L 172.637762 202.296562 
L 176.435422 202.296562 
L 177.701308 309.865312 
L 178.967195 202.296562 
L 180.233082 202.296562 
L 181.498968 309.865312 
L 184.030742 309.865312 
L 185.296628 202.296562 
L 186.562515 202.296562 
L 187.828402 309.865312 
L 189.094288 202.296562 
L 190.360175 309.865312 
L 191.626062 202.296562 
L 195.423722 202.296562 
L 196.689608 309.865312 
L 205.550815 309.865312 
L 206.816702 202.296562 
L 208.082588 202.296562 
L 209.348475 309.865312 
L 210.614362 309.865312 
L 211.880248 202.296562 
L 213.146135 309.865312 
L 215.677908 309.865312 
L 216.943795 202.296562 
L 219.475568 202.296562 
L 220.741455 309.865312 
L 222.007342 202.296562 
L 223.273228 309.865312 
L 224.539115 309.865312 
L 225.805001 202.296562 
L 227.070888 309.865312 
L 228.336775 202.296562 
L 229.602661 202.296562 
L 230.868548 309.865312 
L 232.134435 309.865312 
L 233.400321 202.296562 
L 234.666208 309.865312 
L 240.995641 309.865312 
L 242.261528 202.296562 
L 243.527415 309.865312 
L 244.793301 309.865312 
L 246.059188 202.296562 
L 247.325075 309.865312 
L 248.590961 202.296562 
L 249.856848 309.865312 
L 253.654508 309.865312 
L 254.920395 202.296562 
L 256.186281 202.296562 
L 257.452168 309.865312 
L 258.718055 202.296562 
L 259.983941 202.296562 
L 261.249828 309.865312 
L 262.515715 202.296562 
L 263.781601 309.865312 
L 265.047488 202.296562 
L 266.313375 309.865312 
L 267.579261 202.296562 
L 267.579261 202.296562 
" clip-path="url(#p381ac60167)" style="fill: none; stroke: #ff7f0e; stroke-opacity: 0.5; stroke-linecap: square"/>
   </g>
   <g id="patch_6">
    <path d="M 65.54375 315.24375 
L 65.54375 196.918125 
" style="fill: none; stroke: #000000; stroke-width: 0.8; stroke-linejoin: miter; stroke-linecap: square"/>
   </g>
   <g id="patch_7">
    <path d="M 65.54375 315.24375 
L 277.2 315.24375 
" style="fill: none; stroke: #000000; stroke-width: 0.8; stroke-linejoin: miter; stroke-linecap: square"/>
   </g>
   <g id="text_28">
    <text style="font: 12px 'DejaVu Sans', 'Bitstream Vera Sans', 'Computer Modern Sans Serif', 'Lucida Grande', 'Verdana', 'Geneva', 'Lucid', 'Arial', 'Helvetica', 'Avant Garde', sans-serif; text-anchor: middle" x="171.371875" y="190.918125" transform="rotate(-0 171.371875 190.918125)">202414 - result</text>
   </g>
   <g id="legend_2">
    <g id="line2d_27">
     <path d="M 285.433125 205.016562 
L 285.433125 205.016562 
L 285.433125 205.016562 
" style="fill: none; stroke: #1f77b4; stroke-linecap: square"/>
    </g>
    <g id="text_29">
     <text style="fill: #1f77b4; font: 10px 'DejaVu Sans', 'Bitstream Vera Sans', 'Computer Modern Sans Serif', 'Lucida Grande', 'Verdana', 'Geneva', 'Lucid', 'Arial', 'Helvetica', 'Avant Garde', sans-serif; text-anchor: start" x="288.433125" y="208.516562" transform="rotate(-0 288.433125 208.516562)">real</text>
    </g>
    <g id="line2d_28">
     <path d="M 285.433125 219.694687 
L 285.433125 219.694687 
L 285.433125 219.694687 
" style="fill: none; stroke: #ff7f0e; stroke-opacity: 0.5; stroke-linecap: square"/>
    </g>
    <g id="text_30">
     <text style="fill: #ff7f0e; font: 10px 'DejaVu Sans', 'Bitstream Vera Sans', 'Computer Modern Sans Serif', 'Lucida Grande', 'Verdana', 'Geneva', 'Lucid', 'Arial', 'Helvetica', 'Avant Garde', sans-serif; text-anchor: start" x="288.433125" y="223.194687" transform="rotate(-0 288.433125 223.194687)">simulated</text>
    </g>
   </g>
  </g>
 </g>
 <defs>
  <clipPath id="pb5f150cba4">
   <rect x="65.54375" y="22.318125" width="211.65625" height="118.325625"/>
  </clipPath>
  <clipPath id="p381ac60167">
   <rect x="65.54375" y="196.918125" width="211.65625" height="118.325625"/>
  </clipPath>
 </defs>
</svg>
