<?xml version="1.0" encoding="utf-8" standalone="no"?>
<!DOCTYPE svg PUBLIC "-//W3C//DTD SVG 1.1//EN"
  "http://www.w3.org/Graphics/SVG/1.1/DTD/svg11.dtd">
<svg xmlns:xlink="http://www.w3.org/1999/xlink" width="349.026875pt" height="352.8pt" viewBox="0 0 349.026875 352.8" xmlns="http://www.w3.org/2000/svg" version="1.1">
 <metadata>
  <rdf:RDF xmlns:dc="http://purl.org/dc/elements/1.1/" xmlns:cc="http://creativecommons.org/ns#" xmlns:rdf="http://www.w3.org/1999/02/22-rdf-syntax-ns#">
   <cc:Work>
    <dc:type rdf:resource="http://purl.org/dc/dcmitype/StillImage"/>
    <dc:date>2026-04-14T15:37:31.282371</dc:date>
    <dc:format>image/svg+xml</dc:format>
    <dc:creator>
     <cc:Agent>
      <dc:title>Matplotlib v3.9.2, https://matplotlib.org/</dc:title>
     </cc:Agent>
    </dc:creator>
   </cc:Work>
  </rdf:RDF>
 </metadata>
 <defs>
  <style type="text/css">*{stroke-linejoin: round; stroke-linecap: butt}</style>
 </defs>
 <g id="figure_1">
  <g id="patch_1">
   <path d="M 0 352.8 
L 349.026875 352.8 
L 349.026875 0 
L 0 0 
z
" style="fill: #ffffff"/>
  </g>
  <g id="axes_1">
   <g id="patch_2">
    <path d="M 65.54375 140.64375 
L 277.2 140.64375 
L 277.2 22.318125 
L 65.54375 22.318125 
z
" style="fill: #ffffff"/>
   </g>
   <g id="matplotlib.axis_1">
    <g id="xtick_1">
     <g id="line2d_1">
      <defs>
       <path id="m5ca0fa7b21" d="M 0 0 
L 0 3.5 
" style="stroke: #000000; stroke-width: 0.8"/>
      </defs>
      <g>
       <use xlink:href="#m5ca0fa7b21" x="75.164489" y="140.64375" style="stroke: #000000; stroke-width: 0.8"/>
      </g>
     </g>
     <g id="text_1">
      <text style="font: 10px 'DejaVu Sans', 'Bitstream Vera Sans', 'Computer Modern Sans Serif', 'Lucida Grande', 'Verdana', 'Geneva', 'Lucid', 'Arial', 'Helvetica', 'Avant Garde', sans-serif; text-anchor: middle" x="75.164489" y="155.242188" transform="rotate(-0 75.164489 155.242188)">0</text>
     </g>
    </g>
    <g id="xtick_2">
     <g id="line2d_2">
      <g>
       <use xlink:href="#m5ca0fa7b21" x="107.233617" y="140.64375" style="stroke: #000000; stroke-width: 0.8"/>
      </g>
     </g>
     <g id="text_2">
      <text style="font: 10px 'DejaVu Sans', 'Bitstream Vera Sans', 'Computer Modern Sans Serif', 'Lucida Grande', 'Verdana', 'Geneva', 'Lucid', 'Arial', 'Helvetica', 'Avant Garde', sans-serif; text-anchor: middle" x="107.233617" y="155.242188" transform="rotate(-0 107.233617 155.242188)">25</text>
     </g>
    </g>
    <g id="xtick_3">
     <g id="line2d_3">
      <g>
       <use xlink:href="#m5ca0fa7b21" x="139.302746" y="140.64375" style="stroke: #000000; stroke-width: 0.8"/>
      </g>
     </g>
     <g id="text_3">
      <text style="font: 10px 'DejaVu Sans', 'Bitstream Vera Sans', 'Computer Modern Sans Serif', 'Lucida Grande', 'Verdana', 'Geneva', 'Lucid', 'Arial', 'Helvetica', 'Avant Garde', sans-serif; text-anchor: middle" x="139.302746" y="155.242188" transform="rotate(-0 139.302746 155.242188)">50</text>
     </g>
    </g>
    <g id="xtick_4">
     <g id="line2d_4">
      <g>
       <use xlink:href="#m5ca0fa7b21" x="171.371875" y="140.64375" style="stroke: #000000; stroke-width: 0.8"/>
      </g>
     </g>
     <g id="text_4">
      <text style="font: 10px 'DejaVu Sans', 'Bitstream Vera Sans', 'Computer Modern Sans Serif', 'Lucida Grande', 'Verdana', 'Geneva', 'Lucid', 'Arial', 'Helvetica', 'Avant Garde', sans-serif; text-anchor: middle" x="171.371875" y="155.242188" transform="rotate(-0 171.371875 155.242188)">75</text>
     </g>
    </g>
    <g id="xtick_5">
     <g id="line2d_5">
      <g>
       <use xlink:href="#m5ca0fa7b21" x="203.441004" y="140.64375" style="stroke: #000000; stroke-width: 0.8"/>
      </g>
     </g>
     <g id="text_5">
      <text style="font: 10px 'DejaVu Sans', 'Bitstream Vera Sans', 'Computer Modern Sans Serif', 'Lucida Grande', 'Verdana', 'Geneva', 'Lucid', 'Arial', 'Helvetica', 'Avant Garde', sans-serif; text-anchor: middle" x="203.441004" y="155.242188" transform="rotate(-0 203.441004 155.242188)">100</text>
     </g>
    </g>
    <g id="xtick_6">
     <g id="line2d_6">
      <g>
       <use xlink:href="#m5ca0fa7b21" x="235.510133" y="140.64375" style="stroke: #000000; stroke-width: 0.8"/>
      </g>
     </g>
     <g id="text_6">
      <text style="font: 10px 'DejaVu Sans', 'Bitstream Vera Sans', 'Computer Modern Sans Serif', 'Lucida Grande', 'Verdana', 'Geneva', 'Lucid', 'Arial', 'Helvetica', 'Avant Garde', sans-serif; text-anchor: middle" x="235.510133" y="155.242188" transform="rotate(-0 235.510133 155.242188)">125</text>
     </g>
    </g>
    <g id="xtick_7">
     <g id="line2d_7">
      <g>
       <use xlink:href="#m5ca0fa7b21" x="267.579261" y="140.64375" style="stroke: #000000; stroke-width: 0.8"/>
      </g>
     </g>
     <g id="text_7">
      <text style="font: 10px 'DejaVu Sans', 'Bitstream Vera Sans', 'Computer Modern Sans Serif', 'Lucida Grande', 'Verdana', 'Geneva', 'Lucid', 'Arial', 'Helvetica', 'Avant Garde', sans-serif; text-anchor: middle" x="267.579261" y="155.242188" transform="rotate(-0 267.579261 155.242188)">150</text>
     </g>
    </g>
    <g id="text_8">
     <text style="font: 10px 'DejaVu Sans', 'Bitstream Vera Sans', 'Computer Modern Sans Serif', 'Lucida Grande', 'Verdana', 'Geneva', 'Lucid', 'Arial', 'Helvetica', 'Avant Garde', sans-serif; text-anchor: middle" x="171.371875" y="168.920312" transform="rotate(-0 171.371875 168.920312)">trial</text>
    </g>
   </g>
   <g id="matplotlib.axis_2">
    <g id="ytick_1">
     <g id="line2d_8">
      <defs>
       <path id="m4154fd4f11" d="M 0 0 
L -3.5 0 
" style="stroke: #000000; stroke-width: 0.8"/>
      </defs>
      <g>
       <use xlink:href="#m4154fd4f11" x="65.54375" y="135.265313" style="stroke: #000000; stroke-width: 0.8"/>
      </g>
     </g>
     <g id="text_9">
      <text style="font: 10px 'DejaVu Sans', 'Bitstream Vera Sans', 'Computer Modern Sans Serif', 'Lucida Grande', 'Verdana', 'Geneva', 'Lucid', 'Arial', 'Helvetica', 'Avant Garde', sans-serif; text-anchor: end" x="58.54375" y="139.064531" transform="rotate(-0 58.54375 139.064531)">0</text>
     </g>
    </g>
    <g id="ytick_2">
     <g id="line2d_9">
      <g>
       <use xlink:href="#m4154fd4f11" x="65.54375" y="109.029032" style="stroke: #000000; stroke-width: 0.8"/>
      </g>
     </g>
     <g id="text_10">
      <text style="font: 10px 'DejaVu Sans', 'Bitstream Vera Sans', 'Computer Modern Sans Serif', 'Lucida Grande', 'Verdana', 'Geneva', 'Lucid', 'Arial', 'Helvetica', 'Avant Garde', sans-serif; text-anchor: end" x="58.54375" y="112.828251" transform="rotate(-0 58.54375 112.828251)">100</text>
     </g>
    </g>
    <g id="ytick_3">
     <g id="line2d_10">
      <g>
       <use xlink:href="#m4154fd4f11" x="65.54375" y="82.792752" style="stroke: #000000; stroke-width: 0.8"/>
      </g>
     </g>
     <g id="text_11">
      <text style="font: 10px 'DejaVu Sans', 'Bitstream Vera Sans', 'Computer Modern Sans Serif', 'Lucida Grande', 'Verdana', 'Geneva', 'Lucid', 'Arial', 'Helvetica', 'Avant Garde', sans-serif; text-anchor: end" x="58.54375" y="86.59197" transform="rotate(-0 58.54375 86.59197)">200</text>
     </g>
    </g>
    <g id="ytick_4">
     <g id="line2d_11">
      <g>
       <use xlink:href="#m4154fd4f11" x="65.54375" y="56.556471" style="stroke: #000000; stroke-width: 0.8"/>
      </g>
     </g>
     <g id="text_12">
      <text style="font: 10px 'DejaVu Sans', 'Bitstream Vera Sans', 'Computer Modern Sans Serif', 'Lucida Grande', 'Verdana', 'Geneva', 'Lucid', 'Arial', 'Helvetica', 'Avant Garde', sans-serif; text-anchor: end" x="58.54375" y="60.35569" transform="rotate(-0 58.54375 60.35569)">300</text>
     </g>
    </g>
    <g id="ytick_5">
     <g id="line2d_12">
      <g>
       <use xlink:href="#m4154fd4f11" x="65.54375" y="30.320191" style="stroke: #000000; stroke-width: 0.8"/>
      </g>
     </g>
     <g id="text_13">
      <text style="font: 10px 'DejaVu Sans', 'Bitstream Vera Sans', 'Computer Modern Sans Serif', 'Lucida Grande', 'Verdana', 'Geneva', 'Lucid', 'Arial', 'Helvetica', 'Avant Garde', sans-serif; text-anchor: end" x="58.54375" y="34.119409" transform="rotate(-0 58.54375 34.119409)">400</text>
     </g>
    </g>
    <g id="text_14">
     <text style="font: 10px 'DejaVu Sans', 'Bitstream Vera Sans', 'Computer Modern Sans Serif', 'Lucida Grande', 'Verdana', 'Geneva', 'Lucid', 'Arial', 'Helvetica', 'Avant Garde', sans-serif; text-anchor: middle" x="33.376562" y="81.480937" transform="rotate(-90 33.376562 81.480937)">reward</text>
    </g>
   </g>
   <g id="line2d_13">
    <path d="M 75.164489 123.721349 
L 76.447254 135.265313 
L 77.730019 98.009794 
L 79.012784 93.549627 
L 80.295549 71.511151 
L 81.578314 93.549627 
L 82.86108 66.001532 
L 84.143845 135.265313 
L 85.42661 135.265313 
L 86.709375 116.899916 
L 87.99214 111.65266 
L 89.274905 135.265313 
L 90.55767 88.564733 
L 91.840436 80.431486 
L 93.123201 81.218575 
L 94.405966 94.599078 
L 95.688731 135.265313 
L 96.971496 111.915023 
L 98.254261 135.265313 
L 99.537027 135.265313 
L 100.819792 120.572995 
L 102.102557 108.241944 
L 103.385322 106.667767 
L 104.668087 135.265313 
L 105.950852 125.295526 
L 107.233617 111.65266 
L 108.516383 135.265313 
L 109.799148 110.865572 
L 111.081913 110.603209 
L 112.364678 108.766669 
L 113.647443 111.65266 
L 114.930208 135.265313 
L 116.212973 80.169123 
L 118.778504 135.265313 
L 121.344034 89.351822 
L 122.626799 109.029032 
L 123.909564 80.431486 
L 126.475095 135.265313 
L 127.75786 107.192492 
L 129.040625 109.81612 
L 130.32339 109.291395 
L 131.606155 27.696563 
L 132.88892 107.192492 
L 134.171686 135.265313 
L 135.454451 108.241944 
L 136.737216 65.476806 
L 138.019981 54.719931 
L 139.302746 56.818834 
L 140.585511 135.265313 
L 143.151042 135.265313 
L 144.433807 123.458986 
L 145.716572 115.063377 
L 146.999337 109.291395 
L 148.282102 108.241944 
L 149.564867 78.070221 
L 150.847633 108.766669 
L 152.130398 109.81612 
L 153.413163 135.265313 
L 154.695928 82.268026 
L 155.978693 61.016639 
L 157.261458 135.265313 
L 158.544223 135.265313 
L 159.826989 82.530389 
L 161.109754 111.65266 
L 162.392519 135.265313 
L 163.675284 108.241944 
L 164.958049 105.618316 
L 166.240814 135.265313 
L 167.52358 106.405404 
L 168.806345 105.618316 
L 170.08911 75.18423 
L 171.371875 98.009794 
L 172.65464 74.921867 
L 173.937405 135.265313 
L 175.22017 71.773514 
L 176.502936 135.265313 
L 177.785701 107.717218 
L 179.068466 106.667767 
L 180.351231 135.265313 
L 181.633996 135.265313 
L 182.916761 75.446593 
L 184.199527 82.792752 
L 185.482292 135.265313 
L 186.765057 135.265313 
L 188.047822 80.169123 
L 189.330587 80.169123 
L 190.613352 117.687005 
L 191.896117 110.603209 
L 193.178883 106.667767 
L 194.461648 135.265313 
L 195.744413 135.265313 
L 197.027178 112.439748 
L 198.309943 135.265313 
L 199.592708 111.915023 
L 200.875473 135.265313 
L 202.158239 122.671898 
L 203.441004 108.766669 
L 204.723769 73.085328 
L 206.006534 106.405404 
L 207.289299 105.618316 
L 208.572064 135.265313 
L 209.85483 79.906761 
L 211.137595 80.169123 
L 212.42036 113.226837 
L 213.703125 135.265313 
L 214.98589 108.504306 
L 216.268655 112.177386 
L 217.55142 135.265313 
L 218.834186 109.029032 
L 220.116951 135.265313 
L 221.399716 69.936974 
L 222.682481 107.979581 
L 223.965246 109.029032 
L 225.248011 106.405404 
L 226.530777 105.880678 
L 227.813542 135.265313 
L 229.096307 117.162279 
L 230.379072 135.265313 
L 231.661837 135.265313 
L 232.944602 113.4892 
L 234.227367 109.81612 
L 235.510133 83.317477 
L 236.792898 135.265313 
L 238.075663 108.766669 
L 239.358428 110.340846 
L 240.641193 135.265313 
L 241.923958 82.530389 
L 243.206723 82.268026 
L 244.489489 111.390297 
L 245.772254 135.265313 
L 247.055019 80.431486 
L 248.337784 110.865572 
L 249.620549 135.265313 
L 250.903314 129.493331 
L 252.18608 135.265313 
L 253.468845 135.265313 
L 254.75161 111.390297 
L 256.034375 108.504306 
L 257.31714 30.320191 
L 258.599905 135.265313 
L 259.88267 135.265313 
L 261.165436 88.827096 
L 262.448201 135.265313 
L 263.730966 108.766669 
L 265.013731 135.265313 
L 266.296496 122.934261 
L 267.579261 135.265313 
L 267.579261 135.265313 
" clip-path="url(#p9badb14517)" style="fill: none; stroke: #1f77b4; stroke-linecap: square"/>
   </g>
   <g id="line2d_14">
    <path d="M 75.164489 119.129755 
L 76.447254 135.265313 
L 77.730019 108.366406 
L 79.012784 100.94264 
L 80.295549 78.393496 
L 81.578314 104.03958 
L 82.86108 71.606551 
L 84.143845 135.265313 
L 86.709375 135.265313 
L 87.99214 116.685471 
L 89.274905 135.265313 
L 90.55767 113.906649 
L 91.840436 84.608096 
L 93.123201 93.189201 
L 94.405966 99.561701 
L 95.688731 135.265313 
L 99.537027 135.265313 
L 100.819792 72.749213 
L 102.102557 108.960831 
L 103.385322 108.915218 
L 104.668087 135.265313 
L 105.950852 134.204876 
L 107.233617 78.249641 
L 108.516383 135.265313 
L 109.799148 114.67248 
L 111.081913 120.876915 
L 112.364678 117.742641 
L 113.647443 61.603273 
L 114.930208 135.265313 
L 116.212973 97.0838 
L 117.495739 108.434997 
L 118.778504 135.265313 
L 121.344034 98.866991 
L 122.626799 124.909032 
L 123.909564 82.551467 
L 125.19233 112.762162 
L 126.475095 135.265313 
L 127.75786 111.849353 
L 129.040625 121.025666 
L 130.32339 116.28766 
L 131.606155 52.991365 
L 132.88892 123.724001 
L 134.171686 135.265313 
L 135.454451 132.552172 
L 136.737216 86.710906 
L 138.019981 103.533057 
L 139.302746 78.087723 
L 140.585511 135.265313 
L 143.151042 135.265313 
L 144.433807 89.820905 
L 145.716572 117.054853 
L 146.999337 121.032473 
L 148.282102 113.728874 
L 149.564867 92.515488 
L 150.847633 127.866368 
L 152.130398 124.050975 
L 153.413163 135.265313 
L 154.695928 99.883109 
L 155.978693 74.524332 
L 157.261458 135.265313 
L 158.544223 135.265313 
L 159.826989 89.69228 
L 162.392519 135.265313 
L 163.675284 126.255163 
L 164.958049 114.167901 
L 166.240814 135.265313 
L 167.52358 109.443624 
L 168.806345 126.080971 
L 170.08911 92.030636 
L 171.371875 119.409001 
L 172.65464 97.765419 
L 173.937405 135.265313 
L 175.22017 74.555313 
L 176.502936 135.265313 
L 177.785701 81.541361 
L 179.068466 62.161045 
L 180.351231 135.265313 
L 181.633996 135.265313 
L 182.916761 97.624453 
L 184.199527 109.4772 
L 185.482292 135.265313 
L 186.765057 135.265313 
L 188.047822 108.277674 
L 189.330587 92.412823 
L 190.613352 125.26059 
L 191.896117 119.858615 
L 193.178883 107.964526 
L 194.461648 135.265313 
L 195.744413 135.265313 
L 197.027178 118.368864 
L 198.309943 135.265313 
L 199.592708 116.940038 
L 200.875473 135.265313 
L 202.158239 123.909825 
L 203.441004 115.170364 
L 204.723769 93.290502 
L 206.006534 122.244438 
L 207.289299 112.688001 
L 208.572064 135.265313 
L 209.85483 135.265313 
L 211.137595 77.923411 
L 212.42036 74.771763 
L 213.703125 135.265313 
L 214.98589 111.431131 
L 216.268655 121.418244 
L 217.55142 135.265313 
L 218.834186 110.369147 
L 220.116951 135.265313 
L 221.399716 85.651089 
L 222.682481 110.257092 
L 223.965246 116.542575 
L 225.248011 107.651911 
L 226.530777 114.115308 
L 227.813542 135.265313 
L 230.379072 135.265313 
L 231.661837 102.150054 
L 232.944602 82.275096 
L 234.227367 131.034774 
L 235.510133 102.967496 
L 236.792898 135.265313 
L 238.075663 127.454189 
L 239.358428 129.097028 
L 240.641193 135.265313 
L 241.923958 86.384171 
L 243.206723 91.832641 
L 244.489489 78.248779 
L 245.772254 135.265313 
L 247.055019 87.10479 
L 248.337784 91.256222 
L 249.620549 135.265313 
L 253.468845 135.265313 
L 254.75161 118.204706 
L 256.034375 127.130971 
L 257.31714 52.519944 
L 258.599905 135.265313 
L 259.88267 135.265313 
L 261.165436 98.006988 
L 262.448201 135.265313 
L 263.730966 111.539648 
L 265.013731 135.265313 
L 266.296496 124.442409 
L 267.579261 135.265313 
L 267.579261 135.265313 
" clip-path="url(#p9badb14517)" style="fill: none; stroke: #ff7f0e; stroke-opacity: 0.5; stroke-linecap: square"/>
   </g>
   <g id="patch_3">
    <path d="M 65.54375 140.64375 
L 65.54375 22.318125 
" style="fill: none; stroke: #000000; stroke-width: 0.8; stroke-linejoin: miter; stroke-linecap: square"/>
   </g>
   <g id="patch_4">
    <path d="M 65.54375 140.64375 
L 277.2 140.64375 
" style="fill: none; stroke: #000000; stroke-width: 0.8; stroke-linejoin: miter; stroke-linecap: square"/>
   </g>
   <g id="text_15">
    <text style="font: 12px 'DejaVu Sans', 'Bitstream Vera Sans', 'Computer Modern Sans Serif', 'Lucida Grande', 'Verdana', 'Geneva', 'Lucid', 'Arial', 'Helvetica', 'Avant Garde', sans-serif; text-anchor: middle" x="171.371875" y="16.318125" transform="rotate(-0 171.371875 16.318125)">201910 - reward</text>
   </g>
   <g id="legend_1">
    <g id="line2d_15">
     <path d="M 285.433125 30.416562 
L 285.433125 30.416562 
L 285.433125 30.416562 
" style="fill: none; stroke: #1f77b4; stroke-linecap: square"/>
    </g>
    <g id="text_16">
     <text style="fill: #1f77b4; font: 10px 'DejaVu Sans', 'Bitstream Vera Sans', 'Computer Modern Sans Serif', 'Lucida Grande', 'Verdana', 'Geneva', 'Lucid', 'Arial', 'Helvetica', 'Avant Garde', sans-serif; text-anchor: start" x="288.433125" y="33.916562" transform="rotate(-0 288.433125 33.916562)">real</text>
    </g>
    <g id="line2d_16">
     <path d="M 285.433125 45.094688 
L 285.433125 45.094688 
L 285.433125 45.094688 
" style="fill: none; stroke: #ff7f0e; stroke-opacity: 0.5; stroke-linecap: square"/>
    </g>
    <g id="text_17">
     <text style="fill: #ff7f0e; font: 10px 'DejaVu Sans', 'Bitstream Vera Sans', 'Computer Modern Sans Serif', 'Lucida Grande', 'Verdana', 'Geneva', 'Lucid', 'Arial', 'Helvetica', 'Avant Garde', sans-serif; text-anchor: start" x="288.433125" y="48.594688" transform="rotate(-0 288.433125 48.594688)">simulated</text>
    </g>
   </g>
  </g>
  <g id="axes_2">
   <g id="patch_5">
    <path d="M 65.54375 315.24375 
L 277.2 315.24375 
L 277.2 196.918125 
L 65.54375 196.918125 
z
" style="fill: #ffffff"/>
   </g>
   <g id="matplotlib.axis_3">
    <g id="xtick_8">
     <g id="line2d_17">
      <g>
       <use xlink:href="#m5ca0fa7b21" x="75.164489" y="315.24375" style="stroke: #000000; stroke-width: 0.8"/>
      </g>
     </g>
     <g id="text_18">
      <text style="font: 10px 'DejaVu Sans', 'Bitstream Vera Sans', 'Computer Modern Sans Serif', 'Lucida Grande', 'Verdana', 'Geneva', 'Lucid', 'Arial', 'Helvetica', 'Avant Garde', sans-serif; text-anchor: middle" x="75.164489" y="329.842187" transform="rotate(-0 75.164489 329.842187)">0</text>
     </g>
    </g>
    <g id="xtick_9">
     <g id="line2d_18">
      <g>
       <use xlink:href="#m5ca0fa7b21" x="107.233617" y="315.24375" style="stroke: #000000; stroke-width: 0.8"/>
      </g>
     </g>
     <g id="text_19">
      <text style="font: 10px 'DejaVu Sans', 'Bitstream Vera Sans', 'Computer Modern Sans Serif', 'Lucida Grande', 'Verdana', 'Geneva', 'Lucid', 'Arial', 'Helvetica', 'Avant Garde', sans-serif; text-anchor: middle" x="107.233617" y="329.842187" transform="rotate(-0 107.233617 329.842187)">25</text>
     </g>
    </g>
    <g id="xtick_10">
     <g id="line2d_19">
      <g>
       <use xlink:href="#m5ca0fa7b21" x="139.302746" y="315.24375" style="stroke: #000000; stroke-width: 0.8"/>
      </g>
     </g>
     <g id="text_20">
      <text style="font: 10px 'DejaVu Sans', 'Bitstream Vera Sans', 'Computer Modern Sans Serif', 'Lucida Grande', 'Verdana', 'Geneva', 'Lucid', 'Arial', 'Helvetica', 'Avant Garde', sans-serif; text-anchor: middle" x="139.302746" y="329.842187" transform="rotate(-0 139.302746 329.842187)">50</text>
     </g>
    </g>
    <g id="xtick_11">
     <g id="line2d_20">
      <g>
       <use xlink:href="#m5ca0fa7b21" x="171.371875" y="315.24375" style="stroke: #000000; stroke-width: 0.8"/>
      </g>
     </g>
     <g id="text_21">
      <text style="font: 10px 'DejaVu Sans', 'Bitstream Vera Sans', 'Computer Modern Sans Serif', 'Lucida Grande', 'Verdana', 'Geneva', 'Lucid', 'Arial', 'Helvetica', 'Avant Garde', sans-serif; text-anchor: middle" x="171.371875" y="329.842187" transform="rotate(-0 171.371875 329.842187)">75</text>
     </g>
    </g>
    <g id="xtick_12">
     <g id="line2d_21">
      <g>
       <use xlink:href="#m5ca0fa7b21" x="203.441004" y="315.24375" style="stroke: #000000; stroke-width: 0.8"/>
      </g>
     </g>
     <g id="text_22">
      <text style="font: 10px 'DejaVu Sans', 'Bitstream Vera Sans', 'Computer Modern Sans Serif', 'Lucida Grande', 'Verdana', 'Geneva', 'Lucid', 'Arial', 'Helvetica', 'Avant Garde', sans-serif; text-anchor: middle" x="203.441004" y="329.842187" transform="rotate(-0 203.441004 329.842187)">100</text>
     </g>
    </g>
    <g id="xtick_13">
     <g id="line2d_22">
      <g>
       <use xlink:href="#m5ca0fa7b21" x="235.510133" y="315.24375" style="stroke: #000000; stroke-width: 0.8"/>
      </g>
     </g>
     <g id="text_23">
      <text style="font: 10px 'DejaVu Sans', 'Bitstream Vera Sans', 'Computer Modern Sans Serif', 'Lucida Grande', 'Verdana', 'Geneva', 'Lucid', 'Arial', 'Helvetica', 'Avant Garde', sans-serif; text-anchor: middle" x="235.510133" y="329.842187" transform="rotate(-0 235.510133 329.842187)">125</text>
     </g>
    </g>
    <g id="xtick_14">
     <g id="line2d_23">
      <g>
       <use xlink:href="#m5ca0fa7b21" x="267.579261" y="315.24375" style="stroke: #000000; stroke-width: 0.8"/>
      </g>
     </g>
     <g id="text_24">
      <text style="font: 10px 'DejaVu Sans', 'Bitstream Vera Sans', 'Computer Modern Sans Serif', 'Lucida Grande', 'Verdana', 'Geneva', 'Lucid', 'Arial', 'Helvetica', 'Avant Garde', sans-serif; text-anchor: middle" x="267.579261" y="329.842187" transform="rotate(-0 267.579261 329.842187)">150</text>
     </g>
    </g>
    <g id="text_25">
     <text style="font: 10px 'DejaVu Sans', 'Bitstream Vera Sans', 'Computer Modern Sans Serif', 'Lucida Grande', 'Verdana', 'Geneva', 'Lucid', 'Arial', 'Helvetica', 'Avant Garde', sans-serif; text-anchor: middle" x="171.371875" y="343.520312" transform="rotate(-0 171.371875 343.520312)">trial</text>
    </g>
   </g>
   <g id="matplotlib.axis_4">
    <g id="ytick_6">
     <g id="line2d_24">
      <g>
       <use xlink:href="#m4154fd4f11" x="65.54375" y="309.865312" style="stroke: #000000; stroke-width: 0.8"/>
      </g>
     </g>
     <g id="text_26">
      <text style="font: 10px 'DejaVu Sans', 'Bitstream Vera Sans', 'Computer Modern Sans Serif', 'Lucida Grande', 'Verdana', 'Geneva', 'Lucid', 'Arial', 'Helvetica', 'Avant Garde', sans-serif; text-anchor: end" x="58.54375" y="313.664531" transform="rotate(-0 58.54375 313.664531)">banked</text>
     </g>
    </g>
    <g id="ytick_7">
     <g id="line2d_25">
      <g>
       <use xlink:href="#m4154fd4f11" x="65.54375" y="202.296562" style="stroke: #000000; stroke-width: 0.8"/>
      </g>
     </g>
     <g id="text_27">
      <text style="font: 10px 'DejaVu Sans', 'Bitstream Vera Sans', 'Computer Modern Sans Serif', 'Lucida Grande', 'Verdana', 'Geneva', 'Lucid', 'Arial', 'Helvetica', 'Avant Garde', sans-serif; text-anchor: end" x="58.54375" y="206.095781" transform="rotate(-0 58.54375 206.095781)">popped</text>
     </g>
    </g>
    <g id="text_28">
     <text style="font: 10px 'DejaVu Sans', 'Bitstream Vera Sans', 'Computer Modern Sans Serif', 'Lucida Grande', 'Verdana', 'Geneva', 'Lucid', 'Arial', 'Helvetica', 'Avant Garde', sans-serif; text-anchor: middle" x="14.798438" y="256.080937" transform="rotate(-90 14.798438 256.080937)">result</text>
    </g>
   </g>
   <g id="line2d_26">
    <path d="M 75.164489 309.865312 
L 76.447254 202.296562 
L 77.730019 309.865312 
L 82.86108 309.865312 
L 84.143845 202.296562 
L 85.42661 202.296562 
L 86.709375 309.865312 
L 87.99214 309.865312 
L 89.274905 202.296562 
L 90.55767 309.865312 
L 94.405966 309.865312 
L 95.688731 202.296562 
L 96.971496 309.865312 
L 98.254261 202.296562 
L 99.537027 202.296562 
L 100.819792 309.865312 
L 103.385322 309.865312 
L 104.668087 202.296562 
L 105.950852 309.865312 
L 107.233617 309.865312 
L 108.516383 202.296562 
L 109.799148 309.865312 
L 113.647443 309.865312 
L 114.930208 202.296562 
L 116.212973 309.865312 
L 117.495739 309.865312 
L 118.778504 202.296562 
L 120.061269 309.865312 
L 125.19233 309.865312 
L 126.475095 202.296562 
L 127.75786 309.865312 
L 132.88892 309.865312 
L 134.171686 202.296562 
L 135.454451 309.865312 
L 139.302746 309.865312 
L 140.585511 202.296562 
L 143.151042 202.296562 
L 144.433807 309.865312 
L 152.130398 309.865312 
L 153.413163 202.296562 
L 154.695928 309.865312 
L 155.978693 309.865312 
L 157.261458 202.296562 
L 158.544223 202.296562 
L 159.826989 309.865312 
L 161.109754 309.865312 
L 162.392519 202.296562 
L 163.675284 309.865312 
L 164.958049 309.865312 
L 166.240814 202.296562 
L 167.52358 309.865312 
L 172.65464 309.865312 
L 173.937405 202.296562 
L 175.22017 309.865312 
L 176.502936 202.296562 
L 177.785701 309.865312 
L 179.068466 309.865312 
L 180.351231 202.296562 
L 181.633996 202.296562 
L 182.916761 309.865312 
L 184.199527 309.865312 
L 185.482292 202.296562 
L 186.765057 202.296562 
L 188.047822 309.865312 
L 193.178883 309.865312 
L 194.461648 202.296562 
L 195.744413 202.296562 
L 197.027178 309.865312 
L 198.309943 202.296562 
L 199.592708 309.865312 
L 200.875473 202.296562 
L 202.158239 309.865312 
L 207.289299 309.865312 
L 208.572064 202.296562 
L 209.85483 309.865312 
L 212.42036 309.865312 
L 213.703125 202.296562 
L 214.98589 309.865312 
L 216.268655 309.865312 
L 217.55142 202.296562 
L 218.834186 309.865312 
L 220.116951 202.296562 
L 221.399716 309.865312 
L 226.530777 309.865312 
L 227.813542 202.296562 
L 229.096307 309.865312 
L 230.379072 202.296562 
L 231.661837 309.865312 
L 235.510133 309.865312 
L 236.792898 202.296562 
L 238.075663 309.865312 
L 239.358428 309.865312 
L 240.641193 202.296562 
L 241.923958 309.865312 
L 244.489489 309.865312 
L 245.772254 202.296562 
L 247.055019 309.865312 
L 248.337784 309.865312 
L 249.620549 202.296562 
L 250.903314 309.865312 
L 252.18608 202.296562 
L 253.468845 202.296562 
L 254.75161 309.865312 
L 257.31714 309.865312 
L 258.599905 202.296562 
L 259.88267 202.296562 
L 261.165436 309.865312 
L 262.448201 202.296562 
L 263.730966 309.865312 
L 265.013731 202.296562 
L 266.296496 309.865312 
L 267.579261 202.296562 
L 267.579261 202.296562 
" clip-path="url(#pcb6b63bc69)" style="fill: none; stroke: #1f77b4; stroke-linecap: square"/>
   </g>
   <g id="line2d_27">
    <path d="M 75.164489 309.865312 
L 76.447254 202.296562 
L 77.730019 309.865312 
L 82.86108 309.865312 
L 84.143845 202.296562 
L 86.709375 202.296562 
L 87.99214 309.865312 
L 89.274905 202.296562 
L 90.55767 309.865312 
L 94.405966 309.865312 
L 95.688731 202.296562 
L 99.537027 202.296562 
L 100.819792 309.865312 
L 103.385322 309.865312 
L 104.668087 202.296562 
L 105.950852 309.865312 
L 107.233617 309.865312 
L 108.516383 202.296562 
L 109.799148 309.865312 
L 113.647443 309.865312 
L 114.930208 202.296562 
L 116.212973 309.865312 
L 117.495739 309.865312 
L 118.778504 202.296562 
L 120.061269 309.865312 
L 125.19233 309.865312 
L 126.475095 202.296562 
L 127.75786 309.865312 
L 132.88892 309.865312 
L 134.171686 202.296562 
L 135.454451 309.865312 
L 139.302746 309.865312 
L 140.585511 202.296562 
L 143.151042 202.296562 
L 144.433807 309.865312 
L 152.130398 309.865312 
L 153.413163 202.296562 
L 154.695928 309.865312 
L 155.978693 309.865312 
L 157.261458 202.296562 
L 158.544223 202.296562 
L 159.826989 309.865312 
L 161.109754 309.865312 
L 162.392519 202.296562 
L 163.675284 309.865312 
L 164.958049 309.865312 
L 166.240814 202.296562 
L 167.52358 309.865312 
L 172.65464 309.865312 
L 173.937405 202.296562 
L 175.22017 309.865312 
L 176.502936 202.296562 
L 177.785701 309.865312 
L 179.068466 309.865312 
L 180.351231 202.296562 
L 181.633996 202.296562 
L 182.916761 309.865312 
L 184.199527 309.865312 
L 185.482292 202.296562 
L 186.765057 202.296562 
L 188.047822 309.865312 
L 193.178883 309.865312 
L 194.461648 202.296562 
L 195.744413 202.296562 
L 197.027178 309.865312 
L 198.309943 202.296562 
L 199.592708 309.865312 
L 200.875473 202.296562 
L 202.158239 309.865312 
L 207.289299 309.865312 
L 208.572064 202.296562 
L 209.85483 202.296562 
L 211.137595 309.865312 
L 212.42036 309.865312 
L 213.703125 202.296562 
L 214.98589 309.865312 
L 216.268655 309.865312 
L 217.55142 202.296562 
L 218.834186 309.865312 
L 220.116951 202.296562 
L 221.399716 309.865312 
L 226.530777 309.865312 
L 227.813542 202.296562 
L 230.379072 202.296562 
L 231.661837 309.865312 
L 235.510133 309.865312 
L 236.792898 202.296562 
L 238.075663 309.865312 
L 239.358428 309.865312 
L 240.641193 202.296562 
L 241.923958 309.865312 
L 244.489489 309.865312 
L 245.772254 202.296562 
L 247.055019 309.865312 
L 248.337784 309.865312 
L 249.620549 202.296562 
L 253.468845 202.296562 
L 254.75161 309.865312 
L 257.31714 309.865312 
L 258.599905 202.296562 
L 259.88267 202.296562 
L 261.165436 309.865312 
L 262.448201 202.296562 
L 263.730966 309.865312 
L 265.013731 202.296562 
L 266.296496 309.865312 
L 267.579261 202.296562 
L 267.579261 202.296562 
" clip-path="url(#pcb6b63bc69)" style="fill: none; stroke: #ff7f0e; stroke-opacity: 0.5; stroke-linecap: square"/>
   </g>
   <g id="patch_6">
    <path d="M 65.54375 315.24375 
L 65.54375 196.918125 
" style="fill: none; stroke: #000000; stroke-width: 0.8; stroke-linejoin: miter; stroke-linecap: square"/>
   </g>
   <g id="patch_7">
    <path d="M 65.54375 315.24375 
L 277.2 315.24375 
" style="fill: none; stroke: #000000; stroke-width: 0.8; stroke-linejoin: miter; stroke-linecap: square"/>
   </g>
   <g id="text_29">
    <text style="font: 12px 'DejaVu Sans', 'Bitstream Vera Sans', 'Computer Modern Sans Serif', 'Lucida Grande', 'Verdana', 'Geneva', 'Lucid', 'Arial', 'Helvetica', 'Avant Garde', sans-serif; text-anchor: middle" x="171.371875" y="190.918125" transform="rotate(-0 171.371875 190.918125)">201910 - result</text>
   </g>
   <g id="legend_2">
    <g id="line2d_28">
     <path d="M 285.433125 205.016562 
L 285.433125 205.016562 
L 285.433125 205.016562 
" style="fill: none; stroke: #1f77b4; stroke-linecap: square"/>
    </g>
    <g id="text_30">
     <text style="fill: #1f77b4; font: 10px 'DejaVu Sans', 'Bitstream Vera Sans', 'Computer Modern Sans Serif', 'Lucida Grande', 'Verdana', 'Geneva', 'Lucid', 'Arial', 'Helvetica', 'Avant Garde', sans-serif; text-anchor: start" x="288.433125" y="208.516562" transform="rotate(-0 288.433125 208.516562)">real</text>
    </g>
    <g id="line2d_29">
     <path d="M 285.433125 219.694687 
L 285.433125 219.694687 
L 285.433125 219.694687 
" style="fill: none; stroke: #ff7f0e; stroke-opacity: 0.5; stroke-linecap: square"/>
    </g>
    <g id="text_31">
     <text style="fill: #ff7f0e; font: 10px 'DejaVu Sans', 'Bitstream Vera Sans', 'Computer Modern Sans Serif', 'Lucida Grande', 'Verdana', 'Geneva', 'Lucid', 'Arial', 'Helvetica', 'Avant Garde', sans-serif; text-anchor: start" x="288.433125" y="223.194687" transform="rotate(-0 288.433125 223.194687)">simulated</text>
    </g>
   </g>
  </g>
 </g>
 <defs>
  <clipPath id="p9badb14517">
   <rect x="65.54375" y="22.318125" width="211.65625" height="118.325625"/>
  </clipPath>
  <clipPath id="pcb6b63bc69">
   <rect x="65.54375" y="196.918125" width="211.65625" height="118.325625"/>
  </clipPath>
 </defs>
</svg>
