<?xml version="1.0" encoding="utf-8" standalone="no"?>
<!DOCTYPE svg PUBLIC "-//W3C//DTD SVG 1.1//EN"
  "http://www.w3.org/Graphics/SVG/1.1/DTD/svg11.dtd">
<svg xmlns:xlink="http://www.w3.org/1999/xlink" width="349.026875pt" height="352.8pt" viewBox="0 0 349.026875 352.8" xmlns="http://www.w3.org/2000/svg" version="1.1">
 <metadata>
  <rdf:RDF xmlns:dc="http://purl.org/dc/elements/1.1/" xmlns:cc="http://creativecommons.org/ns#" xmlns:rdf="http://www.w3.org/1999/02/22-rdf-syntax-ns#">
   <cc:Work>
    <dc:type rdf:resource="http://purl.org/dc/dcmitype/StillImage"/>
    <dc:date>2026-04-14T15:37:28.307324</dc:date>
    <dc:format>image/svg+xml</dc:format>
    <dc:creator>
     <cc:Agent>
      <dc:title>Matplotlib v3.9.2, https://matplotlib.org/</dc:title>
     </cc:Agent>
    </dc:creator>
   </cc:Work>
  </rdf:RDF>
 </metadata>
 <defs>
  <style type="text/css">*{stroke-linejoin: round; stroke-linecap: butt}</style>
 </defs>
 <g id="figure_1">
  <g id="patch_1">
   <path d="M 0 352.8 
L 349.026875 352.8 
L 349.026875 0 
L 0 0 
z
" style="fill: #ffffff"/>
  </g>
  <g id="axes_1">
   <g id="patch_2">
    <path d="M 65.54375 140.64375 
L 277.2 140.64375 
L 277.2 22.318125 
L 65.54375 22.318125 
z
" style="fill: #ffffff"/>
   </g>
   <g id="matplotlib.axis_1">
    <g id="xtick_1">
     <g id="line2d_1">
      <defs>
       <path id="ma20bba5d3d" d="M 0 0 
L 0 3.5 
" style="stroke: #000000; stroke-width: 0.8"/>
      </defs>
      <g>
       <use xlink:href="#ma20bba5d3d" x="75.164489" y="140.64375" style="stroke: #000000; stroke-width: 0.8"/>
      </g>
     </g>
     <g id="text_1">
      <text style="font: 10px 'DejaVu Sans', 'Bitstream Vera Sans', 'Computer Modern Sans Serif', 'Lucida Grande', 'Verdana', 'Geneva', 'Lucid', 'Arial', 'Helvetica', 'Avant Garde', sans-serif; text-anchor: middle" x="75.164489" y="155.242188" transform="rotate(-0 75.164489 155.242188)">0</text>
     </g>
    </g>
    <g id="xtick_2">
     <g id="line2d_2">
      <g>
       <use xlink:href="#ma20bba5d3d" x="107.448846" y="140.64375" style="stroke: #000000; stroke-width: 0.8"/>
      </g>
     </g>
     <g id="text_2">
      <text style="font: 10px 'DejaVu Sans', 'Bitstream Vera Sans', 'Computer Modern Sans Serif', 'Lucida Grande', 'Verdana', 'Geneva', 'Lucid', 'Arial', 'Helvetica', 'Avant Garde', sans-serif; text-anchor: middle" x="107.448846" y="155.242188" transform="rotate(-0 107.448846 155.242188)">25</text>
     </g>
    </g>
    <g id="xtick_3">
     <g id="line2d_3">
      <g>
       <use xlink:href="#ma20bba5d3d" x="139.733204" y="140.64375" style="stroke: #000000; stroke-width: 0.8"/>
      </g>
     </g>
     <g id="text_3">
      <text style="font: 10px 'DejaVu Sans', 'Bitstream Vera Sans', 'Computer Modern Sans Serif', 'Lucida Grande', 'Verdana', 'Geneva', 'Lucid', 'Arial', 'Helvetica', 'Avant Garde', sans-serif; text-anchor: middle" x="139.733204" y="155.242188" transform="rotate(-0 139.733204 155.242188)">50</text>
     </g>
    </g>
    <g id="xtick_4">
     <g id="line2d_4">
      <g>
       <use xlink:href="#ma20bba5d3d" x="172.017562" y="140.64375" style="stroke: #000000; stroke-width: 0.8"/>
      </g>
     </g>
     <g id="text_4">
      <text style="font: 10px 'DejaVu Sans', 'Bitstream Vera Sans', 'Computer Modern Sans Serif', 'Lucida Grande', 'Verdana', 'Geneva', 'Lucid', 'Arial', 'Helvetica', 'Avant Garde', sans-serif; text-anchor: middle" x="172.017562" y="155.242188" transform="rotate(-0 172.017562 155.242188)">75</text>
     </g>
    </g>
    <g id="xtick_5">
     <g id="line2d_5">
      <g>
       <use xlink:href="#ma20bba5d3d" x="204.30192" y="140.64375" style="stroke: #000000; stroke-width: 0.8"/>
      </g>
     </g>
     <g id="text_5">
      <text style="font: 10px 'DejaVu Sans', 'Bitstream Vera Sans', 'Computer Modern Sans Serif', 'Lucida Grande', 'Verdana', 'Geneva', 'Lucid', 'Arial', 'Helvetica', 'Avant Garde', sans-serif; text-anchor: middle" x="204.30192" y="155.242188" transform="rotate(-0 204.30192 155.242188)">100</text>
     </g>
    </g>
    <g id="xtick_6">
     <g id="line2d_6">
      <g>
       <use xlink:href="#ma20bba5d3d" x="236.586278" y="140.64375" style="stroke: #000000; stroke-width: 0.8"/>
      </g>
     </g>
     <g id="text_6">
      <text style="font: 10px 'DejaVu Sans', 'Bitstream Vera Sans', 'Computer Modern Sans Serif', 'Lucida Grande', 'Verdana', 'Geneva', 'Lucid', 'Arial', 'Helvetica', 'Avant Garde', sans-serif; text-anchor: middle" x="236.586278" y="155.242188" transform="rotate(-0 236.586278 155.242188)">125</text>
     </g>
    </g>
    <g id="xtick_7">
     <g id="line2d_7">
      <g>
       <use xlink:href="#ma20bba5d3d" x="268.870636" y="140.64375" style="stroke: #000000; stroke-width: 0.8"/>
      </g>
     </g>
     <g id="text_7">
      <text style="font: 10px 'DejaVu Sans', 'Bitstream Vera Sans', 'Computer Modern Sans Serif', 'Lucida Grande', 'Verdana', 'Geneva', 'Lucid', 'Arial', 'Helvetica', 'Avant Garde', sans-serif; text-anchor: middle" x="268.870636" y="155.242188" transform="rotate(-0 268.870636 155.242188)">150</text>
     </g>
    </g>
    <g id="text_8">
     <text style="font: 10px 'DejaVu Sans', 'Bitstream Vera Sans', 'Computer Modern Sans Serif', 'Lucida Grande', 'Verdana', 'Geneva', 'Lucid', 'Arial', 'Helvetica', 'Avant Garde', sans-serif; text-anchor: middle" x="171.371875" y="168.920312" transform="rotate(-0 171.371875 168.920312)">trial</text>
    </g>
   </g>
   <g id="matplotlib.axis_2">
    <g id="ytick_1">
     <g id="line2d_8">
      <defs>
       <path id="m1824f1c7c3" d="M 0 0 
L -3.5 0 
" style="stroke: #000000; stroke-width: 0.8"/>
      </defs>
      <g>
       <use xlink:href="#m1824f1c7c3" x="65.54375" y="135.265313" style="stroke: #000000; stroke-width: 0.8"/>
      </g>
     </g>
     <g id="text_9">
      <text style="font: 10px 'DejaVu Sans', 'Bitstream Vera Sans', 'Computer Modern Sans Serif', 'Lucida Grande', 'Verdana', 'Geneva', 'Lucid', 'Arial', 'Helvetica', 'Avant Garde', sans-serif; text-anchor: end" x="58.54375" y="139.064531" transform="rotate(-0 58.54375 139.064531)">0</text>
     </g>
    </g>
    <g id="ytick_2">
     <g id="line2d_9">
      <g>
       <use xlink:href="#m1824f1c7c3" x="65.54375" y="95.782333" style="stroke: #000000; stroke-width: 0.8"/>
      </g>
     </g>
     <g id="text_10">
      <text style="font: 10px 'DejaVu Sans', 'Bitstream Vera Sans', 'Computer Modern Sans Serif', 'Lucida Grande', 'Verdana', 'Geneva', 'Lucid', 'Arial', 'Helvetica', 'Avant Garde', sans-serif; text-anchor: end" x="58.54375" y="99.581552" transform="rotate(-0 58.54375 99.581552)">100</text>
     </g>
    </g>
    <g id="ytick_3">
     <g id="line2d_10">
      <g>
       <use xlink:href="#m1824f1c7c3" x="65.54375" y="56.299354" style="stroke: #000000; stroke-width: 0.8"/>
      </g>
     </g>
     <g id="text_11">
      <text style="font: 10px 'DejaVu Sans', 'Bitstream Vera Sans', 'Computer Modern Sans Serif', 'Lucida Grande', 'Verdana', 'Geneva', 'Lucid', 'Arial', 'Helvetica', 'Avant Garde', sans-serif; text-anchor: end" x="58.54375" y="60.098573" transform="rotate(-0 58.54375 60.098573)">200</text>
     </g>
    </g>
    <g id="text_12">
     <text style="font: 10px 'DejaVu Sans', 'Bitstream Vera Sans', 'Computer Modern Sans Serif', 'Lucida Grande', 'Verdana', 'Geneva', 'Lucid', 'Arial', 'Helvetica', 'Avant Garde', sans-serif; text-anchor: middle" x="33.376562" y="81.480937" transform="rotate(-90 33.376562 81.480937)">reward</text>
    </g>
   </g>
   <g id="line2d_11">
    <path d="M 75.164489 133.685993 
L 76.455863 41.295822 
L 77.747237 49.587248 
L 79.038612 103.678929 
L 80.329986 135.265313 
L 81.62136 111.970355 
L 82.912735 40.900993 
L 84.204109 123.815249 
L 85.495483 135.265313 
L 86.786857 111.575525 
L 88.078232 59.852822 
L 89.369606 51.956227 
L 90.66098 121.8411 
L 91.952355 115.523823 
L 93.243729 123.025589 
L 94.535103 118.287632 
L 95.826478 128.553206 
L 97.117852 121.8411 
L 98.409226 107.627227 
L 99.700601 112.365185 
L 100.991975 52.351056 
L 102.283349 48.402759 
L 103.574724 135.265313 
L 104.866098 109.206546 
L 106.157472 111.180695 
L 107.448846 112.760014 
L 108.740221 112.365185 
L 110.031595 95.387504 
L 111.322969 117.892802 
L 112.614344 121.44627 
L 113.905718 97.756482 
L 115.197092 107.232397 
L 116.488467 111.575525 
L 117.779841 135.265313 
L 119.071215 91.834036 
L 120.36259 117.497972 
L 121.653964 86.701248 
L 122.945338 99.730631 
L 124.236713 116.708312 
L 125.528087 103.284099 
L 126.819461 95.387504 
L 128.110835 94.597844 
L 129.40221 119.472121 
L 130.693584 108.022057 
L 131.984958 55.904525 
L 133.276333 102.88927 
L 134.567707 55.904525 
L 135.859081 96.571993 
L 137.150456 99.730631 
L 138.44183 106.837568 
L 139.733204 124.604908 
L 141.024579 106.442738 
L 142.315953 110.785865 
L 143.607327 135.265313 
L 144.898702 135.265313 
L 146.190076 98.151312 
L 147.48145 94.992674 
L 148.772825 110.785865 
L 150.064199 118.682461 
L 151.355573 111.970355 
L 152.646947 108.416887 
L 153.938322 119.472121 
L 155.229696 70.118397 
L 156.52107 87.096078 
L 157.812445 91.439206 
L 159.103819 87.885738 
L 160.395193 135.265313 
L 161.686568 102.88927 
L 162.977942 106.047908 
L 164.269316 105.653078 
L 165.560691 123.815249 
L 166.852065 102.09961 
L 168.143439 135.265313 
L 169.434814 111.180695 
L 170.726188 114.734163 
L 172.017562 60.642482 
L 173.308936 94.597844 
L 174.600311 112.365185 
L 175.891685 119.866951 
L 177.183059 118.287632 
L 178.474434 87.096078 
L 179.765808 112.365185 
L 181.057182 104.468589 
L 182.348557 74.461525 
L 183.639931 99.730631 
L 184.931305 92.228865 
L 186.22268 103.284099 
L 187.514054 87.490908 
L 188.805428 58.273503 
L 190.096803 53.535546 
L 191.388177 121.44627 
L 192.679551 104.863419 
L 193.970925 135.265313 
L 195.2623 52.351056 
L 196.553674 98.546142 
L 197.845048 135.265313 
L 199.136423 49.192418 
L 200.427797 123.025589 
L 201.719171 119.077291 
L 203.010546 108.022057 
L 204.30192 102.49444 
L 205.593294 103.284099 
L 206.884669 94.992674 
L 208.176043 109.996206 
L 209.467417 120.65661 
L 210.758792 119.472121 
L 212.050166 107.627227 
L 213.34154 119.077291 
L 214.632915 103.284099 
L 215.924289 110.391036 
L 217.215663 102.49444 
L 218.507037 101.309951 
L 219.798412 101.309951 
L 221.089786 110.785865 
L 222.38116 62.616631 
L 223.672535 111.180695 
L 224.963909 118.682461 
L 226.255283 87.096078 
L 227.546658 104.468589 
L 228.838032 116.708312 
L 230.129406 117.497972 
L 231.420781 123.420419 
L 232.712155 121.44627 
L 234.003529 117.892802 
L 235.294904 103.678929 
L 236.586278 52.745886 
L 237.877652 99.335802 
L 239.169026 123.420419 
L 240.460401 95.387504 
L 241.751775 101.309951 
L 243.043149 79.989142 
L 244.334524 74.461525 
L 245.625898 113.154844 
L 246.917272 124.999738 
L 248.208647 50.376908 
L 249.500021 124.604908 
L 250.791395 111.970355 
L 252.08277 135.265313 
L 253.374144 65.775269 
L 254.665518 103.284099 
L 255.956893 49.192418 
L 257.248267 49.587248 
L 258.539641 121.44627 
L 259.831015 48.797588 
L 261.12239 135.265313 
L 262.413764 44.84929 
L 263.705138 96.966823 
L 264.996513 117.892802 
L 266.287887 112.365185 
L 267.579261 52.745886 
L 267.579261 52.745886 
" clip-path="url(#p45b2fe14ca)" style="fill: none; stroke: #1f77b4; stroke-linecap: square"/>
   </g>
   <g id="line2d_12">
    <path d="M 75.164489 84.741065 
L 76.455863 45.672615 
L 77.747237 106.886972 
L 79.038612 129.398521 
L 80.329986 135.265313 
L 81.62136 113.284889 
L 82.912735 53.291599 
L 84.204109 96.711104 
L 85.495483 135.265313 
L 86.786857 127.753312 
L 88.078232 135.265313 
L 89.369606 87.091205 
L 90.66098 128.820538 
L 91.952355 127.279357 
L 93.243729 91.683774 
L 94.535103 120.095399 
L 95.826478 95.606886 
L 97.117852 134.149188 
L 98.409226 130.348592 
L 99.700601 113.536596 
L 100.991975 94.597955 
L 102.283349 80.594056 
L 103.574724 135.265313 
L 104.866098 126.882107 
L 106.157472 70.306003 
L 107.448846 135.265313 
L 108.740221 53.472762 
L 110.031595 111.799882 
L 111.322969 125.799358 
L 112.614344 135.265313 
L 113.905718 108.392431 
L 115.197092 27.696563 
L 116.488467 117.266752 
L 117.779841 135.265313 
L 119.071215 102.631909 
L 120.36259 126.680456 
L 121.653964 91.561877 
L 122.945338 81.524982 
L 124.236713 135.265313 
L 125.528087 125.329411 
L 126.819461 117.087437 
L 128.110835 118.644504 
L 129.40221 122.26144 
L 130.693584 135.265313 
L 131.984958 62.494203 
L 133.276333 135.265313 
L 134.567707 66.317975 
L 135.859081 69.974482 
L 137.150456 135.265313 
L 138.44183 135.265313 
L 139.733204 92.343444 
L 141.024579 119.950234 
L 142.315953 129.411334 
L 143.607327 135.265313 
L 144.898702 135.265313 
L 146.190076 124.603179 
L 147.48145 98.543378 
L 148.772825 112.997941 
L 150.064199 135.265313 
L 152.646947 116.234756 
L 153.938322 135.265313 
L 155.229696 95.911902 
L 156.52107 92.995421 
L 157.812445 96.189645 
L 159.103819 71.035336 
L 160.395193 135.265313 
L 164.269316 135.265313 
L 165.560691 131.366632 
L 166.852065 135.265313 
L 168.143439 135.265313 
L 169.434814 112.584657 
L 170.726188 124.835627 
L 172.017562 86.136576 
L 173.308936 135.265313 
L 174.600311 113.203801 
L 175.891685 135.265313 
L 177.183059 91.514883 
L 178.474434 120.061691 
L 179.765808 115.558037 
L 181.057182 132.878702 
L 182.348557 89.05916 
L 183.639931 117.55841 
L 184.931305 135.265313 
L 186.22268 135.265313 
L 187.514054 88.256508 
L 188.805428 111.456743 
L 190.096803 80.554225 
L 192.679551 135.265313 
L 193.970925 135.265313 
L 195.2623 61.38287 
L 196.553674 105.892099 
L 197.845048 135.265313 
L 199.136423 53.979385 
L 200.427797 131.565703 
L 201.719171 124.553834 
L 203.010546 135.265313 
L 204.30192 126.003347 
L 205.593294 57.063986 
L 206.884669 135.265313 
L 208.176043 135.265313 
L 209.467417 134.440125 
L 210.758792 121.681406 
L 212.050166 135.265313 
L 213.34154 127.157432 
L 214.632915 58.038157 
L 215.924289 135.265313 
L 217.215663 109.163622 
L 218.507037 127.761875 
L 219.798412 108.655794 
L 221.089786 135.265313 
L 222.38116 74.388773 
L 223.672535 53.192807 
L 224.963909 128.657169 
L 226.255283 135.265313 
L 227.546658 122.403238 
L 228.838032 123.048447 
L 230.129406 130.826192 
L 231.420781 74.758298 
L 232.712155 78.38387 
L 234.003529 135.025055 
L 235.294904 125.41632 
L 236.586278 55.254723 
L 237.877652 104.261808 
L 239.169026 87.134417 
L 240.460401 135.265313 
L 241.751775 121.387554 
L 243.043149 80.289915 
L 244.334524 91.148612 
L 245.625898 126.65435 
L 246.917272 135.265313 
L 248.208647 61.750182 
L 249.500021 135.265313 
L 252.08277 135.265313 
L 253.374144 74.777381 
L 254.665518 33.944041 
L 255.956893 132.262923 
L 257.248267 78.097567 
L 258.539641 125.116181 
L 259.831015 61.604843 
L 261.12239 135.265313 
L 262.413764 70.535503 
L 263.705138 133.313825 
L 264.996513 125.175821 
L 266.287887 134.947652 
L 267.579261 60.543237 
L 267.579261 60.543237 
" clip-path="url(#p45b2fe14ca)" style="fill: none; stroke: #ff7f0e; stroke-opacity: 0.5; stroke-linecap: square"/>
   </g>
   <g id="patch_3">
    <path d="M 65.54375 140.64375 
L 65.54375 22.318125 
" style="fill: none; stroke: #000000; stroke-width: 0.8; stroke-linejoin: miter; stroke-linecap: square"/>
   </g>
   <g id="patch_4">
    <path d="M 65.54375 140.64375 
L 277.2 140.64375 
" style="fill: none; stroke: #000000; stroke-width: 0.8; stroke-linejoin: miter; stroke-linecap: square"/>
   </g>
   <g id="text_13">
    <text style="font: 12px 'DejaVu Sans', 'Bitstream Vera Sans', 'Computer Modern Sans Serif', 'Lucida Grande', 'Verdana', 'Geneva', 'Lucid', 'Arial', 'Helvetica', 'Avant Garde', sans-serif; text-anchor: middle" x="171.371875" y="16.318125" transform="rotate(-0 171.371875 16.318125)">201902 - reward</text>
   </g>
   <g id="legend_1">
    <g id="line2d_13">
     <path d="M 285.433125 30.416562 
L 285.433125 30.416562 
L 285.433125 30.416562 
" style="fill: none; stroke: #1f77b4; stroke-linecap: square"/>
    </g>
    <g id="text_14">
     <text style="fill: #1f77b4; font: 10px 'DejaVu Sans', 'Bitstream Vera Sans', 'Computer Modern Sans Serif', 'Lucida Grande', 'Verdana', 'Geneva', 'Lucid', 'Arial', 'Helvetica', 'Avant Garde', sans-serif; text-anchor: start" x="288.433125" y="33.916562" transform="rotate(-0 288.433125 33.916562)">real</text>
    </g>
    <g id="line2d_14">
     <path d="M 285.433125 45.094688 
L 285.433125 45.094688 
L 285.433125 45.094688 
" style="fill: none; stroke: #ff7f0e; stroke-opacity: 0.5; stroke-linecap: square"/>
    </g>
    <g id="text_15">
     <text style="fill: #ff7f0e; font: 10px 'DejaVu Sans', 'Bitstream Vera Sans', 'Computer Modern Sans Serif', 'Lucida Grande', 'Verdana', 'Geneva', 'Lucid', 'Arial', 'Helvetica', 'Avant Garde', sans-serif; text-anchor: start" x="288.433125" y="48.594688" transform="rotate(-0 288.433125 48.594688)">simulated</text>
    </g>
   </g>
  </g>
  <g id="axes_2">
   <g id="patch_5">
    <path d="M 65.54375 315.24375 
L 277.2 315.24375 
L 277.2 196.918125 
L 65.54375 196.918125 
z
" style="fill: #ffffff"/>
   </g>
   <g id="matplotlib.axis_3">
    <g id="xtick_8">
     <g id="line2d_15">
      <g>
       <use xlink:href="#ma20bba5d3d" x="75.164489" y="315.24375" style="stroke: #000000; stroke-width: 0.8"/>
      </g>
     </g>
     <g id="text_16">
      <text style="font: 10px 'DejaVu Sans', 'Bitstream Vera Sans', 'Computer Modern Sans Serif', 'Lucida Grande', 'Verdana', 'Geneva', 'Lucid', 'Arial', 'Helvetica', 'Avant Garde', sans-serif; text-anchor: middle" x="75.164489" y="329.842187" transform="rotate(-0 75.164489 329.842187)">0</text>
     </g>
    </g>
    <g id="xtick_9">
     <g id="line2d_16">
      <g>
       <use xlink:href="#ma20bba5d3d" x="107.448846" y="315.24375" style="stroke: #000000; stroke-width: 0.8"/>
      </g>
     </g>
     <g id="text_17">
      <text style="font: 10px 'DejaVu Sans', 'Bitstream Vera Sans', 'Computer Modern Sans Serif', 'Lucida Grande', 'Verdana', 'Geneva', 'Lucid', 'Arial', 'Helvetica', 'Avant Garde', sans-serif; text-anchor: middle" x="107.448846" y="329.842187" transform="rotate(-0 107.448846 329.842187)">25</text>
     </g>
    </g>
    <g id="xtick_10">
     <g id="line2d_17">
      <g>
       <use xlink:href="#ma20bba5d3d" x="139.733204" y="315.24375" style="stroke: #000000; stroke-width: 0.8"/>
      </g>
     </g>
     <g id="text_18">
      <text style="font: 10px 'DejaVu Sans', 'Bitstream Vera Sans', 'Computer Modern Sans Serif', 'Lucida Grande', 'Verdana', 'Geneva', 'Lucid', 'Arial', 'Helvetica', 'Avant Garde', sans-serif; text-anchor: middle" x="139.733204" y="329.842187" transform="rotate(-0 139.733204 329.842187)">50</text>
     </g>
    </g>
    <g id="xtick_11">
     <g id="line2d_18">
      <g>
       <use xlink:href="#ma20bba5d3d" x="172.017562" y="315.24375" style="stroke: #000000; stroke-width: 0.8"/>
      </g>
     </g>
     <g id="text_19">
      <text style="font: 10px 'DejaVu Sans', 'Bitstream Vera Sans', 'Computer Modern Sans Serif', 'Lucida Grande', 'Verdana', 'Geneva', 'Lucid', 'Arial', 'Helvetica', 'Avant Garde', sans-serif; text-anchor: middle" x="172.017562" y="329.842187" transform="rotate(-0 172.017562 329.842187)">75</text>
     </g>
    </g>
    <g id="xtick_12">
     <g id="line2d_19">
      <g>
       <use xlink:href="#ma20bba5d3d" x="204.30192" y="315.24375" style="stroke: #000000; stroke-width: 0.8"/>
      </g>
     </g>
     <g id="text_20">
      <text style="font: 10px 'DejaVu Sans', 'Bitstream Vera Sans', 'Computer Modern Sans Serif', 'Lucida Grande', 'Verdana', 'Geneva', 'Lucid', 'Arial', 'Helvetica', 'Avant Garde', sans-serif; text-anchor: middle" x="204.30192" y="329.842187" transform="rotate(-0 204.30192 329.842187)">100</text>
     </g>
    </g>
    <g id="xtick_13">
     <g id="line2d_20">
      <g>
       <use xlink:href="#ma20bba5d3d" x="236.586278" y="315.24375" style="stroke: #000000; stroke-width: 0.8"/>
      </g>
     </g>
     <g id="text_21">
      <text style="font: 10px 'DejaVu Sans', 'Bitstream Vera Sans', 'Computer Modern Sans Serif', 'Lucida Grande', 'Verdana', 'Geneva', 'Lucid', 'Arial', 'Helvetica', 'Avant Garde', sans-serif; text-anchor: middle" x="236.586278" y="329.842187" transform="rotate(-0 236.586278 329.842187)">125</text>
     </g>
    </g>
    <g id="xtick_14">
     <g id="line2d_21">
      <g>
       <use xlink:href="#ma20bba5d3d" x="268.870636" y="315.24375" style="stroke: #000000; stroke-width: 0.8"/>
      </g>
     </g>
     <g id="text_22">
      <text style="font: 10px 'DejaVu Sans', 'Bitstream Vera Sans', 'Computer Modern Sans Serif', 'Lucida Grande', 'Verdana', 'Geneva', 'Lucid', 'Arial', 'Helvetica', 'Avant Garde', sans-serif; text-anchor: middle" x="268.870636" y="329.842187" transform="rotate(-0 268.870636 329.842187)">150</text>
     </g>
    </g>
    <g id="text_23">
     <text style="font: 10px 'DejaVu Sans', 'Bitstream Vera Sans', 'Computer Modern Sans Serif', 'Lucida Grande', 'Verdana', 'Geneva', 'Lucid', 'Arial', 'Helvetica', 'Avant Garde', sans-serif; text-anchor: middle" x="171.371875" y="343.520312" transform="rotate(-0 171.371875 343.520312)">trial</text>
    </g>
   </g>
   <g id="matplotlib.axis_4">
    <g id="ytick_4">
     <g id="line2d_22">
      <g>
       <use xlink:href="#m1824f1c7c3" x="65.54375" y="309.865312" style="stroke: #000000; stroke-width: 0.8"/>
      </g>
     </g>
     <g id="text_24">
      <text style="font: 10px 'DejaVu Sans', 'Bitstream Vera Sans', 'Computer Modern Sans Serif', 'Lucida Grande', 'Verdana', 'Geneva', 'Lucid', 'Arial', 'Helvetica', 'Avant Garde', sans-serif; text-anchor: end" x="58.54375" y="313.664531" transform="rotate(-0 58.54375 313.664531)">banked</text>
     </g>
    </g>
    <g id="ytick_5">
     <g id="line2d_23">
      <g>
       <use xlink:href="#m1824f1c7c3" x="65.54375" y="202.296562" style="stroke: #000000; stroke-width: 0.8"/>
      </g>
     </g>
     <g id="text_25">
      <text style="font: 10px 'DejaVu Sans', 'Bitstream Vera Sans', 'Computer Modern Sans Serif', 'Lucida Grande', 'Verdana', 'Geneva', 'Lucid', 'Arial', 'Helvetica', 'Avant Garde', sans-serif; text-anchor: end" x="58.54375" y="206.095781" transform="rotate(-0 58.54375 206.095781)">popped</text>
     </g>
    </g>
    <g id="text_26">
     <text style="font: 10px 'DejaVu Sans', 'Bitstream Vera Sans', 'Computer Modern Sans Serif', 'Lucida Grande', 'Verdana', 'Geneva', 'Lucid', 'Arial', 'Helvetica', 'Avant Garde', sans-serif; text-anchor: middle" x="14.798438" y="256.080937" transform="rotate(-90 14.798438 256.080937)">result</text>
    </g>
   </g>
   <g id="line2d_24">
    <path d="M 75.164489 309.865312 
L 79.038612 309.865312 
L 80.329986 202.296562 
L 81.62136 309.865312 
L 84.204109 309.865312 
L 85.495483 202.296562 
L 86.786857 309.865312 
L 102.283349 309.865312 
L 103.574724 202.296562 
L 104.866098 309.865312 
L 116.488467 309.865312 
L 117.779841 202.296562 
L 119.071215 309.865312 
L 142.315953 309.865312 
L 143.607327 202.296562 
L 144.898702 202.296562 
L 146.190076 309.865312 
L 159.103819 309.865312 
L 160.395193 202.296562 
L 161.686568 309.865312 
L 166.852065 309.865312 
L 168.143439 202.296562 
L 169.434814 309.865312 
L 192.679551 309.865312 
L 193.970925 202.296562 
L 195.2623 309.865312 
L 196.553674 309.865312 
L 197.845048 202.296562 
L 199.136423 309.865312 
L 250.791395 309.865312 
L 252.08277 202.296562 
L 253.374144 309.865312 
L 259.831015 309.865312 
L 261.12239 202.296562 
L 262.413764 309.865312 
L 267.579261 309.865312 
L 267.579261 309.865312 
" clip-path="url(#p36ee1d52b1)" style="fill: none; stroke: #1f77b4; stroke-linecap: square"/>
   </g>
   <g id="line2d_25">
    <path d="M 75.164489 309.865312 
L 79.038612 309.865312 
L 80.329986 202.296562 
L 81.62136 309.865312 
L 84.204109 309.865312 
L 85.495483 202.296562 
L 86.786857 309.865312 
L 88.078232 202.296562 
L 89.369606 309.865312 
L 102.283349 309.865312 
L 103.574724 202.296562 
L 104.866098 309.865312 
L 106.157472 309.865312 
L 107.448846 202.296562 
L 108.740221 309.865312 
L 111.322969 309.865312 
L 112.614344 202.296562 
L 113.905718 309.865312 
L 116.488467 309.865312 
L 117.779841 202.296562 
L 119.071215 309.865312 
L 122.945338 309.865312 
L 124.236713 202.296562 
L 125.528087 309.865312 
L 129.40221 309.865312 
L 130.693584 202.296562 
L 131.984958 309.865312 
L 133.276333 202.296562 
L 134.567707 309.865312 
L 135.859081 309.865312 
L 137.150456 202.296562 
L 138.44183 202.296562 
L 139.733204 309.865312 
L 142.315953 309.865312 
L 143.607327 202.296562 
L 144.898702 202.296562 
L 146.190076 309.865312 
L 148.772825 309.865312 
L 150.064199 202.296562 
L 151.355573 309.865312 
L 152.646947 309.865312 
L 153.938322 202.296562 
L 155.229696 309.865312 
L 159.103819 309.865312 
L 160.395193 202.296562 
L 164.269316 202.296562 
L 165.560691 309.865312 
L 166.852065 202.296562 
L 168.143439 202.296562 
L 169.434814 309.865312 
L 172.017562 309.865312 
L 173.308936 202.296562 
L 174.600311 309.865312 
L 175.891685 202.296562 
L 177.183059 309.865312 
L 183.639931 309.865312 
L 184.931305 202.296562 
L 186.22268 202.296562 
L 187.514054 309.865312 
L 191.388177 309.865312 
L 192.679551 202.296562 
L 193.970925 202.296562 
L 195.2623 309.865312 
L 196.553674 309.865312 
L 197.845048 202.296562 
L 199.136423 309.865312 
L 201.719171 309.865312 
L 203.010546 202.296562 
L 204.30192 309.865312 
L 205.593294 309.865312 
L 206.884669 202.296562 
L 208.176043 202.296562 
L 209.467417 309.865312 
L 210.758792 309.865312 
L 212.050166 202.296562 
L 213.34154 309.865312 
L 214.632915 309.865312 
L 215.924289 202.296562 
L 217.215663 309.865312 
L 219.798412 309.865312 
L 221.089786 202.296562 
L 222.38116 309.865312 
L 224.963909 309.865312 
L 226.255283 202.296562 
L 227.546658 309.865312 
L 239.169026 309.865312 
L 240.460401 202.296562 
L 241.751775 309.865312 
L 245.625898 309.865312 
L 246.917272 202.296562 
L 248.208647 309.865312 
L 249.500021 202.296562 
L 252.08277 202.296562 
L 253.374144 309.865312 
L 259.831015 309.865312 
L 261.12239 202.296562 
L 262.413764 309.865312 
L 267.579261 309.865312 
L 267.579261 309.865312 
" clip-path="url(#p36ee1d52b1)" style="fill: none; stroke: #ff7f0e; stroke-opacity: 0.5; stroke-linecap: square"/>
   </g>
   <g id="patch_6">
    <path d="M 65.54375 315.24375 
L 65.54375 196.918125 
" style="fill: none; stroke: #000000; stroke-width: 0.8; stroke-linejoin: miter; stroke-linecap: square"/>
   </g>
   <g id="patch_7">
    <path d="M 65.54375 315.24375 
L 277.2 315.24375 
" style="fill: none; stroke: #000000; stroke-width: 0.8; stroke-linejoin: miter; stroke-linecap: square"/>
   </g>
   <g id="text_27">
    <text style="font: 12px 'DejaVu Sans', 'Bitstream Vera Sans', 'Computer Modern Sans Serif', 'Lucida Grande', 'Verdana', 'Geneva', 'Lucid', 'Arial', 'Helvetica', 'Avant Garde', sans-serif; text-anchor: middle" x="171.371875" y="190.918125" transform="rotate(-0 171.371875 190.918125)">201902 - result</text>
   </g>
   <g id="legend_2">
    <g id="line2d_26">
     <path d="M 285.433125 205.016562 
L 285.433125 205.016562 
L 285.433125 205.016562 
" style="fill: none; stroke: #1f77b4; stroke-linecap: square"/>
    </g>
    <g id="text_28">
     <text style="fill: #1f77b4; font: 10px 'DejaVu Sans', 'Bitstream Vera Sans', 'Computer Modern Sans Serif', 'Lucida Grande', 'Verdana', 'Geneva', 'Lucid', 'Arial', 'Helvetica', 'Avant Garde', sans-serif; text-anchor: start" x="288.433125" y="208.516562" transform="rotate(-0 288.433125 208.516562)">real</text>
    </g>
    <g id="line2d_27">
     <path d="M 285.433125 219.694687 
L 285.433125 219.694687 
L 285.433125 219.694687 
" style="fill: none; stroke: #ff7f0e; stroke-opacity: 0.5; stroke-linecap: square"/>
    </g>
    <g id="text_29">
     <text style="fill: #ff7f0e; font: 10px 'DejaVu Sans', 'Bitstream Vera Sans', 'Computer Modern Sans Serif', 'Lucida Grande', 'Verdana', 'Geneva', 'Lucid', 'Arial', 'Helvetica', 'Avant Garde', sans-serif; text-anchor: start" x="288.433125" y="223.194687" transform="rotate(-0 288.433125 223.194687)">simulated</text>
    </g>
   </g>
  </g>
 </g>
 <defs>
  <clipPath id="p45b2fe14ca">
   <rect x="65.54375" y="22.318125" width="211.65625" height="118.325625"/>
  </clipPath>
  <clipPath id="p36ee1d52b1">
   <rect x="65.54375" y="196.918125" width="211.65625" height="118.325625"/>
  </clipPath>
 </defs>
</svg>
