<?xml version="1.0" encoding="utf-8" standalone="no"?>
<!DOCTYPE svg PUBLIC "-//W3C//DTD SVG 1.1//EN"
  "http://www.w3.org/Graphics/SVG/1.1/DTD/svg11.dtd">
<svg xmlns:xlink="http://www.w3.org/1999/xlink" width="349.026875pt" height="352.8pt" viewBox="0 0 349.026875 352.8" xmlns="http://www.w3.org/2000/svg" version="1.1">
 <metadata>
  <rdf:RDF xmlns:dc="http://purl.org/dc/elements/1.1/" xmlns:cc="http://creativecommons.org/ns#" xmlns:rdf="http://www.w3.org/1999/02/22-rdf-syntax-ns#">
   <cc:Work>
    <dc:type rdf:resource="http://purl.org/dc/dcmitype/StillImage"/>
    <dc:date>2026-04-14T15:37:48.150669</dc:date>
    <dc:format>image/svg+xml</dc:format>
    <dc:creator>
     <cc:Agent>
      <dc:title>Matplotlib v3.9.2, https://matplotlib.org/</dc:title>
     </cc:Agent>
    </dc:creator>
   </cc:Work>
  </rdf:RDF>
 </metadata>
 <defs>
  <style type="text/css">*{stroke-linejoin: round; stroke-linecap: butt}</style>
 </defs>
 <g id="figure_1">
  <g id="patch_1">
   <path d="M 0 352.8 
L 349.026875 352.8 
L 349.026875 0 
L 0 0 
z
" style="fill: #ffffff"/>
  </g>
  <g id="axes_1">
   <g id="patch_2">
    <path d="M 65.54375 140.64375 
L 277.2 140.64375 
L 277.2 22.318125 
L 65.54375 22.318125 
z
" style="fill: #ffffff"/>
   </g>
   <g id="matplotlib.axis_1">
    <g id="xtick_1">
     <g id="line2d_1">
      <defs>
       <path id="m165cbf553c" d="M 0 0 
L 0 3.5 
" style="stroke: #000000; stroke-width: 0.8"/>
      </defs>
      <g>
       <use xlink:href="#m165cbf553c" x="75.164489" y="140.64375" style="stroke: #000000; stroke-width: 0.8"/>
      </g>
     </g>
     <g id="text_1">
      <text style="font: 10px 'DejaVu Sans', 'Bitstream Vera Sans', 'Computer Modern Sans Serif', 'Lucida Grande', 'Verdana', 'Geneva', 'Lucid', 'Arial', 'Helvetica', 'Avant Garde', sans-serif; text-anchor: middle" x="75.164489" y="155.242188" transform="rotate(-0 75.164489 155.242188)">0</text>
     </g>
    </g>
    <g id="xtick_2">
     <g id="line2d_2">
      <g>
       <use xlink:href="#m165cbf553c" x="108.569831" y="140.64375" style="stroke: #000000; stroke-width: 0.8"/>
      </g>
     </g>
     <g id="text_2">
      <text style="font: 10px 'DejaVu Sans', 'Bitstream Vera Sans', 'Computer Modern Sans Serif', 'Lucida Grande', 'Verdana', 'Geneva', 'Lucid', 'Arial', 'Helvetica', 'Avant Garde', sans-serif; text-anchor: middle" x="108.569831" y="155.242188" transform="rotate(-0 108.569831 155.242188)">25</text>
     </g>
    </g>
    <g id="xtick_3">
     <g id="line2d_3">
      <g>
       <use xlink:href="#m165cbf553c" x="141.975174" y="140.64375" style="stroke: #000000; stroke-width: 0.8"/>
      </g>
     </g>
     <g id="text_3">
      <text style="font: 10px 'DejaVu Sans', 'Bitstream Vera Sans', 'Computer Modern Sans Serif', 'Lucida Grande', 'Verdana', 'Geneva', 'Lucid', 'Arial', 'Helvetica', 'Avant Garde', sans-serif; text-anchor: middle" x="141.975174" y="155.242188" transform="rotate(-0 141.975174 155.242188)">50</text>
     </g>
    </g>
    <g id="xtick_4">
     <g id="line2d_4">
      <g>
       <use xlink:href="#m165cbf553c" x="175.380516" y="140.64375" style="stroke: #000000; stroke-width: 0.8"/>
      </g>
     </g>
     <g id="text_4">
      <text style="font: 10px 'DejaVu Sans', 'Bitstream Vera Sans', 'Computer Modern Sans Serif', 'Lucida Grande', 'Verdana', 'Geneva', 'Lucid', 'Arial', 'Helvetica', 'Avant Garde', sans-serif; text-anchor: middle" x="175.380516" y="155.242188" transform="rotate(-0 175.380516 155.242188)">75</text>
     </g>
    </g>
    <g id="xtick_5">
     <g id="line2d_5">
      <g>
       <use xlink:href="#m165cbf553c" x="208.785859" y="140.64375" style="stroke: #000000; stroke-width: 0.8"/>
      </g>
     </g>
     <g id="text_5">
      <text style="font: 10px 'DejaVu Sans', 'Bitstream Vera Sans', 'Computer Modern Sans Serif', 'Lucida Grande', 'Verdana', 'Geneva', 'Lucid', 'Arial', 'Helvetica', 'Avant Garde', sans-serif; text-anchor: middle" x="208.785859" y="155.242188" transform="rotate(-0 208.785859 155.242188)">100</text>
     </g>
    </g>
    <g id="xtick_6">
     <g id="line2d_6">
      <g>
       <use xlink:href="#m165cbf553c" x="242.191201" y="140.64375" style="stroke: #000000; stroke-width: 0.8"/>
      </g>
     </g>
     <g id="text_6">
      <text style="font: 10px 'DejaVu Sans', 'Bitstream Vera Sans', 'Computer Modern Sans Serif', 'Lucida Grande', 'Verdana', 'Geneva', 'Lucid', 'Arial', 'Helvetica', 'Avant Garde', sans-serif; text-anchor: middle" x="242.191201" y="155.242188" transform="rotate(-0 242.191201 155.242188)">125</text>
     </g>
    </g>
    <g id="xtick_7">
     <g id="line2d_7">
      <g>
       <use xlink:href="#m165cbf553c" x="275.596544" y="140.64375" style="stroke: #000000; stroke-width: 0.8"/>
      </g>
     </g>
     <g id="text_7">
      <text style="font: 10px 'DejaVu Sans', 'Bitstream Vera Sans', 'Computer Modern Sans Serif', 'Lucida Grande', 'Verdana', 'Geneva', 'Lucid', 'Arial', 'Helvetica', 'Avant Garde', sans-serif; text-anchor: middle" x="275.596544" y="155.242188" transform="rotate(-0 275.596544 155.242188)">150</text>
     </g>
    </g>
    <g id="text_8">
     <text style="font: 10px 'DejaVu Sans', 'Bitstream Vera Sans', 'Computer Modern Sans Serif', 'Lucida Grande', 'Verdana', 'Geneva', 'Lucid', 'Arial', 'Helvetica', 'Avant Garde', sans-serif; text-anchor: middle" x="171.371875" y="168.920312" transform="rotate(-0 171.371875 168.920312)">trial</text>
    </g>
   </g>
   <g id="matplotlib.axis_2">
    <g id="ytick_1">
     <g id="line2d_8">
      <defs>
       <path id="md85012358b" d="M 0 0 
L -3.5 0 
" style="stroke: #000000; stroke-width: 0.8"/>
      </defs>
      <g>
       <use xlink:href="#md85012358b" x="65.54375" y="135.265313" style="stroke: #000000; stroke-width: 0.8"/>
      </g>
     </g>
     <g id="text_9">
      <text style="font: 10px 'DejaVu Sans', 'Bitstream Vera Sans', 'Computer Modern Sans Serif', 'Lucida Grande', 'Verdana', 'Geneva', 'Lucid', 'Arial', 'Helvetica', 'Avant Garde', sans-serif; text-anchor: end" x="58.54375" y="139.064531" transform="rotate(-0 58.54375 139.064531)">0</text>
     </g>
    </g>
    <g id="ytick_2">
     <g id="line2d_9">
      <g>
       <use xlink:href="#md85012358b" x="65.54375" y="93.892716" style="stroke: #000000; stroke-width: 0.8"/>
      </g>
     </g>
     <g id="text_10">
      <text style="font: 10px 'DejaVu Sans', 'Bitstream Vera Sans', 'Computer Modern Sans Serif', 'Lucida Grande', 'Verdana', 'Geneva', 'Lucid', 'Arial', 'Helvetica', 'Avant Garde', sans-serif; text-anchor: end" x="58.54375" y="97.691935" transform="rotate(-0 58.54375 97.691935)">100</text>
     </g>
    </g>
    <g id="ytick_3">
     <g id="line2d_10">
      <g>
       <use xlink:href="#md85012358b" x="65.54375" y="52.52012" style="stroke: #000000; stroke-width: 0.8"/>
      </g>
     </g>
     <g id="text_11">
      <text style="font: 10px 'DejaVu Sans', 'Bitstream Vera Sans', 'Computer Modern Sans Serif', 'Lucida Grande', 'Verdana', 'Geneva', 'Lucid', 'Arial', 'Helvetica', 'Avant Garde', sans-serif; text-anchor: end" x="58.54375" y="56.319339" transform="rotate(-0 58.54375 56.319339)">200</text>
     </g>
    </g>
    <g id="text_12">
     <text style="font: 10px 'DejaVu Sans', 'Bitstream Vera Sans', 'Computer Modern Sans Serif', 'Lucida Grande', 'Verdana', 'Geneva', 'Lucid', 'Arial', 'Helvetica', 'Avant Garde', sans-serif; text-anchor: middle" x="33.376562" y="81.480937" transform="rotate(-90 33.376562 81.480937)">reward</text>
    </g>
   </g>
   <g id="line2d_11">
    <path d="M 75.164489 95.54762 
L 76.500702 135.265313 
L 77.836916 48.796587 
L 79.17313 98.029976 
L 80.509343 135.265313 
L 81.845557 106.304495 
L 83.181771 59.967188 
L 84.517985 135.265313 
L 85.854198 86.445649 
L 87.190412 87.273101 
L 88.526626 49.624038 
L 89.862839 30.592644 
L 91.199053 114.579014 
L 92.535267 86.031923 
L 93.87148 103.408413 
L 95.207694 100.512332 
L 96.543908 135.265313 
L 99.216335 88.514279 
L 100.552549 86.445649 
L 101.888763 135.265313 
L 103.224976 49.624038 
L 104.56119 39.280889 
L 105.897404 89.755457 
L 107.233617 135.265313 
L 108.569831 135.265313 
L 109.906045 89.755457 
L 111.242259 90.582909 
L 112.578472 102.167236 
L 113.914686 96.788798 
L 115.2509 57.898558 
L 116.587113 90.169183 
L 117.923327 100.926058 
L 119.259541 98.857428 
L 120.595754 83.963293 
L 121.931968 135.265313 
L 123.268182 135.265313 
L 124.604396 93.47899 
L 125.940609 40.522067 
L 127.276823 47.969135 
L 128.613037 90.582909 
L 129.94925 89.341731 
L 131.285464 106.304495 
L 132.621678 90.169183 
L 133.957891 27.696563 
L 135.294105 39.694615 
L 136.630319 88.100553 
L 137.966533 45.486779 
L 139.302746 135.265313 
L 140.63896 46.727957 
L 143.311387 135.265313 
L 144.647601 135.265313 
L 145.983815 79.412308 
L 147.320028 83.549567 
L 148.656242 42.176971 
L 149.992456 40.935793 
L 151.32867 93.892716 
L 152.664883 89.341731 
L 154.001097 71.551514 
L 155.337311 135.265313 
L 156.673524 135.265313 
L 158.009738 47.141683 
L 159.345952 81.480938 
L 160.682165 76.1025 
L 162.018379 39.280889 
L 163.354593 135.265313 
L 166.02702 135.265313 
L 167.363234 41.349519 
L 168.699448 98.029976 
L 170.035661 43.831875 
L 171.371875 135.265313 
L 172.708089 135.265313 
L 174.044302 95.54762 
L 175.380516 46.314231 
L 176.71673 76.516226 
L 178.052943 90.169183 
L 179.389157 90.169183 
L 180.725371 135.265313 
L 182.061585 38.453438 
L 183.397798 135.265313 
L 184.734012 82.308389 
L 186.070226 35.14363 
L 188.742653 135.265313 
L 190.078867 42.590697 
L 191.41508 83.135841 
L 192.751294 39.694615 
L 194.087508 39.694615 
L 195.423722 90.582909 
L 196.759935 135.265313 
L 198.096149 135.265313 
L 199.432363 41.349519 
L 200.768576 84.377019 
L 202.10479 93.065264 
L 203.441004 31.833822 
L 204.777217 97.61625 
L 206.113431 135.265313 
L 207.449645 88.928005 
L 208.785859 90.169183 
L 210.122072 83.549567 
L 211.458286 38.453438 
L 214.130713 135.265313 
L 215.466927 135.265313 
L 216.803141 38.453438 
L 218.139354 96.788798 
L 219.475568 40.935793 
L 220.811782 43.004423 
L 222.147996 37.625986 
L 223.484209 31.420096 
L 224.820423 83.549567 
L 226.156637 89.341731 
L 227.49285 41.763245 
L 228.829064 87.273101 
L 230.165278 98.029976 
L 231.501491 37.625986 
L 232.837705 81.067212 
L 234.173919 135.265313 
L 235.510133 135.265313 
L 236.846346 78.17113 
L 238.18256 89.755457 
L 239.518774 83.135841 
L 240.854987 86.445649 
L 242.191201 135.265313 
L 243.527415 84.790745 
L 244.863628 135.265313 
L 246.199842 135.265313 
L 247.536056 84.790745 
L 248.87227 84.790745 
L 250.208483 83.963293 
L 251.544697 135.265313 
L 254.217124 135.265313 
L 255.553338 98.029976 
L 256.889552 83.135841 
L 258.225765 102.580962 
L 259.561979 40.108341 
L 260.898193 90.169183 
L 262.234407 135.265313 
L 263.57062 43.831875 
L 264.906834 94.720168 
L 266.243048 135.265313 
L 267.579261 41.763245 
L 267.579261 41.763245 
" clip-path="url(#p7e66c9d9c5)" style="fill: none; stroke: #1f77b4; stroke-linecap: square"/>
   </g>
   <g id="line2d_12">
    <path d="M 75.164489 94.699213 
L 76.500702 135.265313 
L 77.836916 68.65484 
L 79.17313 99.274498 
L 80.509343 135.265313 
L 81.845557 127.195975 
L 83.181771 81.590119 
L 84.517985 135.265313 
L 85.854198 110.7515 
L 87.190412 91.452016 
L 88.526626 60.303934 
L 89.862839 37.546518 
L 91.199053 129.718533 
L 92.535267 101.384823 
L 93.87148 107.803964 
L 95.207694 109.826145 
L 96.543908 135.265313 
L 97.880122 114.472796 
L 99.216335 117.639613 
L 100.552549 87.531191 
L 101.888763 135.265313 
L 103.224976 94.018113 
L 104.56119 96.79574 
L 105.897404 129.250682 
L 107.233617 135.265313 
L 108.569831 135.265313 
L 109.906045 101.977507 
L 111.242259 92.729863 
L 112.578472 114.426988 
L 113.914686 107.6666 
L 115.2509 76.017705 
L 116.587113 101.356436 
L 117.923327 120.386478 
L 119.259541 108.958962 
L 120.595754 107.07272 
L 121.931968 135.265313 
L 123.268182 135.265313 
L 124.604396 111.373572 
L 125.940609 77.441462 
L 127.276823 88.777779 
L 128.613037 117.717055 
L 129.94925 118.282876 
L 131.285464 109.482151 
L 132.621678 112.42191 
L 133.957891 66.130439 
L 135.294105 106.105033 
L 137.966533 89.49079 
L 139.302746 135.265313 
L 140.63896 50.062454 
L 143.311387 135.265313 
L 144.647601 135.265313 
L 145.983815 83.664138 
L 147.320028 84.164925 
L 148.656242 76.139431 
L 149.992456 59.311515 
L 151.32867 97.624126 
L 152.664883 105.454129 
L 154.001097 82.074558 
L 155.337311 135.265313 
L 156.673524 135.265313 
L 158.009738 116.273961 
L 159.345952 101.820437 
L 160.682165 103.470072 
L 162.018379 47.989734 
L 163.354593 135.265313 
L 166.02702 135.265313 
L 167.363234 79.838401 
L 168.699448 132.821501 
L 170.035661 105.656685 
L 171.371875 135.265313 
L 172.708089 135.265313 
L 174.044302 98.317334 
L 175.380516 64.761757 
L 176.71673 135.265313 
L 178.052943 129.464741 
L 179.389157 109.891417 
L 180.725371 135.265313 
L 182.061585 61.018927 
L 183.397798 135.265313 
L 184.734012 84.250076 
L 186.070226 78.333391 
L 187.406439 98.972623 
L 188.742653 135.265313 
L 190.078867 91.374159 
L 191.41508 105.780726 
L 192.751294 53.612577 
L 194.087508 56.884428 
L 195.423722 90.840556 
L 196.759935 135.265313 
L 198.096149 135.265313 
L 199.432363 79.3558 
L 200.768576 86.629822 
L 202.10479 108.734576 
L 203.441004 47.071381 
L 204.777217 112.902174 
L 206.113431 135.265313 
L 207.449645 97.18532 
L 208.785859 125.49729 
L 210.122072 93.359296 
L 211.458286 55.811351 
L 212.7945 85.562383 
L 214.130713 135.265313 
L 215.466927 135.265313 
L 216.803141 61.835761 
L 218.139354 106.846272 
L 219.475568 58.595161 
L 220.811782 79.239973 
L 222.147996 47.587078 
L 223.484209 65.806726 
L 224.820423 109.399493 
L 226.156637 129.782729 
L 227.49285 135.265313 
L 228.829064 100.843324 
L 230.165278 100.231476 
L 231.501491 40.372342 
L 232.837705 81.854762 
L 234.173919 135.265313 
L 235.510133 135.265313 
L 236.846346 81.559453 
L 238.18256 94.107121 
L 239.518774 86.629847 
L 240.854987 118.256603 
L 242.191201 135.265313 
L 243.527415 92.343113 
L 244.863628 135.265313 
L 246.199842 135.265313 
L 247.536056 91.744863 
L 248.87227 90.799584 
L 250.208483 116.81809 
L 251.544697 135.265313 
L 254.217124 135.265313 
L 255.553338 100.708066 
L 256.889552 105.97476 
L 258.225765 118.293971 
L 259.561979 49.623298 
L 260.898193 55.684139 
L 262.234407 135.265313 
L 263.57062 84.586114 
L 264.906834 100.284067 
L 266.243048 135.265313 
L 267.579261 83.411846 
L 267.579261 83.411846 
" clip-path="url(#p7e66c9d9c5)" style="fill: none; stroke: #ff7f0e; stroke-opacity: 0.5; stroke-linecap: square"/>
   </g>
   <g id="patch_3">
    <path d="M 65.54375 140.64375 
L 65.54375 22.318125 
" style="fill: none; stroke: #000000; stroke-width: 0.8; stroke-linejoin: miter; stroke-linecap: square"/>
   </g>
   <g id="patch_4">
    <path d="M 65.54375 140.64375 
L 277.2 140.64375 
" style="fill: none; stroke: #000000; stroke-width: 0.8; stroke-linejoin: miter; stroke-linecap: square"/>
   </g>
   <g id="text_13">
    <text style="font: 12px 'DejaVu Sans', 'Bitstream Vera Sans', 'Computer Modern Sans Serif', 'Lucida Grande', 'Verdana', 'Geneva', 'Lucid', 'Arial', 'Helvetica', 'Avant Garde', sans-serif; text-anchor: middle" x="171.371875" y="16.318125" transform="rotate(-0 171.371875 16.318125)">202114 - reward</text>
   </g>
   <g id="legend_1">
    <g id="line2d_13">
     <path d="M 285.433125 30.416562 
L 285.433125 30.416562 
L 285.433125 30.416562 
" style="fill: none; stroke: #1f77b4; stroke-linecap: square"/>
    </g>
    <g id="text_14">
     <text style="fill: #1f77b4; font: 10px 'DejaVu Sans', 'Bitstream Vera Sans', 'Computer Modern Sans Serif', 'Lucida Grande', 'Verdana', 'Geneva', 'Lucid', 'Arial', 'Helvetica', 'Avant Garde', sans-serif; text-anchor: start" x="288.433125" y="33.916562" transform="rotate(-0 288.433125 33.916562)">real</text>
    </g>
    <g id="line2d_14">
     <path d="M 285.433125 45.094688 
L 285.433125 45.094688 
L 285.433125 45.094688 
" style="fill: none; stroke: #ff7f0e; stroke-opacity: 0.5; stroke-linecap: square"/>
    </g>
    <g id="text_15">
     <text style="fill: #ff7f0e; font: 10px 'DejaVu Sans', 'Bitstream Vera Sans', 'Computer Modern Sans Serif', 'Lucida Grande', 'Verdana', 'Geneva', 'Lucid', 'Arial', 'Helvetica', 'Avant Garde', sans-serif; text-anchor: start" x="288.433125" y="48.594688" transform="rotate(-0 288.433125 48.594688)">simulated</text>
    </g>
   </g>
  </g>
  <g id="axes_2">
   <g id="patch_5">
    <path d="M 65.54375 315.24375 
L 277.2 315.24375 
L 277.2 196.918125 
L 65.54375 196.918125 
z
" style="fill: #ffffff"/>
   </g>
   <g id="matplotlib.axis_3">
    <g id="xtick_8">
     <g id="line2d_15">
      <g>
       <use xlink:href="#m165cbf553c" x="75.164489" y="315.24375" style="stroke: #000000; stroke-width: 0.8"/>
      </g>
     </g>
     <g id="text_16">
      <text style="font: 10px 'DejaVu Sans', 'Bitstream Vera Sans', 'Computer Modern Sans Serif', 'Lucida Grande', 'Verdana', 'Geneva', 'Lucid', 'Arial', 'Helvetica', 'Avant Garde', sans-serif; text-anchor: middle" x="75.164489" y="329.842187" transform="rotate(-0 75.164489 329.842187)">0</text>
     </g>
    </g>
    <g id="xtick_9">
     <g id="line2d_16">
      <g>
       <use xlink:href="#m165cbf553c" x="108.569831" y="315.24375" style="stroke: #000000; stroke-width: 0.8"/>
      </g>
     </g>
     <g id="text_17">
      <text style="font: 10px 'DejaVu Sans', 'Bitstream Vera Sans', 'Computer Modern Sans Serif', 'Lucida Grande', 'Verdana', 'Geneva', 'Lucid', 'Arial', 'Helvetica', 'Avant Garde', sans-serif; text-anchor: middle" x="108.569831" y="329.842187" transform="rotate(-0 108.569831 329.842187)">25</text>
     </g>
    </g>
    <g id="xtick_10">
     <g id="line2d_17">
      <g>
       <use xlink:href="#m165cbf553c" x="141.975174" y="315.24375" style="stroke: #000000; stroke-width: 0.8"/>
      </g>
     </g>
     <g id="text_18">
      <text style="font: 10px 'DejaVu Sans', 'Bitstream Vera Sans', 'Computer Modern Sans Serif', 'Lucida Grande', 'Verdana', 'Geneva', 'Lucid', 'Arial', 'Helvetica', 'Avant Garde', sans-serif; text-anchor: middle" x="141.975174" y="329.842187" transform="rotate(-0 141.975174 329.842187)">50</text>
     </g>
    </g>
    <g id="xtick_11">
     <g id="line2d_18">
      <g>
       <use xlink:href="#m165cbf553c" x="175.380516" y="315.24375" style="stroke: #000000; stroke-width: 0.8"/>
      </g>
     </g>
     <g id="text_19">
      <text style="font: 10px 'DejaVu Sans', 'Bitstream Vera Sans', 'Computer Modern Sans Serif', 'Lucida Grande', 'Verdana', 'Geneva', 'Lucid', 'Arial', 'Helvetica', 'Avant Garde', sans-serif; text-anchor: middle" x="175.380516" y="329.842187" transform="rotate(-0 175.380516 329.842187)">75</text>
     </g>
    </g>
    <g id="xtick_12">
     <g id="line2d_19">
      <g>
       <use xlink:href="#m165cbf553c" x="208.785859" y="315.24375" style="stroke: #000000; stroke-width: 0.8"/>
      </g>
     </g>
     <g id="text_20">
      <text style="font: 10px 'DejaVu Sans', 'Bitstream Vera Sans', 'Computer Modern Sans Serif', 'Lucida Grande', 'Verdana', 'Geneva', 'Lucid', 'Arial', 'Helvetica', 'Avant Garde', sans-serif; text-anchor: middle" x="208.785859" y="329.842187" transform="rotate(-0 208.785859 329.842187)">100</text>
     </g>
    </g>
    <g id="xtick_13">
     <g id="line2d_20">
      <g>
       <use xlink:href="#m165cbf553c" x="242.191201" y="315.24375" style="stroke: #000000; stroke-width: 0.8"/>
      </g>
     </g>
     <g id="text_21">
      <text style="font: 10px 'DejaVu Sans', 'Bitstream Vera Sans', 'Computer Modern Sans Serif', 'Lucida Grande', 'Verdana', 'Geneva', 'Lucid', 'Arial', 'Helvetica', 'Avant Garde', sans-serif; text-anchor: middle" x="242.191201" y="329.842187" transform="rotate(-0 242.191201 329.842187)">125</text>
     </g>
    </g>
    <g id="xtick_14">
     <g id="line2d_21">
      <g>
       <use xlink:href="#m165cbf553c" x="275.596544" y="315.24375" style="stroke: #000000; stroke-width: 0.8"/>
      </g>
     </g>
     <g id="text_22">
      <text style="font: 10px 'DejaVu Sans', 'Bitstream Vera Sans', 'Computer Modern Sans Serif', 'Lucida Grande', 'Verdana', 'Geneva', 'Lucid', 'Arial', 'Helvetica', 'Avant Garde', sans-serif; text-anchor: middle" x="275.596544" y="329.842187" transform="rotate(-0 275.596544 329.842187)">150</text>
     </g>
    </g>
    <g id="text_23">
     <text style="font: 10px 'DejaVu Sans', 'Bitstream Vera Sans', 'Computer Modern Sans Serif', 'Lucida Grande', 'Verdana', 'Geneva', 'Lucid', 'Arial', 'Helvetica', 'Avant Garde', sans-serif; text-anchor: middle" x="171.371875" y="343.520312" transform="rotate(-0 171.371875 343.520312)">trial</text>
    </g>
   </g>
   <g id="matplotlib.axis_4">
    <g id="ytick_4">
     <g id="line2d_22">
      <g>
       <use xlink:href="#md85012358b" x="65.54375" y="309.865312" style="stroke: #000000; stroke-width: 0.8"/>
      </g>
     </g>
     <g id="text_24">
      <text style="font: 10px 'DejaVu Sans', 'Bitstream Vera Sans', 'Computer Modern Sans Serif', 'Lucida Grande', 'Verdana', 'Geneva', 'Lucid', 'Arial', 'Helvetica', 'Avant Garde', sans-serif; text-anchor: end" x="58.54375" y="313.664531" transform="rotate(-0 58.54375 313.664531)">banked</text>
     </g>
    </g>
    <g id="ytick_5">
     <g id="line2d_23">
      <g>
       <use xlink:href="#md85012358b" x="65.54375" y="202.296562" style="stroke: #000000; stroke-width: 0.8"/>
      </g>
     </g>
     <g id="text_25">
      <text style="font: 10px 'DejaVu Sans', 'Bitstream Vera Sans', 'Computer Modern Sans Serif', 'Lucida Grande', 'Verdana', 'Geneva', 'Lucid', 'Arial', 'Helvetica', 'Avant Garde', sans-serif; text-anchor: end" x="58.54375" y="206.095781" transform="rotate(-0 58.54375 206.095781)">popped</text>
     </g>
    </g>
    <g id="text_26">
     <text style="font: 10px 'DejaVu Sans', 'Bitstream Vera Sans', 'Computer Modern Sans Serif', 'Lucida Grande', 'Verdana', 'Geneva', 'Lucid', 'Arial', 'Helvetica', 'Avant Garde', sans-serif; text-anchor: middle" x="14.798438" y="256.080937" transform="rotate(-90 14.798438 256.080937)">result</text>
    </g>
   </g>
   <g id="line2d_24">
    <path d="M 75.164489 309.865312 
L 76.500702 202.296562 
L 77.836916 309.865312 
L 79.17313 309.865312 
L 80.509343 202.296562 
L 81.845557 309.865312 
L 83.181771 309.865312 
L 84.517985 202.296562 
L 85.854198 309.865312 
L 95.207694 309.865312 
L 96.543908 202.296562 
L 97.880122 309.865312 
L 100.552549 309.865312 
L 101.888763 202.296562 
L 103.224976 309.865312 
L 105.897404 309.865312 
L 107.233617 202.296562 
L 108.569831 202.296562 
L 109.906045 309.865312 
L 120.595754 309.865312 
L 121.931968 202.296562 
L 123.268182 202.296562 
L 124.604396 309.865312 
L 137.966533 309.865312 
L 139.302746 202.296562 
L 140.63896 309.865312 
L 141.975174 309.865312 
L 143.311387 202.296562 
L 144.647601 202.296562 
L 145.983815 309.865312 
L 154.001097 309.865312 
L 155.337311 202.296562 
L 156.673524 202.296562 
L 158.009738 309.865312 
L 162.018379 309.865312 
L 163.354593 202.296562 
L 166.02702 202.296562 
L 167.363234 309.865312 
L 170.035661 309.865312 
L 171.371875 202.296562 
L 172.708089 202.296562 
L 174.044302 309.865312 
L 179.389157 309.865312 
L 180.725371 202.296562 
L 182.061585 309.865312 
L 183.397798 202.296562 
L 184.734012 309.865312 
L 187.406439 309.865312 
L 188.742653 202.296562 
L 190.078867 309.865312 
L 195.423722 309.865312 
L 196.759935 202.296562 
L 198.096149 202.296562 
L 199.432363 309.865312 
L 204.777217 309.865312 
L 206.113431 202.296562 
L 207.449645 309.865312 
L 212.7945 309.865312 
L 214.130713 202.296562 
L 215.466927 202.296562 
L 216.803141 309.865312 
L 232.837705 309.865312 
L 234.173919 202.296562 
L 235.510133 202.296562 
L 236.846346 309.865312 
L 240.854987 309.865312 
L 242.191201 202.296562 
L 243.527415 309.865312 
L 244.863628 202.296562 
L 246.199842 202.296562 
L 247.536056 309.865312 
L 250.208483 309.865312 
L 251.544697 202.296562 
L 254.217124 202.296562 
L 255.553338 309.865312 
L 260.898193 309.865312 
L 262.234407 202.296562 
L 263.57062 309.865312 
L 264.906834 309.865312 
L 266.243048 202.296562 
L 267.579261 309.865312 
L 267.579261 309.865312 
" clip-path="url(#p2f4d34889b)" style="fill: none; stroke: #1f77b4; stroke-linecap: square"/>
   </g>
   <g id="line2d_25">
    <path d="M 75.164489 309.865312 
L 76.500702 202.296562 
L 77.836916 309.865312 
L 79.17313 309.865312 
L 80.509343 202.296562 
L 81.845557 309.865312 
L 83.181771 309.865312 
L 84.517985 202.296562 
L 85.854198 309.865312 
L 95.207694 309.865312 
L 96.543908 202.296562 
L 97.880122 309.865312 
L 100.552549 309.865312 
L 101.888763 202.296562 
L 103.224976 309.865312 
L 105.897404 309.865312 
L 107.233617 202.296562 
L 108.569831 202.296562 
L 109.906045 309.865312 
L 120.595754 309.865312 
L 121.931968 202.296562 
L 123.268182 202.296562 
L 124.604396 309.865312 
L 137.966533 309.865312 
L 139.302746 202.296562 
L 140.63896 309.865312 
L 141.975174 309.865312 
L 143.311387 202.296562 
L 144.647601 202.296562 
L 145.983815 309.865312 
L 154.001097 309.865312 
L 155.337311 202.296562 
L 156.673524 202.296562 
L 158.009738 309.865312 
L 162.018379 309.865312 
L 163.354593 202.296562 
L 166.02702 202.296562 
L 167.363234 309.865312 
L 170.035661 309.865312 
L 171.371875 202.296562 
L 172.708089 202.296562 
L 174.044302 309.865312 
L 175.380516 309.865312 
L 176.71673 202.296562 
L 178.052943 309.865312 
L 179.389157 309.865312 
L 180.725371 202.296562 
L 182.061585 309.865312 
L 183.397798 202.296562 
L 184.734012 309.865312 
L 187.406439 309.865312 
L 188.742653 202.296562 
L 190.078867 309.865312 
L 195.423722 309.865312 
L 196.759935 202.296562 
L 198.096149 202.296562 
L 199.432363 309.865312 
L 204.777217 309.865312 
L 206.113431 202.296562 
L 207.449645 309.865312 
L 212.7945 309.865312 
L 214.130713 202.296562 
L 215.466927 202.296562 
L 216.803141 309.865312 
L 226.156637 309.865312 
L 227.49285 202.296562 
L 228.829064 309.865312 
L 232.837705 309.865312 
L 234.173919 202.296562 
L 235.510133 202.296562 
L 236.846346 309.865312 
L 240.854987 309.865312 
L 242.191201 202.296562 
L 243.527415 309.865312 
L 244.863628 202.296562 
L 246.199842 202.296562 
L 247.536056 309.865312 
L 250.208483 309.865312 
L 251.544697 202.296562 
L 254.217124 202.296562 
L 255.553338 309.865312 
L 260.898193 309.865312 
L 262.234407 202.296562 
L 263.57062 309.865312 
L 264.906834 309.865312 
L 266.243048 202.296562 
L 267.579261 309.865312 
L 267.579261 309.865312 
" clip-path="url(#p2f4d34889b)" style="fill: none; stroke: #ff7f0e; stroke-opacity: 0.5; stroke-linecap: square"/>
   </g>
   <g id="patch_6">
    <path d="M 65.54375 315.24375 
L 65.54375 196.918125 
" style="fill: none; stroke: #000000; stroke-width: 0.8; stroke-linejoin: miter; stroke-linecap: square"/>
   </g>
   <g id="patch_7">
    <path d="M 65.54375 315.24375 
L 277.2 315.24375 
" style="fill: none; stroke: #000000; stroke-width: 0.8; stroke-linejoin: miter; stroke-linecap: square"/>
   </g>
   <g id="text_27">
    <text style="font: 12px 'DejaVu Sans', 'Bitstream Vera Sans', 'Computer Modern Sans Serif', 'Lucida Grande', 'Verdana', 'Geneva', 'Lucid', 'Arial', 'Helvetica', 'Avant Garde', sans-serif; text-anchor: middle" x="171.371875" y="190.918125" transform="rotate(-0 171.371875 190.918125)">202114 - result</text>
   </g>
   <g id="legend_2">
    <g id="line2d_26">
     <path d="M 285.433125 205.016562 
L 285.433125 205.016562 
L 285.433125 205.016562 
" style="fill: none; stroke: #1f77b4; stroke-linecap: square"/>
    </g>
    <g id="text_28">
     <text style="fill: #1f77b4; font: 10px 'DejaVu Sans', 'Bitstream Vera Sans', 'Computer Modern Sans Serif', 'Lucida Grande', 'Verdana', 'Geneva', 'Lucid', 'Arial', 'Helvetica', 'Avant Garde', sans-serif; text-anchor: start" x="288.433125" y="208.516562" transform="rotate(-0 288.433125 208.516562)">real</text>
    </g>
    <g id="line2d_27">
     <path d="M 285.433125 219.694687 
L 285.433125 219.694687 
L 285.433125 219.694687 
" style="fill: none; stroke: #ff7f0e; stroke-opacity: 0.5; stroke-linecap: square"/>
    </g>
    <g id="text_29">
     <text style="fill: #ff7f0e; font: 10px 'DejaVu Sans', 'Bitstream Vera Sans', 'Computer Modern Sans Serif', 'Lucida Grande', 'Verdana', 'Geneva', 'Lucid', 'Arial', 'Helvetica', 'Avant Garde', sans-serif; text-anchor: start" x="288.433125" y="223.194687" transform="rotate(-0 288.433125 223.194687)">simulated</text>
    </g>
   </g>
  </g>
 </g>
 <defs>
  <clipPath id="p7e66c9d9c5">
   <rect x="65.54375" y="22.318125" width="211.65625" height="118.325625"/>
  </clipPath>
  <clipPath id="p2f4d34889b">
   <rect x="65.54375" y="196.918125" width="211.65625" height="118.325625"/>
  </clipPath>
 </defs>
</svg>
