<?xml version="1.0" encoding="utf-8" standalone="no"?>
<!DOCTYPE svg PUBLIC "-//W3C//DTD SVG 1.1//EN"
  "http://www.w3.org/Graphics/SVG/1.1/DTD/svg11.dtd">
<svg xmlns:xlink="http://www.w3.org/1999/xlink" width="349.026875pt" height="352.8pt" viewBox="0 0 349.026875 352.8" xmlns="http://www.w3.org/2000/svg" version="1.1">
 <metadata>
  <rdf:RDF xmlns:dc="http://purl.org/dc/elements/1.1/" xmlns:cc="http://creativecommons.org/ns#" xmlns:rdf="http://www.w3.org/1999/02/22-rdf-syntax-ns#">
   <cc:Work>
    <dc:type rdf:resource="http://purl.org/dc/dcmitype/StillImage"/>
    <dc:date>2026-04-14T15:37:47.328620</dc:date>
    <dc:format>image/svg+xml</dc:format>
    <dc:creator>
     <cc:Agent>
      <dc:title>Matplotlib v3.9.2, https://matplotlib.org/</dc:title>
     </cc:Agent>
    </dc:creator>
   </cc:Work>
  </rdf:RDF>
 </metadata>
 <defs>
  <style type="text/css">*{stroke-linejoin: round; stroke-linecap: butt}</style>
 </defs>
 <g id="figure_1">
  <g id="patch_1">
   <path d="M 0 352.8 
L 349.026875 352.8 
L 349.026875 0 
L 0 0 
z
" style="fill: #ffffff"/>
  </g>
  <g id="axes_1">
   <g id="patch_2">
    <path d="M 65.54375 140.64375 
L 277.2 140.64375 
L 277.2 22.318125 
L 65.54375 22.318125 
z
" style="fill: #ffffff"/>
   </g>
   <g id="matplotlib.axis_1">
    <g id="xtick_1">
     <g id="line2d_1">
      <defs>
       <path id="m46803506df" d="M 0 0 
L 0 3.5 
" style="stroke: #000000; stroke-width: 0.8"/>
      </defs>
      <g>
       <use xlink:href="#m46803506df" x="75.164489" y="140.64375" style="stroke: #000000; stroke-width: 0.8"/>
      </g>
     </g>
     <g id="text_1">
      <text style="font: 10px 'DejaVu Sans', 'Bitstream Vera Sans', 'Computer Modern Sans Serif', 'Lucida Grande', 'Verdana', 'Geneva', 'Lucid', 'Arial', 'Helvetica', 'Avant Garde', sans-serif; text-anchor: middle" x="75.164489" y="155.242188" transform="rotate(-0 75.164489 155.242188)">0</text>
     </g>
    </g>
    <g id="xtick_2">
     <g id="line2d_2">
      <g>
       <use xlink:href="#m46803506df" x="131.099016" y="140.64375" style="stroke: #000000; stroke-width: 0.8"/>
      </g>
     </g>
     <g id="text_2">
      <text style="font: 10px 'DejaVu Sans', 'Bitstream Vera Sans', 'Computer Modern Sans Serif', 'Lucida Grande', 'Verdana', 'Geneva', 'Lucid', 'Arial', 'Helvetica', 'Avant Garde', sans-serif; text-anchor: middle" x="131.099016" y="155.242188" transform="rotate(-0 131.099016 155.242188)">50</text>
     </g>
    </g>
    <g id="xtick_3">
     <g id="line2d_3">
      <g>
       <use xlink:href="#m46803506df" x="187.033543" y="140.64375" style="stroke: #000000; stroke-width: 0.8"/>
      </g>
     </g>
     <g id="text_3">
      <text style="font: 10px 'DejaVu Sans', 'Bitstream Vera Sans', 'Computer Modern Sans Serif', 'Lucida Grande', 'Verdana', 'Geneva', 'Lucid', 'Arial', 'Helvetica', 'Avant Garde', sans-serif; text-anchor: middle" x="187.033543" y="155.242188" transform="rotate(-0 187.033543 155.242188)">100</text>
     </g>
    </g>
    <g id="xtick_4">
     <g id="line2d_4">
      <g>
       <use xlink:href="#m46803506df" x="242.96807" y="140.64375" style="stroke: #000000; stroke-width: 0.8"/>
      </g>
     </g>
     <g id="text_4">
      <text style="font: 10px 'DejaVu Sans', 'Bitstream Vera Sans', 'Computer Modern Sans Serif', 'Lucida Grande', 'Verdana', 'Geneva', 'Lucid', 'Arial', 'Helvetica', 'Avant Garde', sans-serif; text-anchor: middle" x="242.96807" y="155.242188" transform="rotate(-0 242.96807 155.242188)">150</text>
     </g>
    </g>
    <g id="text_5">
     <text style="font: 10px 'DejaVu Sans', 'Bitstream Vera Sans', 'Computer Modern Sans Serif', 'Lucida Grande', 'Verdana', 'Geneva', 'Lucid', 'Arial', 'Helvetica', 'Avant Garde', sans-serif; text-anchor: middle" x="171.371875" y="168.920312" transform="rotate(-0 171.371875 168.920312)">trial</text>
    </g>
   </g>
   <g id="matplotlib.axis_2">
    <g id="ytick_1">
     <g id="line2d_5">
      <defs>
       <path id="m23fae299c1" d="M 0 0 
L -3.5 0 
" style="stroke: #000000; stroke-width: 0.8"/>
      </defs>
      <g>
       <use xlink:href="#m23fae299c1" x="65.54375" y="135.265313" style="stroke: #000000; stroke-width: 0.8"/>
      </g>
     </g>
     <g id="text_6">
      <text style="font: 10px 'DejaVu Sans', 'Bitstream Vera Sans', 'Computer Modern Sans Serif', 'Lucida Grande', 'Verdana', 'Geneva', 'Lucid', 'Arial', 'Helvetica', 'Avant Garde', sans-serif; text-anchor: end" x="58.54375" y="139.064531" transform="rotate(-0 58.54375 139.064531)">0</text>
     </g>
    </g>
    <g id="ytick_2">
     <g id="line2d_6">
      <g>
       <use xlink:href="#m23fae299c1" x="65.54375" y="104.87866" style="stroke: #000000; stroke-width: 0.8"/>
      </g>
     </g>
     <g id="text_7">
      <text style="font: 10px 'DejaVu Sans', 'Bitstream Vera Sans', 'Computer Modern Sans Serif', 'Lucida Grande', 'Verdana', 'Geneva', 'Lucid', 'Arial', 'Helvetica', 'Avant Garde', sans-serif; text-anchor: end" x="58.54375" y="108.677879" transform="rotate(-0 58.54375 108.677879)">100</text>
     </g>
    </g>
    <g id="ytick_3">
     <g id="line2d_7">
      <g>
       <use xlink:href="#m23fae299c1" x="65.54375" y="74.492007" style="stroke: #000000; stroke-width: 0.8"/>
      </g>
     </g>
     <g id="text_8">
      <text style="font: 10px 'DejaVu Sans', 'Bitstream Vera Sans', 'Computer Modern Sans Serif', 'Lucida Grande', 'Verdana', 'Geneva', 'Lucid', 'Arial', 'Helvetica', 'Avant Garde', sans-serif; text-anchor: end" x="58.54375" y="78.291226" transform="rotate(-0 58.54375 78.291226)">200</text>
     </g>
    </g>
    <g id="ytick_4">
     <g id="line2d_8">
      <g>
       <use xlink:href="#m23fae299c1" x="65.54375" y="44.105355" style="stroke: #000000; stroke-width: 0.8"/>
      </g>
     </g>
     <g id="text_9">
      <text style="font: 10px 'DejaVu Sans', 'Bitstream Vera Sans', 'Computer Modern Sans Serif', 'Lucida Grande', 'Verdana', 'Geneva', 'Lucid', 'Arial', 'Helvetica', 'Avant Garde', sans-serif; text-anchor: end" x="58.54375" y="47.904574" transform="rotate(-0 58.54375 47.904574)">300</text>
     </g>
    </g>
    <g id="text_10">
     <text style="font: 10px 'DejaVu Sans', 'Bitstream Vera Sans', 'Computer Modern Sans Serif', 'Lucida Grande', 'Verdana', 'Geneva', 'Lucid', 'Arial', 'Helvetica', 'Avant Garde', sans-serif; text-anchor: middle" x="33.376562" y="81.480937" transform="rotate(-90 33.376562 81.480937)">reward</text>
    </g>
   </g>
   <g id="line2d_9">
    <path d="M 75.164489 125.84545 
L 76.283179 103.96706 
L 77.40187 105.486393 
L 78.52056 135.265313 
L 79.639251 135.265313 
L 80.757941 120.983586 
L 81.876632 110.95599 
L 82.995322 107.917325 
L 84.114013 102.751594 
L 85.232703 71.757209 
L 86.351394 135.265313 
L 87.470085 88.469868 
L 88.588775 135.265313 
L 89.707466 96.97813 
L 90.826156 135.265313 
L 91.944847 102.143861 
L 93.063537 135.265313 
L 94.182228 135.265313 
L 95.300918 102.447728 
L 96.419609 102.751594 
L 97.538299 135.265313 
L 98.65699 135.265313 
L 99.77568 70.541743 
L 100.894371 135.265313 
L 103.131752 135.265313 
L 104.250443 101.232262 
L 105.369133 84.519603 
L 106.487824 135.265313 
L 107.606514 135.265313 
L 108.725205 44.105355 
L 109.843895 110.652124 
L 110.962586 135.265313 
L 112.081276 107.917325 
L 113.199967 134.961446 
L 114.318658 135.265313 
L 115.437348 56.563882 
L 116.556039 135.265313 
L 117.674729 135.265313 
L 118.79342 80.265471 
L 119.91211 105.182526 
L 121.030801 105.79026 
L 122.149491 135.265313 
L 123.268182 102.447728 
L 124.386872 59.906414 
L 125.505563 49.271086 
L 126.624253 107.309592 
L 127.742944 135.265313 
L 128.861635 56.867749 
L 129.980325 135.265313 
L 133.336397 135.265313 
L 134.455087 109.436658 
L 135.573778 97.88973 
L 136.692468 93.939465 
L 137.811159 65.376012 
L 138.929849 104.87866 
L 140.04854 107.917325 
L 142.285921 101.536128 
L 143.404612 135.265313 
L 144.523302 135.265313 
L 145.641993 93.331732 
L 146.760683 93.635599 
L 147.879374 61.425747 
L 148.998064 104.87866 
L 150.116755 135.265313 
L 151.235445 104.87866 
L 152.354136 135.265313 
L 153.472826 135.265313 
L 154.591517 133.74598 
L 155.710207 104.270927 
L 156.828898 135.265313 
L 157.947589 133.74598 
L 159.066279 71.453342 
L 160.18497 70.541743 
L 161.30366 113.690789 
L 163.541041 102.143861 
L 164.659732 69.93401 
L 165.778422 104.270927 
L 166.897113 101.839995 
L 168.015803 69.02241 
L 169.134494 77.834539 
L 170.253184 63.856679 
L 171.371875 60.514147 
L 172.490566 71.757209 
L 173.609256 52.917484 
L 174.727947 135.265313 
L 175.846637 104.270927 
L 176.965328 102.751594 
L 178.084018 135.265313 
L 179.202709 62.641213 
L 180.321399 83.00027 
L 181.44009 135.265313 
L 182.55878 62.03348 
L 183.677471 135.265313 
L 184.796161 135.265313 
L 185.914852 125.541584 
L 187.033543 120.375853 
L 188.152233 103.663194 
L 189.270924 61.12188 
L 190.389614 114.602389 
L 191.508305 135.265313 
L 192.626995 121.591319 
L 193.745686 135.265313 
L 194.864376 119.464253 
L 195.983067 70.541743 
L 197.101757 59.906414 
L 198.220448 56.260016 
L 199.339138 55.956149 
L 200.457829 113.690789 
L 201.57652 95.458798 
L 202.69521 53.525217 
L 203.813901 87.862135 
L 204.932591 135.265313 
L 206.051282 49.574952 
L 208.288663 101.536128 
L 209.407353 135.265313 
L 210.526044 135.265313 
L 211.644734 105.182526 
L 212.763425 135.265313 
L 213.882115 102.447728 
L 215.000806 27.696563 
L 216.119497 135.265313 
L 218.356878 135.265313 
L 219.475568 103.663194 
L 220.594259 97.281997 
L 221.712949 135.265313 
L 222.83164 135.265313 
L 223.95033 120.375853 
L 225.069021 62.945079 
L 226.187711 120.983586 
L 227.306402 117.944921 
L 228.425092 135.265313 
L 229.543783 79.657738 
L 230.662474 117.337188 
L 231.781164 56.867749 
L 232.899855 43.193755 
L 234.018545 135.265313 
L 235.137236 135.265313 
L 236.255926 101.839995 
L 237.374617 81.177071 
L 238.493307 102.143861 
L 239.611998 135.265313 
L 240.730688 107.917325 
L 241.849379 40.15509 
L 242.96807 135.265313 
L 244.08676 109.132791 
L 245.205451 107.309592 
L 246.324141 104.87866 
L 247.442832 102.143861 
L 248.561522 72.061075 
L 249.680213 135.265313 
L 250.798903 135.265313 
L 251.917594 117.944921 
L 253.036284 57.779349 
L 254.154975 105.182526 
L 255.273665 112.475323 
L 256.392356 135.265313 
L 257.511047 41.06669 
L 258.629737 135.265313 
L 259.748428 99.712929 
L 260.867118 96.370397 
L 261.985809 135.265313 
L 263.104499 135.265313 
L 264.22319 95.762664 
L 265.34188 135.265313 
L 266.460571 106.094126 
L 267.579261 41.978289 
L 267.579261 41.978289 
" clip-path="url(#pb84494f7f0)" style="fill: none; stroke: #1f77b4; stroke-linecap: square"/>
   </g>
   <g id="line2d_10">
    <path d="M 75.164489 97.023833 
L 76.283179 115.67058 
L 77.40187 127.751691 
L 78.52056 135.265313 
L 79.639251 135.265313 
L 80.757941 128.67595 
L 81.876632 125.640387 
L 82.995322 109.625371 
L 84.114013 122.83842 
L 85.232703 77.122091 
L 86.351394 135.265313 
L 87.470085 97.984834 
L 88.588775 135.265313 
L 89.707466 100.100741 
L 90.826156 135.265313 
L 91.944847 109.801126 
L 93.063537 135.265313 
L 94.182228 135.265313 
L 96.419609 108.066934 
L 97.538299 135.265313 
L 98.65699 135.265313 
L 99.77568 101.145988 
L 100.894371 135.265313 
L 103.131752 135.265313 
L 104.250443 114.457416 
L 105.369133 85.452287 
L 106.487824 135.265313 
L 107.606514 135.265313 
L 108.725205 118.015675 
L 109.843895 132.029552 
L 110.962586 135.265313 
L 112.081276 117.161683 
L 113.199967 135.265313 
L 114.318658 135.265313 
L 115.437348 104.342519 
L 116.556039 135.265313 
L 117.674729 135.265313 
L 118.79342 99.199023 
L 119.91211 107.926419 
L 121.030801 125.682135 
L 122.149491 135.265313 
L 123.268182 114.300805 
L 124.386872 64.940785 
L 125.505563 73.415789 
L 126.624253 118.69098 
L 127.742944 135.265313 
L 128.861635 83.355203 
L 129.980325 135.265313 
L 133.336397 135.265313 
L 134.455087 113.820005 
L 135.573778 119.479514 
L 136.692468 95.834348 
L 137.811159 77.315566 
L 138.929849 108.751563 
L 140.04854 115.752978 
L 141.16723 117.600756 
L 142.285921 113.216641 
L 143.404612 135.265313 
L 144.523302 135.265313 
L 145.641993 97.212445 
L 146.760683 109.74121 
L 147.879374 68.426161 
L 148.998064 107.374289 
L 150.116755 135.265313 
L 151.235445 121.576016 
L 152.354136 135.265313 
L 154.591517 135.265313 
L 155.710207 129.537681 
L 156.828898 135.265313 
L 157.947589 135.265313 
L 159.066279 76.20701 
L 160.18497 73.442279 
L 161.30366 129.312642 
L 162.422351 112.81937 
L 163.541041 113.35708 
L 164.659732 120.967286 
L 165.778422 116.537748 
L 166.897113 113.817359 
L 168.015803 118.489339 
L 169.134494 79.721875 
L 170.253184 72.881132 
L 171.371875 72.334898 
L 172.490566 79.774595 
L 173.609256 75.458133 
L 174.727947 135.265313 
L 175.846637 120.127152 
L 176.965328 112.562516 
L 178.084018 135.265313 
L 179.202709 87.84941 
L 180.321399 93.26116 
L 181.44009 135.265313 
L 182.55878 74.780586 
L 183.677471 135.265313 
L 187.033543 135.265313 
L 188.152233 126.921291 
L 189.270924 69.32106 
L 190.389614 135.265313 
L 191.508305 135.265313 
L 192.626995 133.461379 
L 193.745686 135.265313 
L 194.864376 120.71358 
L 195.983067 94.109804 
L 197.101757 84.437812 
L 198.220448 57.296967 
L 199.339138 61.845751 
L 200.457829 135.265313 
L 201.57652 116.792037 
L 202.69521 54.996628 
L 203.813901 100.943129 
L 204.932591 135.265313 
L 206.051282 54.775389 
L 208.288663 117.11153 
L 209.407353 135.265313 
L 210.526044 135.265313 
L 211.644734 120.733851 
L 212.763425 135.265313 
L 213.882115 113.789558 
L 215.000806 98.830532 
L 216.119497 135.265313 
L 218.356878 135.265313 
L 219.475568 107.458773 
L 220.594259 134.356834 
L 221.712949 135.265313 
L 222.83164 135.265313 
L 223.95033 127.762655 
L 225.069021 84.50012 
L 226.187711 130.444198 
L 227.306402 135.265313 
L 228.425092 135.265313 
L 229.543783 86.391274 
L 230.662474 135.265313 
L 231.781164 58.764093 
L 232.899855 77.276619 
L 234.018545 135.265313 
L 236.255926 135.265313 
L 237.374617 103.971048 
L 238.493307 116.311254 
L 239.611998 135.265313 
L 240.730688 119.881426 
L 241.849379 48.035998 
L 242.96807 135.265313 
L 244.08676 117.841341 
L 245.205451 122.255376 
L 246.324141 104.943621 
L 247.442832 118.188734 
L 248.561522 82.223927 
L 249.680213 135.265313 
L 250.798903 135.265313 
L 251.917594 128.628089 
L 253.036284 86.122023 
L 254.154975 106.253915 
L 255.273665 133.045337 
L 256.392356 135.265313 
L 257.511047 94.892211 
L 258.629737 135.265313 
L 259.748428 118.616006 
L 260.867118 122.838029 
L 261.985809 135.265313 
L 263.104499 135.265313 
L 264.22319 129.824696 
L 265.34188 135.265313 
L 266.460571 107.017229 
L 267.579261 45.618628 
L 267.579261 45.618628 
" clip-path="url(#pb84494f7f0)" style="fill: none; stroke: #ff7f0e; stroke-opacity: 0.5; stroke-linecap: square"/>
   </g>
   <g id="patch_3">
    <path d="M 65.54375 140.64375 
L 65.54375 22.318125 
" style="fill: none; stroke: #000000; stroke-width: 0.8; stroke-linejoin: miter; stroke-linecap: square"/>
   </g>
   <g id="patch_4">
    <path d="M 65.54375 140.64375 
L 277.2 140.64375 
" style="fill: none; stroke: #000000; stroke-width: 0.8; stroke-linejoin: miter; stroke-linecap: square"/>
   </g>
   <g id="text_11">
    <text style="font: 12px 'DejaVu Sans', 'Bitstream Vera Sans', 'Computer Modern Sans Serif', 'Lucida Grande', 'Verdana', 'Geneva', 'Lucid', 'Arial', 'Helvetica', 'Avant Garde', sans-serif; text-anchor: middle" x="171.371875" y="16.318125" transform="rotate(-0 171.371875 16.318125)">202110 - reward</text>
   </g>
   <g id="legend_1">
    <g id="line2d_11">
     <path d="M 285.433125 30.416562 
L 285.433125 30.416562 
L 285.433125 30.416562 
" style="fill: none; stroke: #1f77b4; stroke-linecap: square"/>
    </g>
    <g id="text_12">
     <text style="fill: #1f77b4; font: 10px 'DejaVu Sans', 'Bitstream Vera Sans', 'Computer Modern Sans Serif', 'Lucida Grande', 'Verdana', 'Geneva', 'Lucid', 'Arial', 'Helvetica', 'Avant Garde', sans-serif; text-anchor: start" x="288.433125" y="33.916562" transform="rotate(-0 288.433125 33.916562)">real</text>
    </g>
    <g id="line2d_12">
     <path d="M 285.433125 45.094688 
L 285.433125 45.094688 
L 285.433125 45.094688 
" style="fill: none; stroke: #ff7f0e; stroke-opacity: 0.5; stroke-linecap: square"/>
    </g>
    <g id="text_13">
     <text style="fill: #ff7f0e; font: 10px 'DejaVu Sans', 'Bitstream Vera Sans', 'Computer Modern Sans Serif', 'Lucida Grande', 'Verdana', 'Geneva', 'Lucid', 'Arial', 'Helvetica', 'Avant Garde', sans-serif; text-anchor: start" x="288.433125" y="48.594688" transform="rotate(-0 288.433125 48.594688)">simulated</text>
    </g>
   </g>
  </g>
  <g id="axes_2">
   <g id="patch_5">
    <path d="M 65.54375 315.24375 
L 277.2 315.24375 
L 277.2 196.918125 
L 65.54375 196.918125 
z
" style="fill: #ffffff"/>
   </g>
   <g id="matplotlib.axis_3">
    <g id="xtick_5">
     <g id="line2d_13">
      <g>
       <use xlink:href="#m46803506df" x="75.164489" y="315.24375" style="stroke: #000000; stroke-width: 0.8"/>
      </g>
     </g>
     <g id="text_14">
      <text style="font: 10px 'DejaVu Sans', 'Bitstream Vera Sans', 'Computer Modern Sans Serif', 'Lucida Grande', 'Verdana', 'Geneva', 'Lucid', 'Arial', 'Helvetica', 'Avant Garde', sans-serif; text-anchor: middle" x="75.164489" y="329.842187" transform="rotate(-0 75.164489 329.842187)">0</text>
     </g>
    </g>
    <g id="xtick_6">
     <g id="line2d_14">
      <g>
       <use xlink:href="#m46803506df" x="131.099016" y="315.24375" style="stroke: #000000; stroke-width: 0.8"/>
      </g>
     </g>
     <g id="text_15">
      <text style="font: 10px 'DejaVu Sans', 'Bitstream Vera Sans', 'Computer Modern Sans Serif', 'Lucida Grande', 'Verdana', 'Geneva', 'Lucid', 'Arial', 'Helvetica', 'Avant Garde', sans-serif; text-anchor: middle" x="131.099016" y="329.842187" transform="rotate(-0 131.099016 329.842187)">50</text>
     </g>
    </g>
    <g id="xtick_7">
     <g id="line2d_15">
      <g>
       <use xlink:href="#m46803506df" x="187.033543" y="315.24375" style="stroke: #000000; stroke-width: 0.8"/>
      </g>
     </g>
     <g id="text_16">
      <text style="font: 10px 'DejaVu Sans', 'Bitstream Vera Sans', 'Computer Modern Sans Serif', 'Lucida Grande', 'Verdana', 'Geneva', 'Lucid', 'Arial', 'Helvetica', 'Avant Garde', sans-serif; text-anchor: middle" x="187.033543" y="329.842187" transform="rotate(-0 187.033543 329.842187)">100</text>
     </g>
    </g>
    <g id="xtick_8">
     <g id="line2d_16">
      <g>
       <use xlink:href="#m46803506df" x="242.96807" y="315.24375" style="stroke: #000000; stroke-width: 0.8"/>
      </g>
     </g>
     <g id="text_17">
      <text style="font: 10px 'DejaVu Sans', 'Bitstream Vera Sans', 'Computer Modern Sans Serif', 'Lucida Grande', 'Verdana', 'Geneva', 'Lucid', 'Arial', 'Helvetica', 'Avant Garde', sans-serif; text-anchor: middle" x="242.96807" y="329.842187" transform="rotate(-0 242.96807 329.842187)">150</text>
     </g>
    </g>
    <g id="text_18">
     <text style="font: 10px 'DejaVu Sans', 'Bitstream Vera Sans', 'Computer Modern Sans Serif', 'Lucida Grande', 'Verdana', 'Geneva', 'Lucid', 'Arial', 'Helvetica', 'Avant Garde', sans-serif; text-anchor: middle" x="171.371875" y="343.520312" transform="rotate(-0 171.371875 343.520312)">trial</text>
    </g>
   </g>
   <g id="matplotlib.axis_4">
    <g id="ytick_5">
     <g id="line2d_17">
      <g>
       <use xlink:href="#m23fae299c1" x="65.54375" y="309.865312" style="stroke: #000000; stroke-width: 0.8"/>
      </g>
     </g>
     <g id="text_19">
      <text style="font: 10px 'DejaVu Sans', 'Bitstream Vera Sans', 'Computer Modern Sans Serif', 'Lucida Grande', 'Verdana', 'Geneva', 'Lucid', 'Arial', 'Helvetica', 'Avant Garde', sans-serif; text-anchor: end" x="58.54375" y="313.664531" transform="rotate(-0 58.54375 313.664531)">banked</text>
     </g>
    </g>
    <g id="ytick_6">
     <g id="line2d_18">
      <g>
       <use xlink:href="#m23fae299c1" x="65.54375" y="202.296562" style="stroke: #000000; stroke-width: 0.8"/>
      </g>
     </g>
     <g id="text_20">
      <text style="font: 10px 'DejaVu Sans', 'Bitstream Vera Sans', 'Computer Modern Sans Serif', 'Lucida Grande', 'Verdana', 'Geneva', 'Lucid', 'Arial', 'Helvetica', 'Avant Garde', sans-serif; text-anchor: end" x="58.54375" y="206.095781" transform="rotate(-0 58.54375 206.095781)">popped</text>
     </g>
    </g>
    <g id="text_21">
     <text style="font: 10px 'DejaVu Sans', 'Bitstream Vera Sans', 'Computer Modern Sans Serif', 'Lucida Grande', 'Verdana', 'Geneva', 'Lucid', 'Arial', 'Helvetica', 'Avant Garde', sans-serif; text-anchor: middle" x="14.798438" y="256.080937" transform="rotate(-90 14.798438 256.080937)">result</text>
    </g>
   </g>
   <g id="line2d_19">
    <path d="M 75.164489 309.865312 
L 77.40187 309.865312 
L 78.52056 202.296562 
L 79.639251 202.296562 
L 80.757941 309.865312 
L 85.232703 309.865312 
L 86.351394 202.296562 
L 87.470085 309.865312 
L 88.588775 202.296562 
L 89.707466 309.865312 
L 90.826156 202.296562 
L 91.944847 309.865312 
L 93.063537 202.296562 
L 94.182228 202.296562 
L 95.300918 309.865312 
L 96.419609 309.865312 
L 97.538299 202.296562 
L 98.65699 202.296562 
L 99.77568 309.865312 
L 100.894371 202.296562 
L 103.131752 202.296562 
L 104.250443 309.865312 
L 105.369133 309.865312 
L 106.487824 202.296562 
L 107.606514 202.296562 
L 108.725205 309.865312 
L 109.843895 309.865312 
L 110.962586 202.296562 
L 112.081276 309.865312 
L 113.199967 309.865312 
L 114.318658 202.296562 
L 115.437348 309.865312 
L 116.556039 202.296562 
L 117.674729 202.296562 
L 118.79342 309.865312 
L 121.030801 309.865312 
L 122.149491 202.296562 
L 123.268182 309.865312 
L 126.624253 309.865312 
L 127.742944 202.296562 
L 128.861635 309.865312 
L 129.980325 202.296562 
L 133.336397 202.296562 
L 134.455087 309.865312 
L 142.285921 309.865312 
L 143.404612 202.296562 
L 144.523302 202.296562 
L 145.641993 309.865312 
L 148.998064 309.865312 
L 150.116755 202.296562 
L 151.235445 309.865312 
L 152.354136 202.296562 
L 153.472826 202.296562 
L 154.591517 309.865312 
L 155.710207 309.865312 
L 156.828898 202.296562 
L 157.947589 309.865312 
L 173.609256 309.865312 
L 174.727947 202.296562 
L 175.846637 309.865312 
L 176.965328 309.865312 
L 178.084018 202.296562 
L 179.202709 309.865312 
L 180.321399 309.865312 
L 181.44009 202.296562 
L 182.55878 309.865312 
L 183.677471 202.296562 
L 184.796161 202.296562 
L 185.914852 309.865312 
L 190.389614 309.865312 
L 191.508305 202.296562 
L 192.626995 309.865312 
L 193.745686 202.296562 
L 194.864376 309.865312 
L 203.813901 309.865312 
L 204.932591 202.296562 
L 206.051282 309.865312 
L 208.288663 309.865312 
L 209.407353 202.296562 
L 210.526044 202.296562 
L 211.644734 309.865312 
L 212.763425 202.296562 
L 213.882115 309.865312 
L 215.000806 309.865312 
L 216.119497 202.296562 
L 218.356878 202.296562 
L 219.475568 309.865312 
L 220.594259 309.865312 
L 221.712949 202.296562 
L 222.83164 202.296562 
L 223.95033 309.865312 
L 227.306402 309.865312 
L 228.425092 202.296562 
L 229.543783 309.865312 
L 232.899855 309.865312 
L 234.018545 202.296562 
L 235.137236 202.296562 
L 236.255926 309.865312 
L 238.493307 309.865312 
L 239.611998 202.296562 
L 240.730688 309.865312 
L 241.849379 309.865312 
L 242.96807 202.296562 
L 244.08676 309.865312 
L 248.561522 309.865312 
L 249.680213 202.296562 
L 250.798903 202.296562 
L 251.917594 309.865312 
L 255.273665 309.865312 
L 256.392356 202.296562 
L 257.511047 309.865312 
L 258.629737 202.296562 
L 259.748428 309.865312 
L 260.867118 309.865312 
L 261.985809 202.296562 
L 263.104499 202.296562 
L 264.22319 309.865312 
L 265.34188 202.296562 
L 266.460571 309.865312 
L 267.579261 309.865312 
L 267.579261 309.865312 
" clip-path="url(#pb490b92ef4)" style="fill: none; stroke: #1f77b4; stroke-linecap: square"/>
   </g>
   <g id="line2d_20">
    <path d="M 75.164489 309.865312 
L 77.40187 309.865312 
L 78.52056 202.296562 
L 79.639251 202.296562 
L 80.757941 309.865312 
L 85.232703 309.865312 
L 86.351394 202.296562 
L 87.470085 309.865312 
L 88.588775 202.296562 
L 89.707466 309.865312 
L 90.826156 202.296562 
L 91.944847 309.865312 
L 93.063537 202.296562 
L 94.182228 202.296562 
L 95.300918 309.865312 
L 96.419609 309.865312 
L 97.538299 202.296562 
L 98.65699 202.296562 
L 99.77568 309.865312 
L 100.894371 202.296562 
L 103.131752 202.296562 
L 104.250443 309.865312 
L 105.369133 309.865312 
L 106.487824 202.296562 
L 107.606514 202.296562 
L 108.725205 309.865312 
L 109.843895 309.865312 
L 110.962586 202.296562 
L 112.081276 309.865312 
L 113.199967 202.296562 
L 114.318658 202.296562 
L 115.437348 309.865312 
L 116.556039 202.296562 
L 117.674729 202.296562 
L 118.79342 309.865312 
L 121.030801 309.865312 
L 122.149491 202.296562 
L 123.268182 309.865312 
L 126.624253 309.865312 
L 127.742944 202.296562 
L 128.861635 309.865312 
L 129.980325 202.296562 
L 133.336397 202.296562 
L 134.455087 309.865312 
L 142.285921 309.865312 
L 143.404612 202.296562 
L 144.523302 202.296562 
L 145.641993 309.865312 
L 148.998064 309.865312 
L 150.116755 202.296562 
L 151.235445 309.865312 
L 152.354136 202.296562 
L 154.591517 202.296562 
L 155.710207 309.865312 
L 156.828898 202.296562 
L 157.947589 202.296562 
L 159.066279 309.865312 
L 173.609256 309.865312 
L 174.727947 202.296562 
L 175.846637 309.865312 
L 176.965328 309.865312 
L 178.084018 202.296562 
L 179.202709 309.865312 
L 180.321399 309.865312 
L 181.44009 202.296562 
L 182.55878 309.865312 
L 183.677471 202.296562 
L 187.033543 202.296562 
L 188.152233 309.865312 
L 189.270924 309.865312 
L 190.389614 202.296562 
L 191.508305 202.296562 
L 192.626995 309.865312 
L 193.745686 202.296562 
L 194.864376 309.865312 
L 199.339138 309.865312 
L 200.457829 202.296562 
L 201.57652 309.865312 
L 203.813901 309.865312 
L 204.932591 202.296562 
L 206.051282 309.865312 
L 208.288663 309.865312 
L 209.407353 202.296562 
L 210.526044 202.296562 
L 211.644734 309.865312 
L 212.763425 202.296562 
L 213.882115 309.865312 
L 215.000806 309.865312 
L 216.119497 202.296562 
L 218.356878 202.296562 
L 219.475568 309.865312 
L 220.594259 309.865312 
L 221.712949 202.296562 
L 222.83164 202.296562 
L 223.95033 309.865312 
L 226.187711 309.865312 
L 227.306402 202.296562 
L 228.425092 202.296562 
L 229.543783 309.865312 
L 230.662474 202.296562 
L 231.781164 309.865312 
L 232.899855 309.865312 
L 234.018545 202.296562 
L 236.255926 202.296562 
L 237.374617 309.865312 
L 238.493307 309.865312 
L 239.611998 202.296562 
L 240.730688 309.865312 
L 241.849379 309.865312 
L 242.96807 202.296562 
L 244.08676 309.865312 
L 248.561522 309.865312 
L 249.680213 202.296562 
L 250.798903 202.296562 
L 251.917594 309.865312 
L 255.273665 309.865312 
L 256.392356 202.296562 
L 257.511047 309.865312 
L 258.629737 202.296562 
L 259.748428 309.865312 
L 260.867118 309.865312 
L 261.985809 202.296562 
L 263.104499 202.296562 
L 264.22319 309.865312 
L 265.34188 202.296562 
L 266.460571 309.865312 
L 267.579261 309.865312 
L 267.579261 309.865312 
" clip-path="url(#pb490b92ef4)" style="fill: none; stroke: #ff7f0e; stroke-opacity: 0.5; stroke-linecap: square"/>
   </g>
   <g id="patch_6">
    <path d="M 65.54375 315.24375 
L 65.54375 196.918125 
" style="fill: none; stroke: #000000; stroke-width: 0.8; stroke-linejoin: miter; stroke-linecap: square"/>
   </g>
   <g id="patch_7">
    <path d="M 65.54375 315.24375 
L 277.2 315.24375 
" style="fill: none; stroke: #000000; stroke-width: 0.8; stroke-linejoin: miter; stroke-linecap: square"/>
   </g>
   <g id="text_22">
    <text style="font: 12px 'DejaVu Sans', 'Bitstream Vera Sans', 'Computer Modern Sans Serif', 'Lucida Grande', 'Verdana', 'Geneva', 'Lucid', 'Arial', 'Helvetica', 'Avant Garde', sans-serif; text-anchor: middle" x="171.371875" y="190.918125" transform="rotate(-0 171.371875 190.918125)">202110 - result</text>
   </g>
   <g id="legend_2">
    <g id="line2d_21">
     <path d="M 285.433125 205.016562 
L 285.433125 205.016562 
L 285.433125 205.016562 
" style="fill: none; stroke: #1f77b4; stroke-linecap: square"/>
    </g>
    <g id="text_23">
     <text style="fill: #1f77b4; font: 10px 'DejaVu Sans', 'Bitstream Vera Sans', 'Computer Modern Sans Serif', 'Lucida Grande', 'Verdana', 'Geneva', 'Lucid', 'Arial', 'Helvetica', 'Avant Garde', sans-serif; text-anchor: start" x="288.433125" y="208.516562" transform="rotate(-0 288.433125 208.516562)">real</text>
    </g>
    <g id="line2d_22">
     <path d="M 285.433125 219.694687 
L 285.433125 219.694687 
L 285.433125 219.694687 
" style="fill: none; stroke: #ff7f0e; stroke-opacity: 0.5; stroke-linecap: square"/>
    </g>
    <g id="text_24">
     <text style="fill: #ff7f0e; font: 10px 'DejaVu Sans', 'Bitstream Vera Sans', 'Computer Modern Sans Serif', 'Lucida Grande', 'Verdana', 'Geneva', 'Lucid', 'Arial', 'Helvetica', 'Avant Garde', sans-serif; text-anchor: start" x="288.433125" y="223.194687" transform="rotate(-0 288.433125 223.194687)">simulated</text>
    </g>
   </g>
  </g>
 </g>
 <defs>
  <clipPath id="pb84494f7f0">
   <rect x="65.54375" y="22.318125" width="211.65625" height="118.325625"/>
  </clipPath>
  <clipPath id="pb490b92ef4">
   <rect x="65.54375" y="196.918125" width="211.65625" height="118.325625"/>
  </clipPath>
 </defs>
</svg>
