<?xml version="1.0" encoding="utf-8" standalone="no"?>
<!DOCTYPE svg PUBLIC "-//W3C//DTD SVG 1.1//EN"
  "http://www.w3.org/Graphics/SVG/1.1/DTD/svg11.dtd">
<svg xmlns:xlink="http://www.w3.org/1999/xlink" width="349.026875pt" height="352.8pt" viewBox="0 0 349.026875 352.8" xmlns="http://www.w3.org/2000/svg" version="1.1">
 <metadata>
  <rdf:RDF xmlns:dc="http://purl.org/dc/elements/1.1/" xmlns:cc="http://creativecommons.org/ns#" xmlns:rdf="http://www.w3.org/1999/02/22-rdf-syntax-ns#">
   <cc:Work>
    <dc:type rdf:resource="http://purl.org/dc/dcmitype/StillImage"/>
    <dc:date>2026-04-14T15:37:50.451705</dc:date>
    <dc:format>image/svg+xml</dc:format>
    <dc:creator>
     <cc:Agent>
      <dc:title>Matplotlib v3.9.2, https://matplotlib.org/</dc:title>
     </cc:Agent>
    </dc:creator>
   </cc:Work>
  </rdf:RDF>
 </metadata>
 <defs>
  <style type="text/css">*{stroke-linejoin: round; stroke-linecap: butt}</style>
 </defs>
 <g id="figure_1">
  <g id="patch_1">
   <path d="M 0 352.8 
L 349.026875 352.8 
L 349.026875 0 
L 0 0 
z
" style="fill: #ffffff"/>
  </g>
  <g id="axes_1">
   <g id="patch_2">
    <path d="M 65.54375 140.64375 
L 277.2 140.64375 
L 277.2 22.318125 
L 65.54375 22.318125 
z
" style="fill: #ffffff"/>
   </g>
   <g id="matplotlib.axis_1">
    <g id="xtick_1">
     <g id="line2d_1">
      <defs>
       <path id="m2c10a8522d" d="M 0 0 
L 0 3.5 
" style="stroke: #000000; stroke-width: 0.8"/>
      </defs>
      <g>
       <use xlink:href="#m2c10a8522d" x="75.164489" y="140.64375" style="stroke: #000000; stroke-width: 0.8"/>
      </g>
     </g>
     <g id="text_1">
      <text style="font: 10px 'DejaVu Sans', 'Bitstream Vera Sans', 'Computer Modern Sans Serif', 'Lucida Grande', 'Verdana', 'Geneva', 'Lucid', 'Arial', 'Helvetica', 'Avant Garde', sans-serif; text-anchor: middle" x="75.164489" y="155.242188" transform="rotate(-0 75.164489 155.242188)">0</text>
     </g>
    </g>
    <g id="xtick_2">
     <g id="line2d_2">
      <g>
       <use xlink:href="#m2c10a8522d" x="106.000189" y="140.64375" style="stroke: #000000; stroke-width: 0.8"/>
      </g>
     </g>
     <g id="text_2">
      <text style="font: 10px 'DejaVu Sans', 'Bitstream Vera Sans', 'Computer Modern Sans Serif', 'Lucida Grande', 'Verdana', 'Geneva', 'Lucid', 'Arial', 'Helvetica', 'Avant Garde', sans-serif; text-anchor: middle" x="106.000189" y="155.242188" transform="rotate(-0 106.000189 155.242188)">25</text>
     </g>
    </g>
    <g id="xtick_3">
     <g id="line2d_3">
      <g>
       <use xlink:href="#m2c10a8522d" x="136.83589" y="140.64375" style="stroke: #000000; stroke-width: 0.8"/>
      </g>
     </g>
     <g id="text_3">
      <text style="font: 10px 'DejaVu Sans', 'Bitstream Vera Sans', 'Computer Modern Sans Serif', 'Lucida Grande', 'Verdana', 'Geneva', 'Lucid', 'Arial', 'Helvetica', 'Avant Garde', sans-serif; text-anchor: middle" x="136.83589" y="155.242188" transform="rotate(-0 136.83589 155.242188)">50</text>
     </g>
    </g>
    <g id="xtick_4">
     <g id="line2d_4">
      <g>
       <use xlink:href="#m2c10a8522d" x="167.671591" y="140.64375" style="stroke: #000000; stroke-width: 0.8"/>
      </g>
     </g>
     <g id="text_4">
      <text style="font: 10px 'DejaVu Sans', 'Bitstream Vera Sans', 'Computer Modern Sans Serif', 'Lucida Grande', 'Verdana', 'Geneva', 'Lucid', 'Arial', 'Helvetica', 'Avant Garde', sans-serif; text-anchor: middle" x="167.671591" y="155.242188" transform="rotate(-0 167.671591 155.242188)">75</text>
     </g>
    </g>
    <g id="xtick_5">
     <g id="line2d_5">
      <g>
       <use xlink:href="#m2c10a8522d" x="198.507292" y="140.64375" style="stroke: #000000; stroke-width: 0.8"/>
      </g>
     </g>
     <g id="text_5">
      <text style="font: 10px 'DejaVu Sans', 'Bitstream Vera Sans', 'Computer Modern Sans Serif', 'Lucida Grande', 'Verdana', 'Geneva', 'Lucid', 'Arial', 'Helvetica', 'Avant Garde', sans-serif; text-anchor: middle" x="198.507292" y="155.242188" transform="rotate(-0 198.507292 155.242188)">100</text>
     </g>
    </g>
    <g id="xtick_6">
     <g id="line2d_6">
      <g>
       <use xlink:href="#m2c10a8522d" x="229.342992" y="140.64375" style="stroke: #000000; stroke-width: 0.8"/>
      </g>
     </g>
     <g id="text_6">
      <text style="font: 10px 'DejaVu Sans', 'Bitstream Vera Sans', 'Computer Modern Sans Serif', 'Lucida Grande', 'Verdana', 'Geneva', 'Lucid', 'Arial', 'Helvetica', 'Avant Garde', sans-serif; text-anchor: middle" x="229.342992" y="155.242188" transform="rotate(-0 229.342992 155.242188)">125</text>
     </g>
    </g>
    <g id="xtick_7">
     <g id="line2d_7">
      <g>
       <use xlink:href="#m2c10a8522d" x="260.178693" y="140.64375" style="stroke: #000000; stroke-width: 0.8"/>
      </g>
     </g>
     <g id="text_7">
      <text style="font: 10px 'DejaVu Sans', 'Bitstream Vera Sans', 'Computer Modern Sans Serif', 'Lucida Grande', 'Verdana', 'Geneva', 'Lucid', 'Arial', 'Helvetica', 'Avant Garde', sans-serif; text-anchor: middle" x="260.178693" y="155.242188" transform="rotate(-0 260.178693 155.242188)">150</text>
     </g>
    </g>
    <g id="text_8">
     <text style="font: 10px 'DejaVu Sans', 'Bitstream Vera Sans', 'Computer Modern Sans Serif', 'Lucida Grande', 'Verdana', 'Geneva', 'Lucid', 'Arial', 'Helvetica', 'Avant Garde', sans-serif; text-anchor: middle" x="171.371875" y="168.920312" transform="rotate(-0 171.371875 168.920312)">trial</text>
    </g>
   </g>
   <g id="matplotlib.axis_2">
    <g id="ytick_1">
     <g id="line2d_8">
      <defs>
       <path id="m3026bb73a6" d="M 0 0 
L -3.5 0 
" style="stroke: #000000; stroke-width: 0.8"/>
      </defs>
      <g>
       <use xlink:href="#m3026bb73a6" x="65.54375" y="135.265313" style="stroke: #000000; stroke-width: 0.8"/>
      </g>
     </g>
     <g id="text_9">
      <text style="font: 10px 'DejaVu Sans', 'Bitstream Vera Sans', 'Computer Modern Sans Serif', 'Lucida Grande', 'Verdana', 'Geneva', 'Lucid', 'Arial', 'Helvetica', 'Avant Garde', sans-serif; text-anchor: end" x="58.54375" y="139.064531" transform="rotate(-0 58.54375 139.064531)">0</text>
     </g>
    </g>
    <g id="ytick_2">
     <g id="line2d_9">
      <g>
       <use xlink:href="#m3026bb73a6" x="65.54375" y="102.112611" style="stroke: #000000; stroke-width: 0.8"/>
      </g>
     </g>
     <g id="text_10">
      <text style="font: 10px 'DejaVu Sans', 'Bitstream Vera Sans', 'Computer Modern Sans Serif', 'Lucida Grande', 'Verdana', 'Geneva', 'Lucid', 'Arial', 'Helvetica', 'Avant Garde', sans-serif; text-anchor: end" x="58.54375" y="105.91183" transform="rotate(-0 58.54375 105.91183)">100</text>
     </g>
    </g>
    <g id="ytick_3">
     <g id="line2d_10">
      <g>
       <use xlink:href="#m3026bb73a6" x="65.54375" y="68.95991" style="stroke: #000000; stroke-width: 0.8"/>
      </g>
     </g>
     <g id="text_11">
      <text style="font: 10px 'DejaVu Sans', 'Bitstream Vera Sans', 'Computer Modern Sans Serif', 'Lucida Grande', 'Verdana', 'Geneva', 'Lucid', 'Arial', 'Helvetica', 'Avant Garde', sans-serif; text-anchor: end" x="58.54375" y="72.759129" transform="rotate(-0 58.54375 72.759129)">200</text>
     </g>
    </g>
    <g id="ytick_4">
     <g id="line2d_11">
      <g>
       <use xlink:href="#m3026bb73a6" x="65.54375" y="35.807209" style="stroke: #000000; stroke-width: 0.8"/>
      </g>
     </g>
     <g id="text_12">
      <text style="font: 10px 'DejaVu Sans', 'Bitstream Vera Sans', 'Computer Modern Sans Serif', 'Lucida Grande', 'Verdana', 'Geneva', 'Lucid', 'Arial', 'Helvetica', 'Avant Garde', sans-serif; text-anchor: end" x="58.54375" y="39.606428" transform="rotate(-0 58.54375 39.606428)">300</text>
     </g>
    </g>
    <g id="text_13">
     <text style="font: 10px 'DejaVu Sans', 'Bitstream Vera Sans', 'Computer Modern Sans Serif', 'Lucida Grande', 'Verdana', 'Geneva', 'Lucid', 'Arial', 'Helvetica', 'Avant Garde', sans-serif; text-anchor: middle" x="33.376562" y="81.480937" transform="rotate(-90 33.376562 81.480937)">reward</text>
    </g>
   </g>
   <g id="line2d_12">
    <path d="M 75.164489 120.346597 
L 76.397917 75.258923 
L 77.631345 69.291437 
L 78.864773 104.101773 
L 80.098201 135.265313 
L 81.331629 115.705219 
L 82.565057 135.265313 
L 83.798485 115.705219 
L 85.031913 111.395368 
L 86.265341 112.721476 
L 87.498769 106.422463 
L 88.732197 102.775665 
L 89.965625 135.265313 
L 91.199053 122.004232 
L 92.432481 120.01507 
L 93.665909 121.009651 
L 94.899337 119.352016 
L 96.132765 118.357435 
L 97.366193 111.726895 
L 98.599621 107.085517 
L 99.833049 110.06926 
L 101.066477 89.183058 
L 102.299905 100.123449 
L 103.533333 112.389949 
L 104.766761 115.373692 
L 106.000189 105.759408 
L 107.233617 101.11803 
L 108.467045 101.781084 
L 109.700473 135.265313 
L 110.933902 135.265313 
L 112.16733 95.150544 
L 113.400758 98.134287 
L 114.634186 113.716057 
L 115.867614 135.265313 
L 117.101042 112.389949 
L 118.33447 109.406206 
L 119.567898 105.759408 
L 120.801326 108.080098 
L 122.034754 85.204734 
L 123.268182 135.265313 
L 124.50161 102.112611 
L 125.735038 135.265313 
L 126.968466 102.444138 
L 128.201894 104.101773 
L 129.435322 101.781084 
L 130.66875 106.090935 
L 131.902178 100.454976 
L 133.135606 135.265313 
L 135.602462 77.248085 
L 136.83589 135.265313 
L 138.069318 135.265313 
L 139.302746 110.400787 
L 140.536174 112.389949 
L 141.769602 109.074679 
L 143.00303 109.074679 
L 144.236458 111.395368 
L 145.469886 102.112611 
L 146.703314 112.721476 
L 147.936742 112.389949 
L 149.17017 104.4333 
L 150.403598 100.454976 
L 151.637027 99.460395 
L 152.870455 83.878626 
L 154.103883 76.916558 
L 155.337311 80.563356 
L 156.570739 135.265313 
L 157.804167 96.808179 
L 159.037595 94.819017 
L 160.271023 89.514585 
L 161.504451 135.265313 
L 162.737879 94.155963 
L 163.971307 105.759408 
L 165.204735 111.395368 
L 166.438163 111.395368 
L 167.671591 101.11803 
L 168.905019 101.11803 
L 170.138447 111.726895 
L 171.371875 135.265313 
L 172.605303 135.265313 
L 173.838731 101.449557 
L 175.072159 108.743152 
L 176.305587 135.265313 
L 177.539015 106.422463 
L 178.772443 117.362854 
L 180.005871 104.764827 
L 181.239299 101.449557 
L 182.472727 116.036746 
L 183.706155 100.123449 
L 184.939583 96.145125 
L 186.173011 114.047584 
L 187.406439 101.449557 
L 188.639867 111.063841 
L 189.873295 101.449557 
L 191.106723 101.11803 
L 192.340152 114.710638 
L 193.57358 93.161382 
L 194.807008 135.265313 
L 196.040436 112.058422 
L 197.273864 105.096354 
L 198.507292 102.444138 
L 199.74072 110.400787 
L 200.974148 95.150544 
L 202.207576 112.389949 
L 203.441004 105.096354 
L 204.674432 135.265313 
L 205.90786 93.492909 
L 207.141288 135.265313 
L 208.374716 99.791922 
L 209.608144 91.835274 
L 210.841572 86.862369 
L 212.075 102.112611 
L 213.308428 99.460395 
L 214.541856 99.128868 
L 215.775284 93.161382 
L 217.008712 92.498328 
L 218.24214 135.265313 
L 219.475568 90.177639 
L 220.708996 117.694381 
L 221.942424 135.265313 
L 223.175852 107.085517 
L 224.40928 112.058422 
L 225.642708 135.265313 
L 226.876136 110.06926 
L 228.109564 112.389949 
L 229.342992 82.220991 
L 230.57642 112.721476 
L 231.809848 111.395368 
L 233.043277 99.791922 
L 234.276705 102.444138 
L 235.510133 110.06926 
L 236.743561 104.764827 
L 237.976989 108.080098 
L 239.210417 106.422463 
L 240.443845 84.54168 
L 241.677273 135.265313 
L 242.910701 104.4333 
L 244.144129 102.112611 
L 245.377557 135.265313 
L 246.610985 111.395368 
L 247.844413 83.215572 
L 249.077841 82.884045 
L 250.311269 107.417044 
L 251.544697 77.248085 
L 252.778125 135.265313 
L 254.011553 99.791922 
L 255.244981 110.400787 
L 256.478409 107.085517 
L 257.711837 135.265313 
L 258.945265 82.220991 
L 260.178693 103.770246 
L 261.412121 105.096354 
L 262.645549 104.764827 
L 263.878977 104.764827 
L 265.112405 90.177639 
L 266.345833 77.91114 
L 267.579261 104.101773 
L 267.579261 104.101773 
" clip-path="url(#p34d94c471b)" style="fill: none; stroke: #1f77b4; stroke-linecap: square"/>
   </g>
   <g id="line2d_13">
    <path d="M 75.164489 92.072712 
L 76.397917 82.148639 
L 77.631345 100.388619 
L 78.864773 134.323723 
L 80.098201 135.265313 
L 81.331629 117.775107 
L 82.565057 135.265313 
L 83.798485 115.966297 
L 85.031913 123.7737 
L 86.265341 134.324831 
L 87.498769 123.285489 
L 88.732197 121.796492 
L 89.965625 135.265313 
L 91.199053 126.610119 
L 92.432481 123.498834 
L 93.665909 123.560615 
L 94.899337 131.954863 
L 96.132765 130.978833 
L 97.366193 118.238283 
L 98.599621 107.885926 
L 99.833049 124.690661 
L 101.066477 94.890121 
L 102.299905 119.608155 
L 103.533333 118.794469 
L 104.766761 124.652041 
L 106.000189 133.46275 
L 107.233617 116.563268 
L 108.467045 119.997923 
L 109.700473 135.265313 
L 110.933902 135.265313 
L 112.16733 121.939823 
L 113.400758 124.583151 
L 114.634186 115.683243 
L 115.867614 135.265313 
L 117.101042 131.958673 
L 118.33447 113.068087 
L 119.567898 124.945744 
L 120.801326 108.130903 
L 122.034754 133.546864 
L 123.268182 135.265313 
L 124.50161 104.481174 
L 125.735038 135.265313 
L 126.968466 103.622023 
L 128.201894 116.690168 
L 129.435322 103.269137 
L 130.66875 125.760246 
L 131.902178 124.445838 
L 133.135606 135.265313 
L 134.369034 113.162627 
L 135.602462 79.407467 
L 136.83589 135.265313 
L 138.069318 135.265313 
L 139.302746 111.567507 
L 140.536174 123.287902 
L 141.769602 113.468037 
L 143.00303 121.167315 
L 144.236458 114.154691 
L 145.469886 102.200112 
L 146.703314 119.030687 
L 147.936742 118.759364 
L 149.17017 132.80076 
L 150.403598 118.625116 
L 151.637027 113.093347 
L 152.870455 101.044327 
L 154.103883 94.58525 
L 155.337311 101.049751 
L 156.570739 135.265313 
L 157.804167 97.234368 
L 159.037595 114.512796 
L 160.271023 96.019276 
L 161.504451 135.265313 
L 162.737879 127.780546 
L 163.971307 58.308756 
L 165.204735 118.940634 
L 166.438163 116.34105 
L 167.671591 106.079811 
L 168.905019 111.528017 
L 170.138447 135.265313 
L 172.605303 135.265313 
L 173.838731 103.440627 
L 175.072159 113.405402 
L 176.305587 135.265313 
L 177.539015 135.265313 
L 178.772443 122.541236 
L 180.005871 116.566192 
L 181.239299 120.383849 
L 182.472727 120.181064 
L 183.706155 102.21619 
L 184.939583 98.555153 
L 186.173011 123.70812 
L 187.406439 118.106406 
L 188.639867 115.791408 
L 189.873295 115.623072 
L 191.106723 104.213628 
L 192.340152 122.377487 
L 193.57358 95.637632 
L 194.807008 135.265313 
L 196.040436 114.252821 
L 197.273864 106.313427 
L 198.507292 122.344677 
L 199.74072 117.547856 
L 200.974148 132.870256 
L 202.207576 116.942228 
L 203.441004 111.812178 
L 204.674432 135.265313 
L 205.90786 95.971083 
L 207.141288 135.265313 
L 208.374716 105.648144 
L 209.608144 114.272191 
L 210.841572 115.24112 
L 212.075 27.696563 
L 213.308428 109.480618 
L 214.541856 100.487524 
L 215.775284 125.440843 
L 217.008712 98.196747 
L 218.24214 135.265313 
L 219.475568 122.002581 
L 220.708996 135.265313 
L 221.942424 135.265313 
L 223.175852 109.545822 
L 224.40928 113.223291 
L 225.642708 135.265313 
L 226.876136 125.823357 
L 228.109564 88.400147 
L 229.342992 105.625292 
L 230.57642 81.002533 
L 231.809848 119.122978 
L 233.043277 57.806195 
L 234.276705 104.903661 
L 235.510133 127.65169 
L 236.743561 111.257133 
L 237.976989 118.584478 
L 239.210417 111.831769 
L 240.443845 125.281362 
L 241.677273 135.265313 
L 242.910701 116.082637 
L 244.144129 105.460449 
L 245.377557 135.265313 
L 246.610985 67.056837 
L 247.844413 94.380655 
L 249.077841 116.351419 
L 250.311269 108.103039 
L 251.544697 85.034051 
L 252.778125 135.265313 
L 254.011553 127.540328 
L 255.244981 115.069527 
L 256.478409 114.005133 
L 257.711837 135.265313 
L 258.945265 91.073428 
L 260.178693 105.431884 
L 261.412121 114.923439 
L 263.878977 120.094037 
L 266.345833 94.326747 
L 267.579261 116.697515 
L 267.579261 116.697515 
" clip-path="url(#p34d94c471b)" style="fill: none; stroke: #ff7f0e; stroke-opacity: 0.5; stroke-linecap: square"/>
   </g>
   <g id="patch_3">
    <path d="M 65.54375 140.64375 
L 65.54375 22.318125 
" style="fill: none; stroke: #000000; stroke-width: 0.8; stroke-linejoin: miter; stroke-linecap: square"/>
   </g>
   <g id="patch_4">
    <path d="M 65.54375 140.64375 
L 277.2 140.64375 
" style="fill: none; stroke: #000000; stroke-width: 0.8; stroke-linejoin: miter; stroke-linecap: square"/>
   </g>
   <g id="text_14">
    <text style="font: 12px 'DejaVu Sans', 'Bitstream Vera Sans', 'Computer Modern Sans Serif', 'Lucida Grande', 'Verdana', 'Geneva', 'Lucid', 'Arial', 'Helvetica', 'Avant Garde', sans-serif; text-anchor: middle" x="171.371875" y="16.318125" transform="rotate(-0 171.371875 16.318125)">202201 - reward</text>
   </g>
   <g id="legend_1">
    <g id="line2d_14">
     <path d="M 285.433125 30.416562 
L 285.433125 30.416562 
L 285.433125 30.416562 
" style="fill: none; stroke: #1f77b4; stroke-linecap: square"/>
    </g>
    <g id="text_15">
     <text style="fill: #1f77b4; font: 10px 'DejaVu Sans', 'Bitstream Vera Sans', 'Computer Modern Sans Serif', 'Lucida Grande', 'Verdana', 'Geneva', 'Lucid', 'Arial', 'Helvetica', 'Avant Garde', sans-serif; text-anchor: start" x="288.433125" y="33.916562" transform="rotate(-0 288.433125 33.916562)">real</text>
    </g>
    <g id="line2d_15">
     <path d="M 285.433125 45.094688 
L 285.433125 45.094688 
L 285.433125 45.094688 
" style="fill: none; stroke: #ff7f0e; stroke-opacity: 0.5; stroke-linecap: square"/>
    </g>
    <g id="text_16">
     <text style="fill: #ff7f0e; font: 10px 'DejaVu Sans', 'Bitstream Vera Sans', 'Computer Modern Sans Serif', 'Lucida Grande', 'Verdana', 'Geneva', 'Lucid', 'Arial', 'Helvetica', 'Avant Garde', sans-serif; text-anchor: start" x="288.433125" y="48.594688" transform="rotate(-0 288.433125 48.594688)">simulated</text>
    </g>
   </g>
  </g>
  <g id="axes_2">
   <g id="patch_5">
    <path d="M 65.54375 315.24375 
L 277.2 315.24375 
L 277.2 196.918125 
L 65.54375 196.918125 
z
" style="fill: #ffffff"/>
   </g>
   <g id="matplotlib.axis_3">
    <g id="xtick_8">
     <g id="line2d_16">
      <g>
       <use xlink:href="#m2c10a8522d" x="75.164489" y="315.24375" style="stroke: #000000; stroke-width: 0.8"/>
      </g>
     </g>
     <g id="text_17">
      <text style="font: 10px 'DejaVu Sans', 'Bitstream Vera Sans', 'Computer Modern Sans Serif', 'Lucida Grande', 'Verdana', 'Geneva', 'Lucid', 'Arial', 'Helvetica', 'Avant Garde', sans-serif; text-anchor: middle" x="75.164489" y="329.842187" transform="rotate(-0 75.164489 329.842187)">0</text>
     </g>
    </g>
    <g id="xtick_9">
     <g id="line2d_17">
      <g>
       <use xlink:href="#m2c10a8522d" x="106.000189" y="315.24375" style="stroke: #000000; stroke-width: 0.8"/>
      </g>
     </g>
     <g id="text_18">
      <text style="font: 10px 'DejaVu Sans', 'Bitstream Vera Sans', 'Computer Modern Sans Serif', 'Lucida Grande', 'Verdana', 'Geneva', 'Lucid', 'Arial', 'Helvetica', 'Avant Garde', sans-serif; text-anchor: middle" x="106.000189" y="329.842187" transform="rotate(-0 106.000189 329.842187)">25</text>
     </g>
    </g>
    <g id="xtick_10">
     <g id="line2d_18">
      <g>
       <use xlink:href="#m2c10a8522d" x="136.83589" y="315.24375" style="stroke: #000000; stroke-width: 0.8"/>
      </g>
     </g>
     <g id="text_19">
      <text style="font: 10px 'DejaVu Sans', 'Bitstream Vera Sans', 'Computer Modern Sans Serif', 'Lucida Grande', 'Verdana', 'Geneva', 'Lucid', 'Arial', 'Helvetica', 'Avant Garde', sans-serif; text-anchor: middle" x="136.83589" y="329.842187" transform="rotate(-0 136.83589 329.842187)">50</text>
     </g>
    </g>
    <g id="xtick_11">
     <g id="line2d_19">
      <g>
       <use xlink:href="#m2c10a8522d" x="167.671591" y="315.24375" style="stroke: #000000; stroke-width: 0.8"/>
      </g>
     </g>
     <g id="text_20">
      <text style="font: 10px 'DejaVu Sans', 'Bitstream Vera Sans', 'Computer Modern Sans Serif', 'Lucida Grande', 'Verdana', 'Geneva', 'Lucid', 'Arial', 'Helvetica', 'Avant Garde', sans-serif; text-anchor: middle" x="167.671591" y="329.842187" transform="rotate(-0 167.671591 329.842187)">75</text>
     </g>
    </g>
    <g id="xtick_12">
     <g id="line2d_20">
      <g>
       <use xlink:href="#m2c10a8522d" x="198.507292" y="315.24375" style="stroke: #000000; stroke-width: 0.8"/>
      </g>
     </g>
     <g id="text_21">
      <text style="font: 10px 'DejaVu Sans', 'Bitstream Vera Sans', 'Computer Modern Sans Serif', 'Lucida Grande', 'Verdana', 'Geneva', 'Lucid', 'Arial', 'Helvetica', 'Avant Garde', sans-serif; text-anchor: middle" x="198.507292" y="329.842187" transform="rotate(-0 198.507292 329.842187)">100</text>
     </g>
    </g>
    <g id="xtick_13">
     <g id="line2d_21">
      <g>
       <use xlink:href="#m2c10a8522d" x="229.342992" y="315.24375" style="stroke: #000000; stroke-width: 0.8"/>
      </g>
     </g>
     <g id="text_22">
      <text style="font: 10px 'DejaVu Sans', 'Bitstream Vera Sans', 'Computer Modern Sans Serif', 'Lucida Grande', 'Verdana', 'Geneva', 'Lucid', 'Arial', 'Helvetica', 'Avant Garde', sans-serif; text-anchor: middle" x="229.342992" y="329.842187" transform="rotate(-0 229.342992 329.842187)">125</text>
     </g>
    </g>
    <g id="xtick_14">
     <g id="line2d_22">
      <g>
       <use xlink:href="#m2c10a8522d" x="260.178693" y="315.24375" style="stroke: #000000; stroke-width: 0.8"/>
      </g>
     </g>
     <g id="text_23">
      <text style="font: 10px 'DejaVu Sans', 'Bitstream Vera Sans', 'Computer Modern Sans Serif', 'Lucida Grande', 'Verdana', 'Geneva', 'Lucid', 'Arial', 'Helvetica', 'Avant Garde', sans-serif; text-anchor: middle" x="260.178693" y="329.842187" transform="rotate(-0 260.178693 329.842187)">150</text>
     </g>
    </g>
    <g id="text_24">
     <text style="font: 10px 'DejaVu Sans', 'Bitstream Vera Sans', 'Computer Modern Sans Serif', 'Lucida Grande', 'Verdana', 'Geneva', 'Lucid', 'Arial', 'Helvetica', 'Avant Garde', sans-serif; text-anchor: middle" x="171.371875" y="343.520312" transform="rotate(-0 171.371875 343.520312)">trial</text>
    </g>
   </g>
   <g id="matplotlib.axis_4">
    <g id="ytick_5">
     <g id="line2d_23">
      <g>
       <use xlink:href="#m3026bb73a6" x="65.54375" y="309.865312" style="stroke: #000000; stroke-width: 0.8"/>
      </g>
     </g>
     <g id="text_25">
      <text style="font: 10px 'DejaVu Sans', 'Bitstream Vera Sans', 'Computer Modern Sans Serif', 'Lucida Grande', 'Verdana', 'Geneva', 'Lucid', 'Arial', 'Helvetica', 'Avant Garde', sans-serif; text-anchor: end" x="58.54375" y="313.664531" transform="rotate(-0 58.54375 313.664531)">banked</text>
     </g>
    </g>
    <g id="ytick_6">
     <g id="line2d_24">
      <g>
       <use xlink:href="#m3026bb73a6" x="65.54375" y="202.296562" style="stroke: #000000; stroke-width: 0.8"/>
      </g>
     </g>
     <g id="text_26">
      <text style="font: 10px 'DejaVu Sans', 'Bitstream Vera Sans', 'Computer Modern Sans Serif', 'Lucida Grande', 'Verdana', 'Geneva', 'Lucid', 'Arial', 'Helvetica', 'Avant Garde', sans-serif; text-anchor: end" x="58.54375" y="206.095781" transform="rotate(-0 58.54375 206.095781)">popped</text>
     </g>
    </g>
    <g id="text_27">
     <text style="font: 10px 'DejaVu Sans', 'Bitstream Vera Sans', 'Computer Modern Sans Serif', 'Lucida Grande', 'Verdana', 'Geneva', 'Lucid', 'Arial', 'Helvetica', 'Avant Garde', sans-serif; text-anchor: middle" x="14.798438" y="256.080937" transform="rotate(-90 14.798438 256.080937)">result</text>
    </g>
   </g>
   <g id="line2d_25">
    <path d="M 75.164489 309.865312 
L 78.864773 309.865312 
L 80.098201 202.296562 
L 81.331629 309.865312 
L 82.565057 202.296562 
L 83.798485 309.865312 
L 88.732197 309.865312 
L 89.965625 202.296562 
L 91.199053 309.865312 
L 108.467045 309.865312 
L 109.700473 202.296562 
L 110.933902 202.296562 
L 112.16733 309.865312 
L 114.634186 309.865312 
L 115.867614 202.296562 
L 117.101042 309.865312 
L 122.034754 309.865312 
L 123.268182 202.296562 
L 124.50161 309.865312 
L 125.735038 202.296562 
L 126.968466 309.865312 
L 131.902178 309.865312 
L 133.135606 202.296562 
L 134.369034 309.865312 
L 135.602462 309.865312 
L 136.83589 202.296562 
L 138.069318 202.296562 
L 139.302746 309.865312 
L 155.337311 309.865312 
L 156.570739 202.296562 
L 157.804167 309.865312 
L 160.271023 309.865312 
L 161.504451 202.296562 
L 162.737879 309.865312 
L 170.138447 309.865312 
L 171.371875 202.296562 
L 172.605303 202.296562 
L 173.838731 309.865312 
L 175.072159 309.865312 
L 176.305587 202.296562 
L 177.539015 309.865312 
L 193.57358 309.865312 
L 194.807008 202.296562 
L 196.040436 309.865312 
L 203.441004 309.865312 
L 204.674432 202.296562 
L 205.90786 309.865312 
L 207.141288 202.296562 
L 208.374716 309.865312 
L 217.008712 309.865312 
L 218.24214 202.296562 
L 219.475568 309.865312 
L 220.708996 309.865312 
L 221.942424 202.296562 
L 223.175852 309.865312 
L 224.40928 309.865312 
L 225.642708 202.296562 
L 226.876136 309.865312 
L 240.443845 309.865312 
L 241.677273 202.296562 
L 242.910701 309.865312 
L 244.144129 309.865312 
L 245.377557 202.296562 
L 246.610985 309.865312 
L 251.544697 309.865312 
L 252.778125 202.296562 
L 254.011553 309.865312 
L 256.478409 309.865312 
L 257.711837 202.296562 
L 258.945265 309.865312 
L 267.579261 309.865312 
L 267.579261 309.865312 
" clip-path="url(#pddfb943f89)" style="fill: none; stroke: #1f77b4; stroke-linecap: square"/>
   </g>
   <g id="line2d_26">
    <path d="M 75.164489 309.865312 
L 78.864773 309.865312 
L 80.098201 202.296562 
L 81.331629 309.865312 
L 82.565057 202.296562 
L 83.798485 309.865312 
L 88.732197 309.865312 
L 89.965625 202.296562 
L 91.199053 309.865312 
L 108.467045 309.865312 
L 109.700473 202.296562 
L 110.933902 202.296562 
L 112.16733 309.865312 
L 114.634186 309.865312 
L 115.867614 202.296562 
L 117.101042 309.865312 
L 122.034754 309.865312 
L 123.268182 202.296562 
L 124.50161 309.865312 
L 125.735038 202.296562 
L 126.968466 309.865312 
L 131.902178 309.865312 
L 133.135606 202.296562 
L 134.369034 309.865312 
L 135.602462 309.865312 
L 136.83589 202.296562 
L 138.069318 202.296562 
L 139.302746 309.865312 
L 155.337311 309.865312 
L 156.570739 202.296562 
L 157.804167 309.865312 
L 160.271023 309.865312 
L 161.504451 202.296562 
L 162.737879 309.865312 
L 168.905019 309.865312 
L 170.138447 202.296562 
L 172.605303 202.296562 
L 173.838731 309.865312 
L 175.072159 309.865312 
L 176.305587 202.296562 
L 177.539015 202.296562 
L 178.772443 309.865312 
L 193.57358 309.865312 
L 194.807008 202.296562 
L 196.040436 309.865312 
L 203.441004 309.865312 
L 204.674432 202.296562 
L 205.90786 309.865312 
L 207.141288 202.296562 
L 208.374716 309.865312 
L 217.008712 309.865312 
L 218.24214 202.296562 
L 219.475568 309.865312 
L 220.708996 202.296562 
L 221.942424 202.296562 
L 223.175852 309.865312 
L 224.40928 309.865312 
L 225.642708 202.296562 
L 226.876136 309.865312 
L 240.443845 309.865312 
L 241.677273 202.296562 
L 242.910701 309.865312 
L 244.144129 309.865312 
L 245.377557 202.296562 
L 246.610985 309.865312 
L 251.544697 309.865312 
L 252.778125 202.296562 
L 254.011553 309.865312 
L 256.478409 309.865312 
L 257.711837 202.296562 
L 258.945265 309.865312 
L 267.579261 309.865312 
L 267.579261 309.865312 
" clip-path="url(#pddfb943f89)" style="fill: none; stroke: #ff7f0e; stroke-opacity: 0.5; stroke-linecap: square"/>
   </g>
   <g id="patch_6">
    <path d="M 65.54375 315.24375 
L 65.54375 196.918125 
" style="fill: none; stroke: #000000; stroke-width: 0.8; stroke-linejoin: miter; stroke-linecap: square"/>
   </g>
   <g id="patch_7">
    <path d="M 65.54375 315.24375 
L 277.2 315.24375 
" style="fill: none; stroke: #000000; stroke-width: 0.8; stroke-linejoin: miter; stroke-linecap: square"/>
   </g>
   <g id="text_28">
    <text style="font: 12px 'DejaVu Sans', 'Bitstream Vera Sans', 'Computer Modern Sans Serif', 'Lucida Grande', 'Verdana', 'Geneva', 'Lucid', 'Arial', 'Helvetica', 'Avant Garde', sans-serif; text-anchor: middle" x="171.371875" y="190.918125" transform="rotate(-0 171.371875 190.918125)">202201 - result</text>
   </g>
   <g id="legend_2">
    <g id="line2d_27">
     <path d="M 285.433125 205.016562 
L 285.433125 205.016562 
L 285.433125 205.016562 
" style="fill: none; stroke: #1f77b4; stroke-linecap: square"/>
    </g>
    <g id="text_29">
     <text style="fill: #1f77b4; font: 10px 'DejaVu Sans', 'Bitstream Vera Sans', 'Computer Modern Sans Serif', 'Lucida Grande', 'Verdana', 'Geneva', 'Lucid', 'Arial', 'Helvetica', 'Avant Garde', sans-serif; text-anchor: start" x="288.433125" y="208.516562" transform="rotate(-0 288.433125 208.516562)">real</text>
    </g>
    <g id="line2d_28">
     <path d="M 285.433125 219.694687 
L 285.433125 219.694687 
L 285.433125 219.694687 
" style="fill: none; stroke: #ff7f0e; stroke-opacity: 0.5; stroke-linecap: square"/>
    </g>
    <g id="text_30">
     <text style="fill: #ff7f0e; font: 10px 'DejaVu Sans', 'Bitstream Vera Sans', 'Computer Modern Sans Serif', 'Lucida Grande', 'Verdana', 'Geneva', 'Lucid', 'Arial', 'Helvetica', 'Avant Garde', sans-serif; text-anchor: start" x="288.433125" y="223.194687" transform="rotate(-0 288.433125 223.194687)">simulated</text>
    </g>
   </g>
  </g>
 </g>
 <defs>
  <clipPath id="p34d94c471b">
   <rect x="65.54375" y="22.318125" width="211.65625" height="118.325625"/>
  </clipPath>
  <clipPath id="pddfb943f89">
   <rect x="65.54375" y="196.918125" width="211.65625" height="118.325625"/>
  </clipPath>
 </defs>
</svg>
