<?xml version="1.0" encoding="utf-8" standalone="no"?>
<!DOCTYPE svg PUBLIC "-//W3C//DTD SVG 1.1//EN"
  "http://www.w3.org/Graphics/SVG/1.1/DTD/svg11.dtd">
<svg xmlns:xlink="http://www.w3.org/1999/xlink" width="349.026875pt" height="352.8pt" viewBox="0 0 349.026875 352.8" xmlns="http://www.w3.org/2000/svg" version="1.1">
 <metadata>
  <rdf:RDF xmlns:dc="http://purl.org/dc/elements/1.1/" xmlns:cc="http://creativecommons.org/ns#" xmlns:rdf="http://www.w3.org/1999/02/22-rdf-syntax-ns#">
   <cc:Work>
    <dc:type rdf:resource="http://purl.org/dc/dcmitype/StillImage"/>
    <dc:date>2026-04-14T15:37:58.815369</dc:date>
    <dc:format>image/svg+xml</dc:format>
    <dc:creator>
     <cc:Agent>
      <dc:title>Matplotlib v3.9.2, https://matplotlib.org/</dc:title>
     </cc:Agent>
    </dc:creator>
   </cc:Work>
  </rdf:RDF>
 </metadata>
 <defs>
  <style type="text/css">*{stroke-linejoin: round; stroke-linecap: butt}</style>
 </defs>
 <g id="figure_1">
  <g id="patch_1">
   <path d="M 0 352.8 
L 349.026875 352.8 
L 349.026875 0 
L 0 0 
z
" style="fill: #ffffff"/>
  </g>
  <g id="axes_1">
   <g id="patch_2">
    <path d="M 65.54375 140.64375 
L 277.2 140.64375 
L 277.2 22.318125 
L 65.54375 22.318125 
z
" style="fill: #ffffff"/>
   </g>
   <g id="matplotlib.axis_1">
    <g id="xtick_1">
     <g id="line2d_1">
      <defs>
       <path id="m7864144afb" d="M 0 0 
L 0 3.5 
" style="stroke: #000000; stroke-width: 0.8"/>
      </defs>
      <g>
       <use xlink:href="#m7864144afb" x="75.164489" y="140.64375" style="stroke: #000000; stroke-width: 0.8"/>
      </g>
     </g>
     <g id="text_1">
      <text style="font: 10px 'DejaVu Sans', 'Bitstream Vera Sans', 'Computer Modern Sans Serif', 'Lucida Grande', 'Verdana', 'Geneva', 'Lucid', 'Arial', 'Helvetica', 'Avant Garde', sans-serif; text-anchor: middle" x="75.164489" y="155.242188" transform="rotate(-0 75.164489 155.242188)">0</text>
     </g>
    </g>
    <g id="xtick_2">
     <g id="line2d_2">
      <g>
       <use xlink:href="#m7864144afb" x="105.609864" y="140.64375" style="stroke: #000000; stroke-width: 0.8"/>
      </g>
     </g>
     <g id="text_2">
      <text style="font: 10px 'DejaVu Sans', 'Bitstream Vera Sans', 'Computer Modern Sans Serif', 'Lucida Grande', 'Verdana', 'Geneva', 'Lucid', 'Arial', 'Helvetica', 'Avant Garde', sans-serif; text-anchor: middle" x="105.609864" y="155.242188" transform="rotate(-0 105.609864 155.242188)">25</text>
     </g>
    </g>
    <g id="xtick_3">
     <g id="line2d_3">
      <g>
       <use xlink:href="#m7864144afb" x="136.055239" y="140.64375" style="stroke: #000000; stroke-width: 0.8"/>
      </g>
     </g>
     <g id="text_3">
      <text style="font: 10px 'DejaVu Sans', 'Bitstream Vera Sans', 'Computer Modern Sans Serif', 'Lucida Grande', 'Verdana', 'Geneva', 'Lucid', 'Arial', 'Helvetica', 'Avant Garde', sans-serif; text-anchor: middle" x="136.055239" y="155.242188" transform="rotate(-0 136.055239 155.242188)">50</text>
     </g>
    </g>
    <g id="xtick_4">
     <g id="line2d_4">
      <g>
       <use xlink:href="#m7864144afb" x="166.500615" y="140.64375" style="stroke: #000000; stroke-width: 0.8"/>
      </g>
     </g>
     <g id="text_4">
      <text style="font: 10px 'DejaVu Sans', 'Bitstream Vera Sans', 'Computer Modern Sans Serif', 'Lucida Grande', 'Verdana', 'Geneva', 'Lucid', 'Arial', 'Helvetica', 'Avant Garde', sans-serif; text-anchor: middle" x="166.500615" y="155.242188" transform="rotate(-0 166.500615 155.242188)">75</text>
     </g>
    </g>
    <g id="xtick_5">
     <g id="line2d_5">
      <g>
       <use xlink:href="#m7864144afb" x="196.94599" y="140.64375" style="stroke: #000000; stroke-width: 0.8"/>
      </g>
     </g>
     <g id="text_5">
      <text style="font: 10px 'DejaVu Sans', 'Bitstream Vera Sans', 'Computer Modern Sans Serif', 'Lucida Grande', 'Verdana', 'Geneva', 'Lucid', 'Arial', 'Helvetica', 'Avant Garde', sans-serif; text-anchor: middle" x="196.94599" y="155.242188" transform="rotate(-0 196.94599 155.242188)">100</text>
     </g>
    </g>
    <g id="xtick_6">
     <g id="line2d_6">
      <g>
       <use xlink:href="#m7864144afb" x="227.391366" y="140.64375" style="stroke: #000000; stroke-width: 0.8"/>
      </g>
     </g>
     <g id="text_6">
      <text style="font: 10px 'DejaVu Sans', 'Bitstream Vera Sans', 'Computer Modern Sans Serif', 'Lucida Grande', 'Verdana', 'Geneva', 'Lucid', 'Arial', 'Helvetica', 'Avant Garde', sans-serif; text-anchor: middle" x="227.391366" y="155.242188" transform="rotate(-0 227.391366 155.242188)">125</text>
     </g>
    </g>
    <g id="xtick_7">
     <g id="line2d_7">
      <g>
       <use xlink:href="#m7864144afb" x="257.836741" y="140.64375" style="stroke: #000000; stroke-width: 0.8"/>
      </g>
     </g>
     <g id="text_7">
      <text style="font: 10px 'DejaVu Sans', 'Bitstream Vera Sans', 'Computer Modern Sans Serif', 'Lucida Grande', 'Verdana', 'Geneva', 'Lucid', 'Arial', 'Helvetica', 'Avant Garde', sans-serif; text-anchor: middle" x="257.836741" y="155.242188" transform="rotate(-0 257.836741 155.242188)">150</text>
     </g>
    </g>
    <g id="text_8">
     <text style="font: 10px 'DejaVu Sans', 'Bitstream Vera Sans', 'Computer Modern Sans Serif', 'Lucida Grande', 'Verdana', 'Geneva', 'Lucid', 'Arial', 'Helvetica', 'Avant Garde', sans-serif; text-anchor: middle" x="171.371875" y="168.920312" transform="rotate(-0 171.371875 168.920312)">trial</text>
    </g>
   </g>
   <g id="matplotlib.axis_2">
    <g id="ytick_1">
     <g id="line2d_8">
      <defs>
       <path id="m085bad96f3" d="M 0 0 
L -3.5 0 
" style="stroke: #000000; stroke-width: 0.8"/>
      </defs>
      <g>
       <use xlink:href="#m085bad96f3" x="65.54375" y="135.265313" style="stroke: #000000; stroke-width: 0.8"/>
      </g>
     </g>
     <g id="text_9">
      <text style="font: 10px 'DejaVu Sans', 'Bitstream Vera Sans', 'Computer Modern Sans Serif', 'Lucida Grande', 'Verdana', 'Geneva', 'Lucid', 'Arial', 'Helvetica', 'Avant Garde', sans-serif; text-anchor: end" x="58.54375" y="139.064531" transform="rotate(-0 58.54375 139.064531)">0</text>
     </g>
    </g>
    <g id="ytick_2">
     <g id="line2d_9">
      <g>
       <use xlink:href="#m085bad96f3" x="65.54375" y="93.746515" style="stroke: #000000; stroke-width: 0.8"/>
      </g>
     </g>
     <g id="text_10">
      <text style="font: 10px 'DejaVu Sans', 'Bitstream Vera Sans', 'Computer Modern Sans Serif', 'Lucida Grande', 'Verdana', 'Geneva', 'Lucid', 'Arial', 'Helvetica', 'Avant Garde', sans-serif; text-anchor: end" x="58.54375" y="97.545734" transform="rotate(-0 58.54375 97.545734)">200</text>
     </g>
    </g>
    <g id="ytick_3">
     <g id="line2d_10">
      <g>
       <use xlink:href="#m085bad96f3" x="65.54375" y="52.227718" style="stroke: #000000; stroke-width: 0.8"/>
      </g>
     </g>
     <g id="text_11">
      <text style="font: 10px 'DejaVu Sans', 'Bitstream Vera Sans', 'Computer Modern Sans Serif', 'Lucida Grande', 'Verdana', 'Geneva', 'Lucid', 'Arial', 'Helvetica', 'Avant Garde', sans-serif; text-anchor: end" x="58.54375" y="56.026937" transform="rotate(-0 58.54375 56.026937)">400</text>
     </g>
    </g>
    <g id="text_12">
     <text style="font: 10px 'DejaVu Sans', 'Bitstream Vera Sans', 'Computer Modern Sans Serif', 'Lucida Grande', 'Verdana', 'Geneva', 'Lucid', 'Arial', 'Helvetica', 'Avant Garde', sans-serif; text-anchor: middle" x="33.376562" y="81.480937" transform="rotate(-90 33.376562 81.480937)">reward</text>
    </g>
   </g>
   <g id="line2d_11">
    <path d="M 75.164489 129.037493 
L 76.382304 87.518696 
L 77.600119 81.49847 
L 78.817934 116.581854 
L 80.035749 135.265313 
L 83.689194 135.265313 
L 84.907009 122.809673 
L 86.124824 118.035012 
L 87.342639 108.278094 
L 88.560454 103.711027 
L 89.778269 120.110952 
L 90.996084 120.733733 
L 92.213899 135.265313 
L 93.431714 118.865388 
L 95.867344 118.4502 
L 97.085159 116.581854 
L 98.302974 118.035012 
L 99.520789 111.599598 
L 100.738604 92.916139 
L 101.956419 91.670575 
L 103.174234 114.921102 
L 104.392049 111.807192 
L 105.609864 93.538921 
L 106.827679 114.713508 
L 108.045494 122.394485 
L 109.263309 135.265313 
L 110.481124 124.470425 
L 111.698939 135.265313 
L 112.916754 125.300801 
L 114.134569 124.885613 
L 115.352384 123.640049 
L 116.570199 124.470425 
L 117.788014 135.265313 
L 119.005829 107.03253 
L 120.223644 109.938846 
L 121.441459 90.217418 
L 122.659274 135.265313 
L 123.877089 111.599598 
L 125.094904 135.265313 
L 126.312719 135.265313 
L 127.530534 113.883132 
L 128.748349 135.265313 
L 129.966164 90.8402 
L 131.183979 120.526139 
L 132.401794 101.842681 
L 133.619609 98.313583 
L 134.837424 135.265313 
L 136.055239 118.242606 
L 137.273055 121.564109 
L 138.49087 117.827418 
L 139.708685 115.751478 
L 142.144315 91.255387 
L 143.36213 91.670575 
L 144.579945 118.035012 
L 145.79776 135.265313 
L 147.015575 115.959072 
L 148.23339 123.640049 
L 149.451205 123.017267 
L 150.66902 135.265313 
L 151.886835 125.508395 
L 153.10465 123.432455 
L 154.322465 110.354034 
L 155.54028 121.771703 
L 156.758095 123.640049 
L 157.97591 120.110952 
L 159.193725 114.921102 
L 160.41154 119.072982 
L 161.629355 135.265313 
L 162.84717 123.224861 
L 164.064985 119.695764 
L 165.2828 135.265313 
L 166.500615 106.202154 
L 167.71843 106.617342 
L 168.936245 123.847643 
L 170.15406 122.602079 
L 171.371875 122.186891 
L 172.58969 111.18441 
L 173.807505 124.470425 
L 176.243135 108.485688 
L 177.46095 118.657794 
L 178.678765 106.409748 
L 179.89658 86.480726 
L 181.114395 135.265313 
L 182.33221 135.265313 
L 183.550025 93.538921 
L 184.76784 118.242606 
L 185.985655 124.470425 
L 187.20347 121.564109 
L 188.421285 108.693282 
L 189.6391 116.166666 
L 190.856915 122.809673 
L 192.07473 104.956591 
L 193.292545 124.678019 
L 194.51036 120.733733 
L 195.728175 122.186891 
L 196.94599 115.751478 
L 198.163805 135.265313 
L 199.38162 117.827418 
L 200.599435 113.883132 
L 201.81725 120.110952 
L 203.035065 117.204636 
L 204.25288 94.161703 
L 206.688511 135.265313 
L 207.906326 87.311102 
L 209.124141 135.265313 
L 210.341956 99.559147 
L 211.559771 118.242606 
L 212.777586 114.921102 
L 213.995401 94.992079 
L 215.213216 110.976816 
L 216.431031 135.265313 
L 217.648846 94.992079 
L 218.866661 135.265313 
L 220.084476 118.4502 
L 221.302291 135.265313 
L 222.520106 124.470425 
L 223.737921 124.055237 
L 224.955736 135.265313 
L 226.173551 112.637568 
L 227.391366 98.105989 
L 228.609181 135.265313 
L 229.826996 119.072982 
L 231.044811 99.143959 
L 232.262626 121.356515 
L 233.480441 122.394485 
L 234.698256 115.751478 
L 235.916071 121.356515 
L 237.133886 135.265313 
L 238.351701 105.371779 
L 239.569516 120.526139 
L 240.787331 114.505914 
L 242.005146 121.979297 
L 243.222961 105.786966 
L 244.440776 116.37426 
L 245.658591 100.597117 
L 246.876406 98.521177 
L 248.094221 120.733733 
L 249.312036 116.37426 
L 250.529851 85.442756 
L 251.747666 78.38456 
L 252.965481 117.827418 
L 254.183296 118.242606 
L 255.401111 115.751478 
L 256.618926 77.761778 
L 257.836741 135.265313 
L 259.054556 112.845162 
L 260.272371 117.827418 
L 261.490186 112.429974 
L 262.708001 135.265313 
L 263.925816 87.518696 
L 265.143631 135.265313 
L 266.361446 100.804711 
L 267.579261 120.318546 
L 267.579261 120.318546 
" clip-path="url(#p5a91363de0)" style="fill: none; stroke: #1f77b4; stroke-linecap: square"/>
   </g>
   <g id="line2d_12">
    <path d="M 75.164489 118.953703 
L 76.382304 88.299283 
L 77.600119 100.743385 
L 80.035749 135.265313 
L 83.689194 135.265313 
L 84.907009 131.203802 
L 86.124824 123.353902 
L 87.342639 110.025632 
L 88.560454 124.080413 
L 89.778269 124.962388 
L 90.996084 135.265313 
L 92.213899 135.265313 
L 93.431714 119.645871 
L 94.649529 118.683393 
L 95.867344 122.649681 
L 97.085159 120.88721 
L 98.302974 123.300399 
L 99.520789 135.265313 
L 100.738604 109.266777 
L 101.956419 100.107317 
L 103.174234 127.143708 
L 104.392049 113.743442 
L 105.609864 109.945437 
L 106.827679 103.984475 
L 108.045494 135.265313 
L 109.263309 135.265313 
L 110.481124 134.503123 
L 111.698939 135.265313 
L 112.916754 97.647539 
L 114.134569 132.479405 
L 115.352384 123.728275 
L 116.570199 73.078221 
L 117.788014 135.265313 
L 119.005829 110.20551 
L 120.223644 120.707008 
L 121.441459 125.901987 
L 122.659274 135.265313 
L 123.877089 121.293247 
L 125.094904 135.265313 
L 126.312719 135.265313 
L 127.530534 117.248354 
L 128.748349 135.265313 
L 129.966164 92.381081 
L 131.183979 119.011965 
L 132.401794 114.168946 
L 133.619609 103.018866 
L 134.837424 135.265313 
L 136.055239 120.264825 
L 137.273055 127.97306 
L 138.49087 118.820587 
L 139.708685 127.273407 
L 140.9265 119.319104 
L 142.144315 98.869421 
L 143.36213 104.748199 
L 145.79776 135.265313 
L 147.015575 85.725035 
L 148.23339 135.265313 
L 149.451205 123.736853 
L 150.66902 135.265313 
L 151.886835 135.265313 
L 153.10465 125.780519 
L 154.322465 112.26339 
L 155.54028 122.392144 
L 156.758095 128.256105 
L 157.97591 120.726132 
L 159.193725 121.957579 
L 160.41154 121.534423 
L 161.629355 135.265313 
L 162.84717 93.734399 
L 164.064985 125.57414 
L 165.2828 135.265313 
L 166.500615 128.562943 
L 168.936245 83.775764 
L 170.15406 129.924049 
L 171.371875 123.918722 
L 172.58969 67.387247 
L 173.807505 106.934735 
L 175.02532 130.043002 
L 176.243135 121.542975 
L 177.46095 127.996274 
L 178.678765 116.945587 
L 179.89658 108.727809 
L 181.114395 135.265313 
L 182.33221 135.265313 
L 183.550025 106.519097 
L 184.76784 122.01432 
L 185.985655 131.793564 
L 187.20347 112.977272 
L 188.421285 83.509956 
L 189.6391 118.691887 
L 190.856915 113.612654 
L 192.07473 121.377338 
L 193.292545 95.226433 
L 194.51036 122.760007 
L 195.728175 100.228522 
L 196.94599 133.568987 
L 198.163805 135.265313 
L 199.38162 135.265313 
L 200.599435 116.916666 
L 201.81725 128.278115 
L 203.035065 127.258567 
L 204.25288 114.893734 
L 205.470695 115.39656 
L 206.688511 135.265313 
L 207.906326 112.155921 
L 209.124141 135.265313 
L 210.341956 115.133255 
L 211.559771 130.972472 
L 212.777586 122.873127 
L 213.995401 124.701897 
L 215.213216 125.586609 
L 216.431031 135.265313 
L 217.648846 104.575043 
L 218.866661 135.265313 
L 220.084476 118.6251 
L 221.302291 135.265313 
L 222.520106 124.640405 
L 223.737921 126.507832 
L 224.955736 135.265313 
L 226.173551 132.718078 
L 227.391366 86.465109 
L 228.609181 135.265313 
L 229.826996 122.41344 
L 231.044811 27.696563 
L 232.262626 131.460581 
L 233.480441 133.313126 
L 234.698256 132.463064 
L 235.916071 122.682478 
L 237.133886 135.265313 
L 238.351701 78.507005 
L 239.569516 132.448231 
L 240.787331 118.816644 
L 242.005146 125.728569 
L 243.222961 135.265313 
L 244.440776 84.852874 
L 245.658591 120.645874 
L 246.876406 102.084112 
L 248.094221 121.646795 
L 249.312036 91.918649 
L 250.529851 94.144251 
L 251.747666 97.498024 
L 252.965481 99.566973 
L 254.183296 118.270131 
L 255.401111 119.33422 
L 256.618926 101.635216 
L 257.836741 135.265313 
L 259.054556 127.73014 
L 260.272371 124.957988 
L 261.490186 117.474397 
L 262.708001 135.265313 
L 265.143631 135.265313 
L 266.361446 133.602248 
L 267.579261 125.691146 
L 267.579261 125.691146 
" clip-path="url(#p5a91363de0)" style="fill: none; stroke: #ff7f0e; stroke-opacity: 0.5; stroke-linecap: square"/>
   </g>
   <g id="patch_3">
    <path d="M 65.54375 140.64375 
L 65.54375 22.318125 
" style="fill: none; stroke: #000000; stroke-width: 0.8; stroke-linejoin: miter; stroke-linecap: square"/>
   </g>
   <g id="patch_4">
    <path d="M 65.54375 140.64375 
L 277.2 140.64375 
" style="fill: none; stroke: #000000; stroke-width: 0.8; stroke-linejoin: miter; stroke-linecap: square"/>
   </g>
   <g id="text_13">
    <text style="font: 12px 'DejaVu Sans', 'Bitstream Vera Sans', 'Computer Modern Sans Serif', 'Lucida Grande', 'Verdana', 'Geneva', 'Lucid', 'Arial', 'Helvetica', 'Avant Garde', sans-serif; text-anchor: middle" x="171.371875" y="16.318125" transform="rotate(-0 171.371875 16.318125)">202217 - reward</text>
   </g>
   <g id="legend_1">
    <g id="line2d_13">
     <path d="M 285.433125 30.416562 
L 285.433125 30.416562 
L 285.433125 30.416562 
" style="fill: none; stroke: #1f77b4; stroke-linecap: square"/>
    </g>
    <g id="text_14">
     <text style="fill: #1f77b4; font: 10px 'DejaVu Sans', 'Bitstream Vera Sans', 'Computer Modern Sans Serif', 'Lucida Grande', 'Verdana', 'Geneva', 'Lucid', 'Arial', 'Helvetica', 'Avant Garde', sans-serif; text-anchor: start" x="288.433125" y="33.916562" transform="rotate(-0 288.433125 33.916562)">real</text>
    </g>
    <g id="line2d_14">
     <path d="M 285.433125 45.094688 
L 285.433125 45.094688 
L 285.433125 45.094688 
" style="fill: none; stroke: #ff7f0e; stroke-opacity: 0.5; stroke-linecap: square"/>
    </g>
    <g id="text_15">
     <text style="fill: #ff7f0e; font: 10px 'DejaVu Sans', 'Bitstream Vera Sans', 'Computer Modern Sans Serif', 'Lucida Grande', 'Verdana', 'Geneva', 'Lucid', 'Arial', 'Helvetica', 'Avant Garde', sans-serif; text-anchor: start" x="288.433125" y="48.594688" transform="rotate(-0 288.433125 48.594688)">simulated</text>
    </g>
   </g>
  </g>
  <g id="axes_2">
   <g id="patch_5">
    <path d="M 65.54375 315.24375 
L 277.2 315.24375 
L 277.2 196.918125 
L 65.54375 196.918125 
z
" style="fill: #ffffff"/>
   </g>
   <g id="matplotlib.axis_3">
    <g id="xtick_8">
     <g id="line2d_15">
      <g>
       <use xlink:href="#m7864144afb" x="75.164489" y="315.24375" style="stroke: #000000; stroke-width: 0.8"/>
      </g>
     </g>
     <g id="text_16">
      <text style="font: 10px 'DejaVu Sans', 'Bitstream Vera Sans', 'Computer Modern Sans Serif', 'Lucida Grande', 'Verdana', 'Geneva', 'Lucid', 'Arial', 'Helvetica', 'Avant Garde', sans-serif; text-anchor: middle" x="75.164489" y="329.842187" transform="rotate(-0 75.164489 329.842187)">0</text>
     </g>
    </g>
    <g id="xtick_9">
     <g id="line2d_16">
      <g>
       <use xlink:href="#m7864144afb" x="105.609864" y="315.24375" style="stroke: #000000; stroke-width: 0.8"/>
      </g>
     </g>
     <g id="text_17">
      <text style="font: 10px 'DejaVu Sans', 'Bitstream Vera Sans', 'Computer Modern Sans Serif', 'Lucida Grande', 'Verdana', 'Geneva', 'Lucid', 'Arial', 'Helvetica', 'Avant Garde', sans-serif; text-anchor: middle" x="105.609864" y="329.842187" transform="rotate(-0 105.609864 329.842187)">25</text>
     </g>
    </g>
    <g id="xtick_10">
     <g id="line2d_17">
      <g>
       <use xlink:href="#m7864144afb" x="136.055239" y="315.24375" style="stroke: #000000; stroke-width: 0.8"/>
      </g>
     </g>
     <g id="text_18">
      <text style="font: 10px 'DejaVu Sans', 'Bitstream Vera Sans', 'Computer Modern Sans Serif', 'Lucida Grande', 'Verdana', 'Geneva', 'Lucid', 'Arial', 'Helvetica', 'Avant Garde', sans-serif; text-anchor: middle" x="136.055239" y="329.842187" transform="rotate(-0 136.055239 329.842187)">50</text>
     </g>
    </g>
    <g id="xtick_11">
     <g id="line2d_18">
      <g>
       <use xlink:href="#m7864144afb" x="166.500615" y="315.24375" style="stroke: #000000; stroke-width: 0.8"/>
      </g>
     </g>
     <g id="text_19">
      <text style="font: 10px 'DejaVu Sans', 'Bitstream Vera Sans', 'Computer Modern Sans Serif', 'Lucida Grande', 'Verdana', 'Geneva', 'Lucid', 'Arial', 'Helvetica', 'Avant Garde', sans-serif; text-anchor: middle" x="166.500615" y="329.842187" transform="rotate(-0 166.500615 329.842187)">75</text>
     </g>
    </g>
    <g id="xtick_12">
     <g id="line2d_19">
      <g>
       <use xlink:href="#m7864144afb" x="196.94599" y="315.24375" style="stroke: #000000; stroke-width: 0.8"/>
      </g>
     </g>
     <g id="text_20">
      <text style="font: 10px 'DejaVu Sans', 'Bitstream Vera Sans', 'Computer Modern Sans Serif', 'Lucida Grande', 'Verdana', 'Geneva', 'Lucid', 'Arial', 'Helvetica', 'Avant Garde', sans-serif; text-anchor: middle" x="196.94599" y="329.842187" transform="rotate(-0 196.94599 329.842187)">100</text>
     </g>
    </g>
    <g id="xtick_13">
     <g id="line2d_20">
      <g>
       <use xlink:href="#m7864144afb" x="227.391366" y="315.24375" style="stroke: #000000; stroke-width: 0.8"/>
      </g>
     </g>
     <g id="text_21">
      <text style="font: 10px 'DejaVu Sans', 'Bitstream Vera Sans', 'Computer Modern Sans Serif', 'Lucida Grande', 'Verdana', 'Geneva', 'Lucid', 'Arial', 'Helvetica', 'Avant Garde', sans-serif; text-anchor: middle" x="227.391366" y="329.842187" transform="rotate(-0 227.391366 329.842187)">125</text>
     </g>
    </g>
    <g id="xtick_14">
     <g id="line2d_21">
      <g>
       <use xlink:href="#m7864144afb" x="257.836741" y="315.24375" style="stroke: #000000; stroke-width: 0.8"/>
      </g>
     </g>
     <g id="text_22">
      <text style="font: 10px 'DejaVu Sans', 'Bitstream Vera Sans', 'Computer Modern Sans Serif', 'Lucida Grande', 'Verdana', 'Geneva', 'Lucid', 'Arial', 'Helvetica', 'Avant Garde', sans-serif; text-anchor: middle" x="257.836741" y="329.842187" transform="rotate(-0 257.836741 329.842187)">150</text>
     </g>
    </g>
    <g id="text_23">
     <text style="font: 10px 'DejaVu Sans', 'Bitstream Vera Sans', 'Computer Modern Sans Serif', 'Lucida Grande', 'Verdana', 'Geneva', 'Lucid', 'Arial', 'Helvetica', 'Avant Garde', sans-serif; text-anchor: middle" x="171.371875" y="343.520312" transform="rotate(-0 171.371875 343.520312)">trial</text>
    </g>
   </g>
   <g id="matplotlib.axis_4">
    <g id="ytick_4">
     <g id="line2d_22">
      <g>
       <use xlink:href="#m085bad96f3" x="65.54375" y="309.865312" style="stroke: #000000; stroke-width: 0.8"/>
      </g>
     </g>
     <g id="text_24">
      <text style="font: 10px 'DejaVu Sans', 'Bitstream Vera Sans', 'Computer Modern Sans Serif', 'Lucida Grande', 'Verdana', 'Geneva', 'Lucid', 'Arial', 'Helvetica', 'Avant Garde', sans-serif; text-anchor: end" x="58.54375" y="313.664531" transform="rotate(-0 58.54375 313.664531)">banked</text>
     </g>
    </g>
    <g id="ytick_5">
     <g id="line2d_23">
      <g>
       <use xlink:href="#m085bad96f3" x="65.54375" y="202.296562" style="stroke: #000000; stroke-width: 0.8"/>
      </g>
     </g>
     <g id="text_25">
      <text style="font: 10px 'DejaVu Sans', 'Bitstream Vera Sans', 'Computer Modern Sans Serif', 'Lucida Grande', 'Verdana', 'Geneva', 'Lucid', 'Arial', 'Helvetica', 'Avant Garde', sans-serif; text-anchor: end" x="58.54375" y="206.095781" transform="rotate(-0 58.54375 206.095781)">popped</text>
     </g>
    </g>
    <g id="text_26">
     <text style="font: 10px 'DejaVu Sans', 'Bitstream Vera Sans', 'Computer Modern Sans Serif', 'Lucida Grande', 'Verdana', 'Geneva', 'Lucid', 'Arial', 'Helvetica', 'Avant Garde', sans-serif; text-anchor: middle" x="14.798438" y="256.080937" transform="rotate(-90 14.798438 256.080937)">result</text>
    </g>
   </g>
   <g id="line2d_24">
    <path d="M 75.164489 309.865312 
L 78.817934 309.865312 
L 80.035749 202.296562 
L 83.689194 202.296562 
L 84.907009 309.865312 
L 90.996084 309.865312 
L 92.213899 202.296562 
L 93.431714 309.865312 
L 108.045494 309.865312 
L 109.263309 202.296562 
L 110.481124 309.865312 
L 111.698939 202.296562 
L 112.916754 309.865312 
L 116.570199 309.865312 
L 117.788014 202.296562 
L 119.005829 309.865312 
L 121.441459 309.865312 
L 122.659274 202.296562 
L 123.877089 309.865312 
L 125.094904 202.296562 
L 126.312719 202.296562 
L 127.530534 309.865312 
L 128.748349 202.296562 
L 129.966164 309.865312 
L 133.619609 309.865312 
L 134.837424 202.296562 
L 136.055239 309.865312 
L 144.579945 309.865312 
L 145.79776 202.296562 
L 147.015575 309.865312 
L 149.451205 309.865312 
L 150.66902 202.296562 
L 151.886835 309.865312 
L 160.41154 309.865312 
L 161.629355 202.296562 
L 162.84717 309.865312 
L 164.064985 309.865312 
L 165.2828 202.296562 
L 166.500615 309.865312 
L 179.89658 309.865312 
L 181.114395 202.296562 
L 182.33221 202.296562 
L 183.550025 309.865312 
L 196.94599 309.865312 
L 198.163805 202.296562 
L 199.38162 309.865312 
L 205.470695 309.865312 
L 206.688511 202.296562 
L 207.906326 309.865312 
L 209.124141 202.296562 
L 210.341956 309.865312 
L 215.213216 309.865312 
L 216.431031 202.296562 
L 217.648846 309.865312 
L 218.866661 202.296562 
L 220.084476 309.865312 
L 221.302291 202.296562 
L 222.520106 309.865312 
L 223.737921 309.865312 
L 224.955736 202.296562 
L 226.173551 309.865312 
L 227.391366 309.865312 
L 228.609181 202.296562 
L 229.826996 309.865312 
L 235.916071 309.865312 
L 237.133886 202.296562 
L 238.351701 309.865312 
L 256.618926 309.865312 
L 257.836741 202.296562 
L 259.054556 309.865312 
L 261.490186 309.865312 
L 262.708001 202.296562 
L 263.925816 309.865312 
L 265.143631 202.296562 
L 266.361446 309.865312 
L 267.579261 309.865312 
L 267.579261 309.865312 
" clip-path="url(#p60ce3bc42b)" style="fill: none; stroke: #1f77b4; stroke-linecap: square"/>
   </g>
   <g id="line2d_25">
    <path d="M 75.164489 309.865312 
L 78.817934 309.865312 
L 80.035749 202.296562 
L 83.689194 202.296562 
L 84.907009 309.865312 
L 89.778269 309.865312 
L 90.996084 202.296562 
L 92.213899 202.296562 
L 93.431714 309.865312 
L 98.302974 309.865312 
L 99.520789 202.296562 
L 100.738604 309.865312 
L 106.827679 309.865312 
L 108.045494 202.296562 
L 109.263309 202.296562 
L 110.481124 309.865312 
L 111.698939 202.296562 
L 112.916754 309.865312 
L 116.570199 309.865312 
L 117.788014 202.296562 
L 119.005829 309.865312 
L 121.441459 309.865312 
L 122.659274 202.296562 
L 123.877089 309.865312 
L 125.094904 202.296562 
L 126.312719 202.296562 
L 127.530534 309.865312 
L 128.748349 202.296562 
L 129.966164 309.865312 
L 133.619609 309.865312 
L 134.837424 202.296562 
L 136.055239 309.865312 
L 144.579945 309.865312 
L 145.79776 202.296562 
L 147.015575 309.865312 
L 148.23339 202.296562 
L 149.451205 309.865312 
L 150.66902 202.296562 
L 151.886835 202.296562 
L 153.10465 309.865312 
L 160.41154 309.865312 
L 161.629355 202.296562 
L 162.84717 309.865312 
L 164.064985 309.865312 
L 165.2828 202.296562 
L 166.500615 309.865312 
L 179.89658 309.865312 
L 181.114395 202.296562 
L 182.33221 202.296562 
L 183.550025 309.865312 
L 196.94599 309.865312 
L 198.163805 202.296562 
L 199.38162 202.296562 
L 200.599435 309.865312 
L 205.470695 309.865312 
L 206.688511 202.296562 
L 207.906326 309.865312 
L 209.124141 202.296562 
L 210.341956 309.865312 
L 215.213216 309.865312 
L 216.431031 202.296562 
L 217.648846 309.865312 
L 218.866661 202.296562 
L 220.084476 309.865312 
L 221.302291 202.296562 
L 222.520106 309.865312 
L 223.737921 309.865312 
L 224.955736 202.296562 
L 226.173551 309.865312 
L 227.391366 309.865312 
L 228.609181 202.296562 
L 229.826996 309.865312 
L 235.916071 309.865312 
L 237.133886 202.296562 
L 238.351701 309.865312 
L 242.005146 309.865312 
L 243.222961 202.296562 
L 244.440776 309.865312 
L 256.618926 309.865312 
L 257.836741 202.296562 
L 259.054556 309.865312 
L 261.490186 309.865312 
L 262.708001 202.296562 
L 265.143631 202.296562 
L 266.361446 309.865312 
L 267.579261 309.865312 
L 267.579261 309.865312 
" clip-path="url(#p60ce3bc42b)" style="fill: none; stroke: #ff7f0e; stroke-opacity: 0.5; stroke-linecap: square"/>
   </g>
   <g id="patch_6">
    <path d="M 65.54375 315.24375 
L 65.54375 196.918125 
" style="fill: none; stroke: #000000; stroke-width: 0.8; stroke-linejoin: miter; stroke-linecap: square"/>
   </g>
   <g id="patch_7">
    <path d="M 65.54375 315.24375 
L 277.2 315.24375 
" style="fill: none; stroke: #000000; stroke-width: 0.8; stroke-linejoin: miter; stroke-linecap: square"/>
   </g>
   <g id="text_27">
    <text style="font: 12px 'DejaVu Sans', 'Bitstream Vera Sans', 'Computer Modern Sans Serif', 'Lucida Grande', 'Verdana', 'Geneva', 'Lucid', 'Arial', 'Helvetica', 'Avant Garde', sans-serif; text-anchor: middle" x="171.371875" y="190.918125" transform="rotate(-0 171.371875 190.918125)">202217 - result</text>
   </g>
   <g id="legend_2">
    <g id="line2d_26">
     <path d="M 285.433125 205.016562 
L 285.433125 205.016562 
L 285.433125 205.016562 
" style="fill: none; stroke: #1f77b4; stroke-linecap: square"/>
    </g>
    <g id="text_28">
     <text style="fill: #1f77b4; font: 10px 'DejaVu Sans', 'Bitstream Vera Sans', 'Computer Modern Sans Serif', 'Lucida Grande', 'Verdana', 'Geneva', 'Lucid', 'Arial', 'Helvetica', 'Avant Garde', sans-serif; text-anchor: start" x="288.433125" y="208.516562" transform="rotate(-0 288.433125 208.516562)">real</text>
    </g>
    <g id="line2d_27">
     <path d="M 285.433125 219.694687 
L 285.433125 219.694687 
L 285.433125 219.694687 
" style="fill: none; stroke: #ff7f0e; stroke-opacity: 0.5; stroke-linecap: square"/>
    </g>
    <g id="text_29">
     <text style="fill: #ff7f0e; font: 10px 'DejaVu Sans', 'Bitstream Vera Sans', 'Computer Modern Sans Serif', 'Lucida Grande', 'Verdana', 'Geneva', 'Lucid', 'Arial', 'Helvetica', 'Avant Garde', sans-serif; text-anchor: start" x="288.433125" y="223.194687" transform="rotate(-0 288.433125 223.194687)">simulated</text>
    </g>
   </g>
  </g>
 </g>
 <defs>
  <clipPath id="p5a91363de0">
   <rect x="65.54375" y="22.318125" width="211.65625" height="118.325625"/>
  </clipPath>
  <clipPath id="p60ce3bc42b">
   <rect x="65.54375" y="196.918125" width="211.65625" height="118.325625"/>
  </clipPath>
 </defs>
</svg>
