<?xml version="1.0" encoding="utf-8" standalone="no"?>
<!DOCTYPE svg PUBLIC "-//W3C//DTD SVG 1.1//EN"
  "http://www.w3.org/Graphics/SVG/1.1/DTD/svg11.dtd">
<svg xmlns:xlink="http://www.w3.org/1999/xlink" width="349.026875pt" height="352.8pt" viewBox="0 0 349.026875 352.8" xmlns="http://www.w3.org/2000/svg" version="1.1">
 <metadata>
  <rdf:RDF xmlns:dc="http://purl.org/dc/elements/1.1/" xmlns:cc="http://creativecommons.org/ns#" xmlns:rdf="http://www.w3.org/1999/02/22-rdf-syntax-ns#">
   <cc:Work>
    <dc:type rdf:resource="http://purl.org/dc/dcmitype/StillImage"/>
    <dc:date>2026-04-14T15:38:05.657525</dc:date>
    <dc:format>image/svg+xml</dc:format>
    <dc:creator>
     <cc:Agent>
      <dc:title>Matplotlib v3.9.2, https://matplotlib.org/</dc:title>
     </cc:Agent>
    </dc:creator>
   </cc:Work>
  </rdf:RDF>
 </metadata>
 <defs>
  <style type="text/css">*{stroke-linejoin: round; stroke-linecap: butt}</style>
 </defs>
 <g id="figure_1">
  <g id="patch_1">
   <path d="M 0 352.8 
L 349.026875 352.8 
L 349.026875 0 
L 0 0 
z
" style="fill: #ffffff"/>
  </g>
  <g id="axes_1">
   <g id="patch_2">
    <path d="M 65.54375 140.64375 
L 277.2 140.64375 
L 277.2 22.318125 
L 65.54375 22.318125 
z
" style="fill: #ffffff"/>
   </g>
   <g id="matplotlib.axis_1">
    <g id="xtick_1">
     <g id="line2d_1">
      <defs>
       <path id="m453c29aab4" d="M 0 0 
L 0 3.5 
" style="stroke: #000000; stroke-width: 0.8"/>
      </defs>
      <g>
       <use xlink:href="#m453c29aab4" x="75.164489" y="140.64375" style="stroke: #000000; stroke-width: 0.8"/>
      </g>
     </g>
     <g id="text_1">
      <text style="font: 10px 'DejaVu Sans', 'Bitstream Vera Sans', 'Computer Modern Sans Serif', 'Lucida Grande', 'Verdana', 'Geneva', 'Lucid', 'Arial', 'Helvetica', 'Avant Garde', sans-serif; text-anchor: middle" x="75.164489" y="155.242188" transform="rotate(-0 75.164489 155.242188)">0</text>
     </g>
    </g>
    <g id="xtick_2">
     <g id="line2d_2">
      <g>
       <use xlink:href="#m453c29aab4" x="112.16733" y="140.64375" style="stroke: #000000; stroke-width: 0.8"/>
      </g>
     </g>
     <g id="text_2">
      <text style="font: 10px 'DejaVu Sans', 'Bitstream Vera Sans', 'Computer Modern Sans Serif', 'Lucida Grande', 'Verdana', 'Geneva', 'Lucid', 'Arial', 'Helvetica', 'Avant Garde', sans-serif; text-anchor: middle" x="112.16733" y="155.242188" transform="rotate(-0 112.16733 155.242188)">20</text>
     </g>
    </g>
    <g id="xtick_3">
     <g id="line2d_3">
      <g>
       <use xlink:href="#m453c29aab4" x="149.17017" y="140.64375" style="stroke: #000000; stroke-width: 0.8"/>
      </g>
     </g>
     <g id="text_3">
      <text style="font: 10px 'DejaVu Sans', 'Bitstream Vera Sans', 'Computer Modern Sans Serif', 'Lucida Grande', 'Verdana', 'Geneva', 'Lucid', 'Arial', 'Helvetica', 'Avant Garde', sans-serif; text-anchor: middle" x="149.17017" y="155.242188" transform="rotate(-0 149.17017 155.242188)">40</text>
     </g>
    </g>
    <g id="xtick_4">
     <g id="line2d_4">
      <g>
       <use xlink:href="#m453c29aab4" x="186.173011" y="140.64375" style="stroke: #000000; stroke-width: 0.8"/>
      </g>
     </g>
     <g id="text_4">
      <text style="font: 10px 'DejaVu Sans', 'Bitstream Vera Sans', 'Computer Modern Sans Serif', 'Lucida Grande', 'Verdana', 'Geneva', 'Lucid', 'Arial', 'Helvetica', 'Avant Garde', sans-serif; text-anchor: middle" x="186.173011" y="155.242188" transform="rotate(-0 186.173011 155.242188)">60</text>
     </g>
    </g>
    <g id="xtick_5">
     <g id="line2d_5">
      <g>
       <use xlink:href="#m453c29aab4" x="223.175852" y="140.64375" style="stroke: #000000; stroke-width: 0.8"/>
      </g>
     </g>
     <g id="text_5">
      <text style="font: 10px 'DejaVu Sans', 'Bitstream Vera Sans', 'Computer Modern Sans Serif', 'Lucida Grande', 'Verdana', 'Geneva', 'Lucid', 'Arial', 'Helvetica', 'Avant Garde', sans-serif; text-anchor: middle" x="223.175852" y="155.242188" transform="rotate(-0 223.175852 155.242188)">80</text>
     </g>
    </g>
    <g id="xtick_6">
     <g id="line2d_6">
      <g>
       <use xlink:href="#m453c29aab4" x="260.178693" y="140.64375" style="stroke: #000000; stroke-width: 0.8"/>
      </g>
     </g>
     <g id="text_6">
      <text style="font: 10px 'DejaVu Sans', 'Bitstream Vera Sans', 'Computer Modern Sans Serif', 'Lucida Grande', 'Verdana', 'Geneva', 'Lucid', 'Arial', 'Helvetica', 'Avant Garde', sans-serif; text-anchor: middle" x="260.178693" y="155.242188" transform="rotate(-0 260.178693 155.242188)">100</text>
     </g>
    </g>
    <g id="text_7">
     <text style="font: 10px 'DejaVu Sans', 'Bitstream Vera Sans', 'Computer Modern Sans Serif', 'Lucida Grande', 'Verdana', 'Geneva', 'Lucid', 'Arial', 'Helvetica', 'Avant Garde', sans-serif; text-anchor: middle" x="171.371875" y="168.920312" transform="rotate(-0 171.371875 168.920312)">trial</text>
    </g>
   </g>
   <g id="matplotlib.axis_2">
    <g id="ytick_1">
     <g id="line2d_7">
      <defs>
       <path id="m49ef3e7a98" d="M 0 0 
L -3.5 0 
" style="stroke: #000000; stroke-width: 0.8"/>
      </defs>
      <g>
       <use xlink:href="#m49ef3e7a98" x="65.54375" y="135.265313" style="stroke: #000000; stroke-width: 0.8"/>
      </g>
     </g>
     <g id="text_8">
      <text style="font: 10px 'DejaVu Sans', 'Bitstream Vera Sans', 'Computer Modern Sans Serif', 'Lucida Grande', 'Verdana', 'Geneva', 'Lucid', 'Arial', 'Helvetica', 'Avant Garde', sans-serif; text-anchor: end" x="58.54375" y="139.064531" transform="rotate(-0 58.54375 139.064531)">0</text>
     </g>
    </g>
    <g id="ytick_2">
     <g id="line2d_8">
      <g>
       <use xlink:href="#m49ef3e7a98" x="65.54375" y="102.394108" style="stroke: #000000; stroke-width: 0.8"/>
      </g>
     </g>
     <g id="text_9">
      <text style="font: 10px 'DejaVu Sans', 'Bitstream Vera Sans', 'Computer Modern Sans Serif', 'Lucida Grande', 'Verdana', 'Geneva', 'Lucid', 'Arial', 'Helvetica', 'Avant Garde', sans-serif; text-anchor: end" x="58.54375" y="106.193327" transform="rotate(-0 58.54375 106.193327)">100</text>
     </g>
    </g>
    <g id="ytick_3">
     <g id="line2d_9">
      <g>
       <use xlink:href="#m49ef3e7a98" x="65.54375" y="69.522904" style="stroke: #000000; stroke-width: 0.8"/>
      </g>
     </g>
     <g id="text_10">
      <text style="font: 10px 'DejaVu Sans', 'Bitstream Vera Sans', 'Computer Modern Sans Serif', 'Lucida Grande', 'Verdana', 'Geneva', 'Lucid', 'Arial', 'Helvetica', 'Avant Garde', sans-serif; text-anchor: end" x="58.54375" y="73.322122" transform="rotate(-0 58.54375 73.322122)">200</text>
     </g>
    </g>
    <g id="ytick_4">
     <g id="line2d_10">
      <g>
       <use xlink:href="#m49ef3e7a98" x="65.54375" y="36.651699" style="stroke: #000000; stroke-width: 0.8"/>
      </g>
     </g>
     <g id="text_11">
      <text style="font: 10px 'DejaVu Sans', 'Bitstream Vera Sans', 'Computer Modern Sans Serif', 'Lucida Grande', 'Verdana', 'Geneva', 'Lucid', 'Arial', 'Helvetica', 'Avant Garde', sans-serif; text-anchor: end" x="58.54375" y="40.450918" transform="rotate(-0 58.54375 40.450918)">300</text>
     </g>
    </g>
    <g id="text_12">
     <text style="font: 10px 'DejaVu Sans', 'Bitstream Vera Sans', 'Computer Modern Sans Serif', 'Lucida Grande', 'Verdana', 'Geneva', 'Lucid', 'Arial', 'Helvetica', 'Avant Garde', sans-serif; text-anchor: middle" x="33.376562" y="81.480937" transform="rotate(-90 33.376562 81.480937)">reward</text>
    </g>
   </g>
   <g id="line2d_11">
    <path d="M 75.164489 112.912893 
L 77.014631 135.265313 
L 78.864773 105.023804 
L 80.714915 104.36638 
L 82.565057 99.106988 
L 84.415199 85.958506 
L 86.265341 96.806003 
L 88.115483 82.342673 
L 89.965625 78.726841 
L 91.815767 96.477291 
L 93.665909 135.265313 
L 95.516051 88.25949 
L 97.366193 86.944642 
L 99.216335 135.265313 
L 101.066477 135.265313 
L 102.916619 99.764412 
L 104.766761 102.065396 
L 106.616903 81.685249 
L 108.467045 135.265313 
L 110.317188 104.037668 
L 112.16733 102.394108 
L 114.017472 95.162443 
L 115.867614 93.518883 
L 117.717756 74.782296 
L 119.567898 86.944642 
L 121.41804 135.265313 
L 123.268182 92.204035 
L 125.118324 135.265313 
L 126.968466 135.265313 
L 128.818608 115.213878 
L 130.66875 99.764412 
L 132.518892 92.532747 
L 134.369034 102.72282 
L 136.219176 102.394108 
L 138.069318 102.065396 
L 139.91946 96.806003 
L 141.769602 95.162443 
L 143.619744 83.32881 
L 145.469886 135.265313 
L 147.320028 100.093124 
L 149.17017 98.778276 
L 151.020312 135.265313 
L 152.870455 102.72282 
L 154.720597 135.265313 
L 156.570739 67.550631 
L 158.420881 135.265313 
L 160.271023 135.265313 
L 162.121165 135.265313 
L 163.971307 86.61593 
L 165.821449 135.265313 
L 167.671591 135.265313 
L 169.521733 103.380244 
L 171.371875 135.265313 
L 173.222017 97.463427 
L 175.072159 135.265313 
L 176.922301 95.491155 
L 178.772443 71.823888 
L 180.622585 83.657522 
L 182.472727 82.671385 
L 184.322869 88.25949 
L 186.173011 135.265313 
L 188.023153 135.265313 
L 189.873295 91.546611 
L 191.723437 135.265313 
L 193.57358 135.265313 
L 195.423722 135.265313 
L 197.273864 102.394108 
L 199.124006 135.265313 
L 200.974148 91.875323 
L 202.82429 74.782296 
L 204.674432 84.314946 
L 206.524574 68.86548 
L 208.374716 135.265313 
L 210.224858 135.265313 
L 212.075 101.736684 
L 213.925142 83.657522 
L 215.775284 99.4357 
L 217.625426 107.324789 
L 219.475568 135.265313 
L 221.32571 86.61593 
L 223.175852 100.093124 
L 225.025994 135.265313 
L 226.876136 135.265313 
L 228.726278 99.764412 
L 230.57642 135.265313 
L 232.426562 92.204035 
L 234.276705 135.265313 
L 236.126847 99.764412 
L 237.976989 135.265313 
L 239.827131 135.265313 
L 241.677273 135.265313 
L 243.527415 89.574338 
L 245.377557 135.265313 
L 247.227699 135.265313 
L 249.077841 135.265313 
L 250.927983 87.930778 
L 252.778125 82.671385 
L 254.628267 69.194192 
L 256.478409 101.736684 
L 258.328551 101.07926 
L 260.178693 85.301082 
L 262.028835 109.297061 
L 263.878977 103.380244 
L 265.729119 98.449564 
L 267.579261 94.505019 
" clip-path="url(#p94b222d927)" style="fill: none; stroke: #1f77b4; stroke-linecap: square"/>
   </g>
   <g id="line2d_12">
    <path d="M 75.164489 102.351222 
L 77.014631 135.265313 
L 78.864773 111.581335 
L 80.714915 110.715635 
L 82.565057 108.672072 
L 84.415199 102.306047 
L 86.265341 98.33985 
L 88.115483 89.550031 
L 89.965625 129.525804 
L 91.815767 97.014529 
L 93.665909 135.265313 
L 95.516051 124.842085 
L 97.366193 94.81852 
L 99.216335 135.265313 
L 101.066477 135.265313 
L 102.916619 135.265313 
L 104.766761 94.896464 
L 106.616903 92.36466 
L 108.467045 135.265313 
L 110.317188 120.790619 
L 112.16733 117.827013 
L 114.017472 98.329395 
L 115.867614 61.014266 
L 117.717756 125.347726 
L 119.567898 90.658678 
L 121.41804 135.265313 
L 123.268182 77.048661 
L 125.118324 135.265313 
L 126.968466 135.265313 
L 128.818608 135.265313 
L 130.66875 135.265313 
L 132.518892 113.40128 
L 134.369034 133.687041 
L 136.219176 117.951151 
L 138.069318 114.152581 
L 139.91946 135.265313 
L 141.769602 135.265313 
L 143.619744 84.076996 
L 145.469886 135.265313 
L 147.320028 44.675711 
L 149.17017 99.120209 
L 151.020312 135.265313 
L 152.870455 120.13318 
L 154.720597 135.265313 
L 156.570739 94.693786 
L 158.420881 135.265313 
L 160.271023 135.265313 
L 162.121165 135.265313 
L 163.971307 107.216782 
L 165.821449 135.265313 
L 167.671591 135.265313 
L 169.521733 135.265313 
L 171.371875 135.265313 
L 173.222017 128.778272 
L 175.072159 135.265313 
L 176.922301 120.451309 
L 178.772443 124.371764 
L 180.622585 98.28842 
L 182.472727 86.785401 
L 184.322869 33.408398 
L 186.173011 135.265313 
L 188.023153 135.265313 
L 189.873295 100.97178 
L 191.723437 135.265313 
L 193.57358 135.265313 
L 195.423722 135.265313 
L 197.273864 111.507144 
L 199.124006 135.265313 
L 200.974148 27.696563 
L 202.82429 77.451669 
L 204.674432 92.233751 
L 206.524574 78.221777 
L 208.374716 135.265313 
L 210.224858 135.265313 
L 212.075 135.265313 
L 213.925142 87.35773 
L 215.775284 28.8865 
L 217.625426 135.265313 
L 219.475568 135.265313 
L 221.32571 98.993603 
L 223.175852 77.904481 
L 225.025994 135.265313 
L 226.876136 135.265313 
L 228.726278 117.755674 
L 230.57642 135.265313 
L 232.426562 111.747654 
L 234.276705 135.265313 
L 236.126847 101.734277 
L 237.976989 135.265313 
L 239.827131 135.265313 
L 241.677273 135.265313 
L 243.527415 107.87575 
L 245.377557 135.265313 
L 247.227699 135.265313 
L 249.077841 135.265313 
L 250.927983 99.249448 
L 252.778125 87.620969 
L 254.628267 69.338449 
L 256.478409 135.265313 
L 258.328551 83.379159 
L 260.178693 133.804045 
L 262.028835 120.48743 
L 263.878977 111.180156 
L 265.729119 135.265313 
L 267.579261 114.339096 
" clip-path="url(#p94b222d927)" style="fill: none; stroke: #ff7f0e; stroke-opacity: 0.5; stroke-linecap: square"/>
   </g>
   <g id="patch_3">
    <path d="M 65.54375 140.64375 
L 65.54375 22.318125 
" style="fill: none; stroke: #000000; stroke-width: 0.8; stroke-linejoin: miter; stroke-linecap: square"/>
   </g>
   <g id="patch_4">
    <path d="M 65.54375 140.64375 
L 277.2 140.64375 
" style="fill: none; stroke: #000000; stroke-width: 0.8; stroke-linejoin: miter; stroke-linecap: square"/>
   </g>
   <g id="text_13">
    <text style="font: 12px 'DejaVu Sans', 'Bitstream Vera Sans', 'Computer Modern Sans Serif', 'Lucida Grande', 'Verdana', 'Geneva', 'Lucid', 'Arial', 'Helvetica', 'Avant Garde', sans-serif; text-anchor: middle" x="171.371875" y="16.318125" transform="rotate(-0 171.371875 16.318125)">202405 - reward</text>
   </g>
   <g id="legend_1">
    <g id="line2d_13">
     <path d="M 285.433125 30.416562 
L 285.433125 30.416562 
L 285.433125 30.416562 
" style="fill: none; stroke: #1f77b4; stroke-linecap: square"/>
    </g>
    <g id="text_14">
     <text style="fill: #1f77b4; font: 10px 'DejaVu Sans', 'Bitstream Vera Sans', 'Computer Modern Sans Serif', 'Lucida Grande', 'Verdana', 'Geneva', 'Lucid', 'Arial', 'Helvetica', 'Avant Garde', sans-serif; text-anchor: start" x="288.433125" y="33.916562" transform="rotate(-0 288.433125 33.916562)">real</text>
    </g>
    <g id="line2d_14">
     <path d="M 285.433125 45.094688 
L 285.433125 45.094688 
L 285.433125 45.094688 
" style="fill: none; stroke: #ff7f0e; stroke-opacity: 0.5; stroke-linecap: square"/>
    </g>
    <g id="text_15">
     <text style="fill: #ff7f0e; font: 10px 'DejaVu Sans', 'Bitstream Vera Sans', 'Computer Modern Sans Serif', 'Lucida Grande', 'Verdana', 'Geneva', 'Lucid', 'Arial', 'Helvetica', 'Avant Garde', sans-serif; text-anchor: start" x="288.433125" y="48.594688" transform="rotate(-0 288.433125 48.594688)">simulated</text>
    </g>
   </g>
  </g>
  <g id="axes_2">
   <g id="patch_5">
    <path d="M 65.54375 315.24375 
L 277.2 315.24375 
L 277.2 196.918125 
L 65.54375 196.918125 
z
" style="fill: #ffffff"/>
   </g>
   <g id="matplotlib.axis_3">
    <g id="xtick_7">
     <g id="line2d_15">
      <g>
       <use xlink:href="#m453c29aab4" x="75.164489" y="315.24375" style="stroke: #000000; stroke-width: 0.8"/>
      </g>
     </g>
     <g id="text_16">
      <text style="font: 10px 'DejaVu Sans', 'Bitstream Vera Sans', 'Computer Modern Sans Serif', 'Lucida Grande', 'Verdana', 'Geneva', 'Lucid', 'Arial', 'Helvetica', 'Avant Garde', sans-serif; text-anchor: middle" x="75.164489" y="329.842187" transform="rotate(-0 75.164489 329.842187)">0</text>
     </g>
    </g>
    <g id="xtick_8">
     <g id="line2d_16">
      <g>
       <use xlink:href="#m453c29aab4" x="112.16733" y="315.24375" style="stroke: #000000; stroke-width: 0.8"/>
      </g>
     </g>
     <g id="text_17">
      <text style="font: 10px 'DejaVu Sans', 'Bitstream Vera Sans', 'Computer Modern Sans Serif', 'Lucida Grande', 'Verdana', 'Geneva', 'Lucid', 'Arial', 'Helvetica', 'Avant Garde', sans-serif; text-anchor: middle" x="112.16733" y="329.842187" transform="rotate(-0 112.16733 329.842187)">20</text>
     </g>
    </g>
    <g id="xtick_9">
     <g id="line2d_17">
      <g>
       <use xlink:href="#m453c29aab4" x="149.17017" y="315.24375" style="stroke: #000000; stroke-width: 0.8"/>
      </g>
     </g>
     <g id="text_18">
      <text style="font: 10px 'DejaVu Sans', 'Bitstream Vera Sans', 'Computer Modern Sans Serif', 'Lucida Grande', 'Verdana', 'Geneva', 'Lucid', 'Arial', 'Helvetica', 'Avant Garde', sans-serif; text-anchor: middle" x="149.17017" y="329.842187" transform="rotate(-0 149.17017 329.842187)">40</text>
     </g>
    </g>
    <g id="xtick_10">
     <g id="line2d_18">
      <g>
       <use xlink:href="#m453c29aab4" x="186.173011" y="315.24375" style="stroke: #000000; stroke-width: 0.8"/>
      </g>
     </g>
     <g id="text_19">
      <text style="font: 10px 'DejaVu Sans', 'Bitstream Vera Sans', 'Computer Modern Sans Serif', 'Lucida Grande', 'Verdana', 'Geneva', 'Lucid', 'Arial', 'Helvetica', 'Avant Garde', sans-serif; text-anchor: middle" x="186.173011" y="329.842187" transform="rotate(-0 186.173011 329.842187)">60</text>
     </g>
    </g>
    <g id="xtick_11">
     <g id="line2d_19">
      <g>
       <use xlink:href="#m453c29aab4" x="223.175852" y="315.24375" style="stroke: #000000; stroke-width: 0.8"/>
      </g>
     </g>
     <g id="text_20">
      <text style="font: 10px 'DejaVu Sans', 'Bitstream Vera Sans', 'Computer Modern Sans Serif', 'Lucida Grande', 'Verdana', 'Geneva', 'Lucid', 'Arial', 'Helvetica', 'Avant Garde', sans-serif; text-anchor: middle" x="223.175852" y="329.842187" transform="rotate(-0 223.175852 329.842187)">80</text>
     </g>
    </g>
    <g id="xtick_12">
     <g id="line2d_20">
      <g>
       <use xlink:href="#m453c29aab4" x="260.178693" y="315.24375" style="stroke: #000000; stroke-width: 0.8"/>
      </g>
     </g>
     <g id="text_21">
      <text style="font: 10px 'DejaVu Sans', 'Bitstream Vera Sans', 'Computer Modern Sans Serif', 'Lucida Grande', 'Verdana', 'Geneva', 'Lucid', 'Arial', 'Helvetica', 'Avant Garde', sans-serif; text-anchor: middle" x="260.178693" y="329.842187" transform="rotate(-0 260.178693 329.842187)">100</text>
     </g>
    </g>
    <g id="text_22">
     <text style="font: 10px 'DejaVu Sans', 'Bitstream Vera Sans', 'Computer Modern Sans Serif', 'Lucida Grande', 'Verdana', 'Geneva', 'Lucid', 'Arial', 'Helvetica', 'Avant Garde', sans-serif; text-anchor: middle" x="171.371875" y="343.520312" transform="rotate(-0 171.371875 343.520312)">trial</text>
    </g>
   </g>
   <g id="matplotlib.axis_4">
    <g id="ytick_5">
     <g id="line2d_21">
      <g>
       <use xlink:href="#m49ef3e7a98" x="65.54375" y="309.865312" style="stroke: #000000; stroke-width: 0.8"/>
      </g>
     </g>
     <g id="text_23">
      <text style="font: 10px 'DejaVu Sans', 'Bitstream Vera Sans', 'Computer Modern Sans Serif', 'Lucida Grande', 'Verdana', 'Geneva', 'Lucid', 'Arial', 'Helvetica', 'Avant Garde', sans-serif; text-anchor: end" x="58.54375" y="313.664531" transform="rotate(-0 58.54375 313.664531)">banked</text>
     </g>
    </g>
    <g id="ytick_6">
     <g id="line2d_22">
      <g>
       <use xlink:href="#m49ef3e7a98" x="65.54375" y="202.296562" style="stroke: #000000; stroke-width: 0.8"/>
      </g>
     </g>
     <g id="text_24">
      <text style="font: 10px 'DejaVu Sans', 'Bitstream Vera Sans', 'Computer Modern Sans Serif', 'Lucida Grande', 'Verdana', 'Geneva', 'Lucid', 'Arial', 'Helvetica', 'Avant Garde', sans-serif; text-anchor: end" x="58.54375" y="206.095781" transform="rotate(-0 58.54375 206.095781)">popped</text>
     </g>
    </g>
    <g id="text_25">
     <text style="font: 10px 'DejaVu Sans', 'Bitstream Vera Sans', 'Computer Modern Sans Serif', 'Lucida Grande', 'Verdana', 'Geneva', 'Lucid', 'Arial', 'Helvetica', 'Avant Garde', sans-serif; text-anchor: middle" x="14.798438" y="256.080937" transform="rotate(-90 14.798438 256.080937)">result</text>
    </g>
   </g>
   <g id="line2d_23">
    <path d="M 75.164489 309.865312 
L 77.014631 202.296562 
L 78.864773 309.865312 
L 80.714915 309.865312 
L 82.565057 309.865312 
L 84.415199 309.865312 
L 86.265341 309.865312 
L 88.115483 309.865312 
L 89.965625 309.865312 
L 91.815767 309.865312 
L 93.665909 202.296562 
L 95.516051 309.865312 
L 97.366193 309.865312 
L 99.216335 202.296562 
L 101.066477 202.296562 
L 102.916619 309.865312 
L 104.766761 309.865312 
L 106.616903 309.865312 
L 108.467045 202.296562 
L 110.317188 309.865312 
L 112.16733 309.865312 
L 114.017472 309.865312 
L 115.867614 309.865312 
L 117.717756 309.865312 
L 119.567898 309.865312 
L 121.41804 202.296562 
L 123.268182 309.865312 
L 125.118324 202.296562 
L 126.968466 202.296562 
L 128.818608 309.865312 
L 130.66875 309.865312 
L 132.518892 309.865312 
L 134.369034 309.865312 
L 136.219176 309.865312 
L 138.069318 309.865312 
L 139.91946 309.865312 
L 141.769602 309.865312 
L 143.619744 309.865312 
L 145.469886 202.296562 
L 147.320028 309.865312 
L 149.17017 309.865312 
L 151.020312 202.296562 
L 152.870455 309.865312 
L 154.720597 202.296562 
L 156.570739 309.865312 
L 158.420881 202.296562 
L 160.271023 202.296562 
L 162.121165 202.296562 
L 163.971307 309.865312 
L 165.821449 202.296562 
L 167.671591 202.296562 
L 169.521733 309.865312 
L 171.371875 202.296562 
L 173.222017 309.865312 
L 175.072159 202.296562 
L 176.922301 309.865312 
L 178.772443 309.865312 
L 180.622585 309.865312 
L 182.472727 309.865312 
L 184.322869 309.865312 
L 186.173011 202.296562 
L 188.023153 202.296562 
L 189.873295 309.865312 
L 191.723437 202.296562 
L 193.57358 202.296562 
L 195.423722 202.296562 
L 197.273864 309.865312 
L 199.124006 202.296562 
L 200.974148 309.865312 
L 202.82429 309.865312 
L 204.674432 309.865312 
L 206.524574 309.865312 
L 208.374716 202.296562 
L 210.224858 202.296562 
L 212.075 309.865312 
L 213.925142 309.865312 
L 215.775284 309.865312 
L 217.625426 309.865312 
L 219.475568 202.296562 
L 221.32571 309.865312 
L 223.175852 309.865312 
L 225.025994 202.296562 
L 226.876136 202.296562 
L 228.726278 309.865312 
L 230.57642 202.296562 
L 232.426562 309.865312 
L 234.276705 202.296562 
L 236.126847 309.865312 
L 237.976989 202.296562 
L 239.827131 202.296562 
L 241.677273 202.296562 
L 243.527415 309.865312 
L 245.377557 202.296562 
L 247.227699 202.296562 
L 249.077841 202.296562 
L 250.927983 309.865312 
L 252.778125 309.865312 
L 254.628267 309.865312 
L 256.478409 309.865312 
L 258.328551 309.865312 
L 260.178693 309.865312 
L 262.028835 309.865312 
L 263.878977 309.865312 
L 265.729119 309.865312 
L 267.579261 309.865312 
" clip-path="url(#p53d2e8a6f0)" style="fill: none; stroke: #1f77b4; stroke-linecap: square"/>
   </g>
   <g id="line2d_24">
    <path d="M 75.164489 309.865312 
L 77.014631 202.296562 
L 78.864773 309.865312 
L 80.714915 309.865312 
L 82.565057 309.865312 
L 84.415199 309.865312 
L 86.265341 309.865312 
L 88.115483 309.865312 
L 89.965625 309.865312 
L 91.815767 309.865312 
L 93.665909 202.296562 
L 95.516051 309.865312 
L 97.366193 309.865312 
L 99.216335 202.296562 
L 101.066477 202.296562 
L 102.916619 202.296562 
L 104.766761 309.865312 
L 106.616903 309.865312 
L 108.467045 202.296562 
L 110.317188 309.865312 
L 112.16733 309.865312 
L 114.017472 309.865312 
L 115.867614 309.865312 
L 117.717756 309.865312 
L 119.567898 309.865312 
L 121.41804 202.296562 
L 123.268182 309.865312 
L 125.118324 202.296562 
L 126.968466 202.296562 
L 128.818608 202.296562 
L 130.66875 202.296562 
L 132.518892 309.865312 
L 134.369034 309.865312 
L 136.219176 309.865312 
L 138.069318 309.865312 
L 139.91946 202.296562 
L 141.769602 202.296562 
L 143.619744 309.865312 
L 145.469886 202.296562 
L 147.320028 309.865312 
L 149.17017 309.865312 
L 151.020312 202.296562 
L 152.870455 309.865312 
L 154.720597 202.296562 
L 156.570739 309.865312 
L 158.420881 202.296562 
L 160.271023 202.296562 
L 162.121165 202.296562 
L 163.971307 309.865312 
L 165.821449 202.296562 
L 167.671591 202.296562 
L 169.521733 202.296562 
L 171.371875 202.296562 
L 173.222017 309.865312 
L 175.072159 202.296562 
L 176.922301 309.865312 
L 178.772443 309.865312 
L 180.622585 309.865312 
L 182.472727 309.865312 
L 184.322869 309.865312 
L 186.173011 202.296562 
L 188.023153 202.296562 
L 189.873295 309.865312 
L 191.723437 202.296562 
L 193.57358 202.296562 
L 195.423722 202.296562 
L 197.273864 309.865312 
L 199.124006 202.296562 
L 200.974148 309.865312 
L 202.82429 309.865312 
L 204.674432 309.865312 
L 206.524574 309.865312 
L 208.374716 202.296562 
L 210.224858 202.296562 
L 212.075 202.296562 
L 213.925142 309.865312 
L 215.775284 309.865312 
L 217.625426 202.296562 
L 219.475568 202.296562 
L 221.32571 309.865312 
L 223.175852 309.865312 
L 225.025994 202.296562 
L 226.876136 202.296562 
L 228.726278 309.865312 
L 230.57642 202.296562 
L 232.426562 309.865312 
L 234.276705 202.296562 
L 236.126847 309.865312 
L 237.976989 202.296562 
L 239.827131 202.296562 
L 241.677273 202.296562 
L 243.527415 309.865312 
L 245.377557 202.296562 
L 247.227699 202.296562 
L 249.077841 202.296562 
L 250.927983 309.865312 
L 252.778125 309.865312 
L 254.628267 309.865312 
L 256.478409 202.296562 
L 258.328551 309.865312 
L 260.178693 309.865312 
L 262.028835 309.865312 
L 263.878977 309.865312 
L 265.729119 202.296562 
L 267.579261 309.865312 
" clip-path="url(#p53d2e8a6f0)" style="fill: none; stroke: #ff7f0e; stroke-opacity: 0.5; stroke-linecap: square"/>
   </g>
   <g id="patch_6">
    <path d="M 65.54375 315.24375 
L 65.54375 196.918125 
" style="fill: none; stroke: #000000; stroke-width: 0.8; stroke-linejoin: miter; stroke-linecap: square"/>
   </g>
   <g id="patch_7">
    <path d="M 65.54375 315.24375 
L 277.2 315.24375 
" style="fill: none; stroke: #000000; stroke-width: 0.8; stroke-linejoin: miter; stroke-linecap: square"/>
   </g>
   <g id="text_26">
    <text style="font: 12px 'DejaVu Sans', 'Bitstream Vera Sans', 'Computer Modern Sans Serif', 'Lucida Grande', 'Verdana', 'Geneva', 'Lucid', 'Arial', 'Helvetica', 'Avant Garde', sans-serif; text-anchor: middle" x="171.371875" y="190.918125" transform="rotate(-0 171.371875 190.918125)">202405 - result</text>
   </g>
   <g id="legend_2">
    <g id="line2d_25">
     <path d="M 285.433125 205.016562 
L 285.433125 205.016562 
L 285.433125 205.016562 
" style="fill: none; stroke: #1f77b4; stroke-linecap: square"/>
    </g>
    <g id="text_27">
     <text style="fill: #1f77b4; font: 10px 'DejaVu Sans', 'Bitstream Vera Sans', 'Computer Modern Sans Serif', 'Lucida Grande', 'Verdana', 'Geneva', 'Lucid', 'Arial', 'Helvetica', 'Avant Garde', sans-serif; text-anchor: start" x="288.433125" y="208.516562" transform="rotate(-0 288.433125 208.516562)">real</text>
    </g>
    <g id="line2d_26">
     <path d="M 285.433125 219.694687 
L 285.433125 219.694687 
L 285.433125 219.694687 
" style="fill: none; stroke: #ff7f0e; stroke-opacity: 0.5; stroke-linecap: square"/>
    </g>
    <g id="text_28">
     <text style="fill: #ff7f0e; font: 10px 'DejaVu Sans', 'Bitstream Vera Sans', 'Computer Modern Sans Serif', 'Lucida Grande', 'Verdana', 'Geneva', 'Lucid', 'Arial', 'Helvetica', 'Avant Garde', sans-serif; text-anchor: start" x="288.433125" y="223.194687" transform="rotate(-0 288.433125 223.194687)">simulated</text>
    </g>
   </g>
  </g>
 </g>
 <defs>
  <clipPath id="p94b222d927">
   <rect x="65.54375" y="22.318125" width="211.65625" height="118.325625"/>
  </clipPath>
  <clipPath id="p53d2e8a6f0">
   <rect x="65.54375" y="196.918125" width="211.65625" height="118.325625"/>
  </clipPath>
 </defs>
</svg>
